<?xml version="1.0" standalone="no"?>
<!DOCTYPE svg PUBLIC "-//W3C//DTD SVG 1.1//EN" "http://www.w3.org/Graphics/SVG/1.1/DTD/svg11.dtd" >
<svg>
<metadata>
Created by FontForge 20090914 at Wed Aug 26 05:38:34 2015
 By www-data
&#194;&#169; 1992 Unity Progress. Portions &#194;&#169; 2004 The Monotype Corporation. Portions &#194;&#169; 2006 Microsoft Corporation. All Rights Reserved.
</metadata>
<defs>
<font id="AngsanaNew-Bold" horiz-adv-x="1352" >
  <font-face 
    font-family="Angsana New"
    font-weight="700"
    font-stretch="normal"
    units-per-em="4096"
    panose-1="2 2 8 3 7 5 5 2 3 4"
    ascent="3276"
    descent="-820"
    x-height="1234"
    cap-height="1790"
    bbox="-2053 -1774 3208 4076"
    underline-thickness="102"
    underline-position="-154"
    unicode-range="U+0020-U+25CC"
  />
<missing-glyph horiz-adv-x="2048" 
d="M204 0v2184h1640v-2184h-1640zM408 204h1232v1776h-1232v-1776z" />
    <glyph glyph-name=".notdef" horiz-adv-x="2048" 
d="M204 0v2184h1640v-2184h-1640zM408 204h1232v1776h-1232v-1776z" />
    <glyph glyph-name="space" unicode=" " horiz-adv-x="676" 
 />
    <glyph glyph-name="space" unicode="&#xa0;" horiz-adv-x="676" 
 />
    <glyph glyph-name="exclam" unicode="!" horiz-adv-x="900" 
d="M480 582h-58c-6 101.333 -26 222.666 -60 363.999l-69 288c-41.333 172.667 -62 296.334 -62 371.001c0 150.667 73 226 219 226c64 0 116.833 -20.833 158.5 -62.5s62.5 -94.834 62.5 -159.501c0 -68.667 -22 -193.667 -66 -375l-70 -288
c-24.667 -101.333 -43 -222.666 -55 -363.999zM453 393c68 0 120.667 -22.833 158 -68.5s56 -94.5 56 -146.5c0 -68.667 -22.667 -121.5 -68 -158.5s-94 -55.5 -146 -55.5c-68.667 0 -121.5 22.667 -158.5 68s-55.5 94 -55.5 146c0 60.667 20.5 111.667 61.5 153
s91.833 62 152.5 62z" />
    <glyph glyph-name="quotedbl" unicode="&#x22;" horiz-adv-x="1501" 
d="M461 952h-65.001l-137 508c-18 66.667 -27 124.667 -27 174c0 55.333 18.833 102 56.5 140s84.167 57 139.5 57c54.667 0 100.834 -18 138.501 -54s56.5 -81.333 56.5 -136c0 -40 -10.667 -101.333 -32 -184zM1098 952l-65.999 0.000976562l-133 507
c-21.333 81.333 -32 141 -32 179c0 60 21.333 107.167 64 141.5s88 51.5 136 51.5c47.333 0 91.166 -16.333 131.499 -49s60.5 -79.334 60.5 -140.001c0 -31.333 -11.333 -92.333 -34 -183z" />
    <glyph glyph-name="numbersign" unicode="#" 
d="M119 -37l113 560h-179v175h214l78 386h-292v171h326l115 572h174l-116 -572h389l114 572h174l-116 -572h185v-171h-218l-79 -386h297v-175h-330l-114 -560h-176l114 560h-384l-119 -560h-170zM442 698h388l77 386h-388z" />
    <glyph glyph-name="dollar" unicode="$" 
d="M747 1102c235.333 -146.667 380.668 -261.333 436.001 -344s83 -176 83 -280c0 -156 -51.333 -276.167 -154 -360.5s-224.334 -132.833 -365.001 -145.5v-154h-115v145c-170.667 3.33301 -336 36 -496 98v426h55c47.333 -268.667 194.333 -410.667 441 -426v652
c-230 140 -375.5 252.667 -436.5 338s-91.5 171.333 -91.5 258c0 135.333 50.5 242.333 151.5 321s226.5 127.667 376.5 147v62h115v-62c150 -10.667 300.667 -57 452 -139v-381h-52c-70.667 238.667 -204 381 -400 427v-582zM632.002 1688
c-73.333 -5.33301 -132.833 -29.333 -178.5 -72s-68.5 -92.334 -68.5 -149.001c0 -85.333 82.333 -182.666 247 -291.999v513zM747.002 61.001c146 34 219 117.667 219 251c0 106 -73 212.667 -219 320v-571z" />
    <glyph glyph-name="percent" unicode="%" horiz-adv-x="2703" 
d="M2076 1831l-1271 -1906h-177l1270 1906h178zM631 1831c146 0 256.668 -49.168 332.001 -147.501s113 -207.5 113 -327.5c0 -141.333 -41.5 -257.166 -124.5 -347.499s-191.5 -135.5 -325.5 -135.5c-147.333 0 -257.333 48 -330 144s-109 204.333 -109 325
c0 124 37.167 236.5 111.5 337.5s185.166 151.5 332.499 151.5zM631.001 1761c-76 0 -114 -143.333 -114 -430c0 -261.333 38 -392 114 -392s114 128.667 114 386c0 290.667 -38 436 -114 436zM2067 885.999c149.333 0 261.499 -48.833 336.499 -146.5
s112.5 -207.167 112.5 -328.5c0 -137.333 -41.667 -252.5 -125 -345.5s-190.333 -139.5 -321 -139.5c-142 0 -251 49.333 -327 148s-114 209.667 -114 333c0 138.667 40.333 253.167 121 343.5s186.334 135.5 317.001 135.5zM2071 816.999c-74 0 -111 -130.667 -111 -392
c0 -283.333 38 -425 114 -425c74.667 0 112 135 112 405c0 274.667 -38.333 412 -115 412z" />
    <glyph glyph-name="ampersand" unicode="&#x26;" horiz-adv-x="2252" 
d="M1539 1071l549 0.000976562v-52c-64 -8.66699 -113.833 -28.667 -149.5 -60s-79.834 -94 -132.501 -188c-56 -100.667 -135.333 -213.667 -238 -339c150 -134.667 261.667 -202 335 -202c65.333 0 124.333 42.667 177 128l55 -29c-126 -246.667 -274.333 -370 -445 -370
c-128 0 -269 70 -423 210c-208 -140 -412 -210 -612 -210c-136.667 0 -262 38.667 -376 116s-171 190.333 -171 339c0 252.667 184 452 552 598c-46 114.667 -69 223.667 -69 327c0 143.333 49.833 261.166 149.5 353.499s225.834 138.5 378.501 138.5
c111.333 0 206.5 -28.167 285.5 -84.5s118.5 -131.5 118.5 -225.5c0 -186.667 -154.667 -336.667 -464 -450c99.333 -175.333 245 -364.333 437 -567c129.333 145.333 194 270 194 374c0 83.333 -50.333 130.333 -151 141v52zM1014 1150
c155.333 58 233.001 141.999 233.001 251.999c0 84.667 -19.333 158.667 -58 222s-87.334 95 -146.001 95c-100.667 0 -151 -60.333 -151 -181c0 -79.333 40.667 -208.666 122 -387.999zM697.001 928c-140.667 -55.333 -211 -142.001 -211 -260.001
c0 -121.333 46 -235.666 138 -342.999s195.667 -161 311 -161c67.333 0 150.333 29 249 87c-212 217.333 -374.333 443 -487 677z" />
    <glyph glyph-name="quotesingle" unicode="'" horiz-adv-x="751" 
d="M413 953l-63.001 -0.000976562l-139 504c-17.333 62.667 -26 120.334 -26 173.001c0 50 16.5 96 49.5 138s81.167 63 144.5 63c48.667 0 93.334 -16.5 134.001 -49.5s61 -80.833 61 -143.5c0 -42 -10 -101.667 -30 -179z" />
    <glyph glyph-name="parenleft" unicode="(" horiz-adv-x="900" 
d="M871 1932v-61c-140 -90 -242.667 -215.667 -308 -377s-98 -411 -98 -749c0 -592 135.333 -965 406 -1119v-66c-247.333 82.667 -436 241.334 -566 476.001s-195 473.667 -195 717c0 266 69.667 510.167 209 732.5s323.333 371.166 552 446.499z" />
    <glyph glyph-name="parenright" unicode=")" horiz-adv-x="900" 
d="M19 -440l-0.000976562 61.001c154.667 94 260.834 226.833 318.501 398.5s86.5 414.5 86.5 728.5c0 235.333 -19.667 434 -59 596s-88.333 279 -147 351s-125 129 -199 171v66c228.667 -76.667 412.5 -227.667 551.5 -453s208.5 -472 208.5 -740
c0 -266 -69.833 -509.833 -209.5 -731.5s-323.167 -370.834 -550.5 -447.501z" />
    <glyph glyph-name="asterisk" unicode="*" 
d="M651 1309c-4 76 -27.3291 155.666 -69.9961 238.999c-28 54.667 -42 98 -42 130c0 38.667 13.333 73.834 40 105.501s59 47.5 97 47.5c93.333 0 140 -51.667 140 -155c0 -33.333 -12.667 -75 -38 -125c-42.667 -84.667 -67 -165.334 -73 -242.001
c72 30 138.333 77.333 199 142c55.333 58.667 108.666 88 159.999 88c91.333 0 137 -43 137 -129c0 -96 -58.333 -144 -175 -144l-155 4c-46.667 0 -98.667 -1.33301 -156 -4c56 -63.333 122 -114.333 198 -153c92 -46.667 138 -103 138 -169c0 -90 -43.667 -135 -131 -135
c-90 0 -145 71.333 -165 214c-10.667 78.667 -36.334 151.334 -77.001 218.001c-44.667 -72 -72.334 -144.667 -83.001 -218c-20 -140 -74 -210 -162 -210s-132 42 -132 126c0 68.667 46.333 128.667 139 180c77.333 42.667 143.666 91.667 198.999 147
c-86 2.66699 -147 4 -183 4l-135 -5c-114 0 -171 47.333 -171 142c0 88 46 132 138 132c32.667 0 61.667 -7.5 87 -22.5s77.333 -61.167 156 -138.5c27.333 -22.667 67.333 -45.667 120 -69z" />
    <glyph glyph-name="plus" unicode="+" horiz-adv-x="1540" 
d="M53 982h635v634h173v-634h635v-174h-635v-628h-173v628h-635v174z" />
    <glyph glyph-name="comma" unicode="," horiz-adv-x="676" 
d="M135 -474l-0.000976562 58.001c194 84 291 212.667 291 386c0 30 -9 45 -27 45c-12.667 0 -30 -5.33301 -52 -16c-21.333 -10.667 -43.666 -16 -66.999 -16c-54 0 -99.667 20.333 -137 61s-56 88 -56 142c0 68 24.167 121.5 72.5 160.5s99.5 58.5 153.5 58.5
c84 0 150.667 -31.333 200 -94s74 -140.667 74 -234c0 -274.667 -150.667 -458.334 -452 -551.001z" />
    <glyph glyph-name="hyphen" unicode="-" horiz-adv-x="900" 
d="M836 661h-770v274h770v-274z" />
    <glyph glyph-name="period" unicode="." horiz-adv-x="676" 
d="M338 407c70.667 0 125.001 -23.333 163.001 -70s57 -97 57 -151c0 -62 -21.167 -114 -63.5 -156s-94.5 -63 -156.5 -63c-42.667 0 -80.334 9.66699 -113.001 29s-58.5 45.333 -77.5 78s-28.5 70 -28.5 112c0 62 21 114.333 63 157s94 64 156 64z" />
    <glyph glyph-name="slash" unicode="/" horiz-adv-x="751" 
d="M759 1831l-587 -1872h-169l590 1872h166z" />
    <glyph glyph-name="zero" unicode="0" 
d="M1253 895c0 -286 -54 -512.833 -162 -680.5s-246.667 -251.5 -416 -251.5c-180.667 0 -322 87.333 -424 262s-153 391 -153 649c0 296 53.167 528.833 159.5 698.5s245.5 254.5 417.5 254.5s311.333 -83.333 418 -250s160 -394 160 -682zM846 898
c0 284.667 -1.33203 465.833 -3.99902 543.5s-17.667 146.167 -45 205.5s-69.333 89 -126 89c-78.667 0 -127.167 -46.333 -145.5 -139s-27.5 -383 -27.5 -871c0 -266.667 10.5 -444.5 31.5 -533.5s70.5 -133.5 148.5 -133.5c107.333 0 161.666 90.333 162.999 271z" />
    <glyph glyph-name="one" unicode="1" 
d="M880 1827v-1464c0 -93.333 3 -156.833 9 -190.5s24.667 -62.667 56 -87s84.333 -36.5 159 -36.5h40v-49h-942v49h47c70.667 0 124.667 9.5 162 28.5s60.833 44.667 70.5 77s14.5 101.833 14.5 208.5v928c0 92 -11.167 153.333 -33.5 184s-54.5 46 -96.5 46
c-45.333 0 -100 -14.333 -164 -43l-24 48l659 301h43z" />
    <glyph glyph-name="two" unicode="2" 
d="M1119 0l-1053 0.000976562v29c312 360.667 505.333 616.834 580 768.501s112 284.167 112 397.5c0 90.667 -28.167 167 -84.5 229s-126.833 93 -211.5 93c-135.333 0 -240.333 -68 -315 -204l-49 18c92.667 330.667 276.334 496 551.001 496c113.333 0 223 -40 329 -120
s159 -188 159 -324c0 -107.333 -34.5 -230.333 -103.5 -369s-261.167 -361.334 -576.5 -668.001h387c105.333 0 176.666 8.66699 213.999 26s75.333 65.666 114 144.999h48z" />
    <glyph glyph-name="three" unicode="3" 
d="M400 898l0.000976562 46.0039c234 56 351 173.333 351 352c0 85.333 -29.167 151.166 -87.5 197.499s-121.833 69.5 -190.5 69.5c-123.333 0 -228.333 -65 -315 -195l-48 17c126.667 294.667 318 442 574 442c104 0 201.167 -32.833 291.5 -98.5
s135.5 -159.167 135.5 -280.5c0 -144.667 -77.333 -262 -232 -352c211.333 -103.333 317 -257.333 317 -462c0 -133.333 -31.833 -249.833 -95.5 -349.5s-151 -178.334 -262 -236.001s-240.5 -86.5 -388.5 -86.5c-270.667 0 -406 70.333 -406 211
c0 34.667 12.667 67.667 38 99s60.333 47 105 47c48 0 136 -51 264 -153c71.333 -56.667 141 -85 209 -85c75.333 0 133.833 28.167 175.5 84.5s62.5 119.166 62.5 188.499c0 143.333 -48.833 261.666 -146.5 354.999s-214.834 156.333 -351.501 189z" />
    <glyph glyph-name="four" unicode="4" 
d="M67 675l850 1152h161v-1152h164v-274h-164v-401h-363v401h-648v274zM195 675h520v706z" />
    <glyph glyph-name="five" unicode="5" 
d="M412 1790l838 -0.00195312l-133 -341h-705l-67 -178c190 -7.33301 351 -39 483 -95s234.833 -132 308.5 -228s110.5 -207.333 110.5 -334c0 -177.333 -68 -330.166 -204 -458.499s-311.667 -192.5 -527 -192.5c-130.667 0 -233 21 -307 63s-111 92.333 -111 151
c0 33.333 12.833 65.666 38.5 96.999s60.167 47 103.5 47c64 0 159 -44 285 -132c88.667 -62 165.667 -93 231 -93c82.667 0 146.667 28.5 192 85.5s68 118.5 68 184.5c0 118.667 -41.5 217.834 -124.5 297.501s-187 136.834 -312 171.501s-287.833 52 -488.5 52z" />
    <glyph glyph-name="six" unicode="6" 
d="M1270 1827l-0.000976562 -37.001c-201.333 -50 -362.833 -128.5 -484.5 -235.5s-207.5 -270.833 -257.5 -491.5c77.333 52 167 78 269 78c141.333 0 254.833 -50.5 340.5 -151.5s128.5 -231.833 128.5 -392.5c0 -204 -57.5 -360.667 -172.5 -470s-245.5 -164 -391.5 -164
c-192.667 0 -341.167 73.667 -445.5 221s-156.5 318.333 -156.5 513c0 311.333 107.833 576.333 323.5 795s497.834 330.334 846.501 335.001zM510.999 955.999c-7.33301 -121.333 -11 -210.333 -11 -267c0 -207.333 21 -365.833 63 -475.5s99 -164.5 171 -164.5
c104 0 156 119.333 156 358c0 394.667 -80.667 592 -242 592c-35.333 0 -81 -14.333 -137 -43z" />
    <glyph glyph-name="seven" unicode="7" 
d="M479 -37l487 1477h-371c-116 0 -211.333 -13.167 -286 -39.5s-130.667 -81.833 -168 -166.5h-50l129 556h1067l-601 -1827h-207z" />
    <glyph glyph-name="eight" unicode="8" 
d="M921 1011c224 -164 336 -341.334 336 -532.001c0 -156 -57.5 -281 -172.5 -375s-259.5 -141 -433.5 -141c-144.667 0 -273.5 36.833 -386.5 110.5s-169.5 186.834 -169.5 339.501c0 189.333 121 339.333 363 450c-146 110.667 -238 202 -276 274s-57 149 -57 231
c0 136.667 55.5 246.167 166.5 328.5s245.833 123.5 404.5 123.5c138 0 261.167 -33.667 369.5 -101s162.5 -170.333 162.5 -309c0 -164.667 -102.333 -297.667 -307 -399zM821 1078c64 87.333 96 196.667 96 328c0 221.333 -75.667 332 -227 332
c-68 0 -120.333 -23.333 -157 -70s-55 -97.667 -55 -153c0 -142 114.333 -287.667 343 -437zM557 800c-84.667 -76.667 -127 -205.669 -127 -387.002c0 -243.333 81 -365 243 -365c69.333 0 124.833 24.833 166.5 74.5s62.5 112.834 62.5 189.501
c0 170.667 -115 333.334 -345 488.001z" />
    <glyph glyph-name="nine" unicode="9" 
d="M83 -37l0.00195312 36.999c419.333 93.333 665.333 333.666 738 720.999c-97.333 -50.667 -184 -76 -260 -76c-142.667 0 -257.334 50.5 -344.001 151.5s-130 233.167 -130 396.5c0 199.333 56.833 354.833 170.5 466.5s245.167 167.5 394.5 167.5
c183.333 0 329.666 -72.167 438.999 -216.5s164 -318.166 164 -521.499c0 -303.333 -103.833 -563.166 -311.5 -779.499s-494.5 -331.833 -860.5 -346.5zM841.002 831.999c8.66699 98 13 184.668 13 260.001c0 179.333 -19.167 331.666 -57.5 456.999s-97.5 188 -177.5 188
c-102.667 0 -154 -118 -154 -354c0 -396 80 -594 240 -594c34 0 79.333 14.333 136 43z" />
    <glyph glyph-name="colon" unicode=":" horiz-adv-x="900" 
d="M451 1270c53.333 0 103.332 -19 149.999 -57s70 -92 70 -162c0 -62 -21.167 -114 -63.5 -156s-94.5 -63 -156.5 -63c-37.333 0 -72.166 8.33301 -104.499 25s-59.5 42 -81.5 76s-33 73.333 -33 118c0 42 9.83301 79.333 29.5 112s45.667 58.667 78 78s69.5 29 111.5 29z
M449.999 407c42 0 79.5 -9.83398 112.5 -29.501s59.333 -46 79 -79s29.5 -70.5 29.5 -112.5c0 -62 -21.333 -114 -64 -156s-95 -63 -157 -63c-38 0 -73 8.33301 -105 25s-59 41.834 -81 75.501s-33 73.167 -33 118.5c0 62 21 114.333 63 157s94 64 156 64z" />
    <glyph glyph-name="semicolon" unicode=";" horiz-adv-x="900" 
d="M450 1270c42.667 0 80.167 -9.66895 112.5 -29.002s58 -45.166 77 -77.499s28.5 -69.5 28.5 -111.5c0 -61.333 -21 -113.166 -63 -155.499s-93.667 -63.5 -155 -63.5c-42 0 -79.333 9.66699 -112 29s-58.667 45.333 -78 78s-29 70 -29 112c0 70.667 23 124.667 69 162
s96 56 150 56zM248 -474.002v58c194.667 84 292 212.667 292 386c0 30 -9 45 -27 45c-5.33301 0 -20.666 -5.33301 -45.999 -16s-50 -16 -74 -16c-54 0 -99.5 20.333 -136.5 61s-55.5 88 -55.5 142c0 60.667 22.167 112.334 66.5 155.001s97.166 64 158.499 64
c83.333 0 150 -31.333 200 -94s75 -140.667 75 -234c0 -274.667 -151 -458.334 -453 -551.001z" />
    <glyph glyph-name="less" unicode="&#x3c;" horiz-adv-x="1540" 
d="M1496 244l-1442 589v107l1442 595v-182l-1116 -466l1116 -458v-185z" />
    <glyph glyph-name="equal" unicode="=" horiz-adv-x="1540" 
d="M53 1193h1444v-171h-1444v171zM53 762h1444v-172h-1444v172z" />
    <glyph glyph-name="greater" unicode="&#x3e;" horiz-adv-x="1540" 
d="M54 1535l1442 -587v-108l-1442 -596v184l1116 464l-1116 458v185z" />
    <glyph glyph-name="question" unicode="?" 
d="M642 583l-55 0.00195312c0 157.333 33.333 297.333 100 420c75.333 138.667 113 270.334 113 395.001c0 228 -77 342 -231 342c-34.667 0 -69.5 -9 -104.5 -27s-52.5 -42 -52.5 -72c0 -11.333 13.667 -44.333 41 -99s41 -101.334 41 -140.001
c0 -101.333 -51.667 -152 -155 -152c-116 0 -174 63.333 -174 190c0 124.667 51.5 221 154.5 289s221.833 102 356.5 102c138 0 259.833 -33.833 365.5 -101.5s158.5 -172.834 158.5 -315.501c0 -165.333 -111.333 -321.333 -334 -468
c-98 -64.667 -158.833 -122.334 -182.5 -173.001s-37.5 -114 -41.5 -190zM627 391.002c41.333 0 77.8311 -9.5 109.498 -28.5s56.834 -44.333 75.501 -76s28 -67.834 28 -108.501c0 -60 -20.5 -110.667 -61.5 -152s-91.5 -62 -151.5 -62c-68 0 -120.5 22.667 -157.5 68
s-55.5 94 -55.5 146c0 41.333 9.5 77.833 28.5 109.5s44.333 56.834 76 75.501s67.834 28 108.501 28z" />
    <glyph glyph-name="at" unicode="@" horiz-adv-x="2515" 
d="M1556 1221l321.999 13.001l-241 -829c-27.333 -94 -41 -162.667 -41 -206c0 -69.333 35.667 -104 107 -104c118 0 242.333 82 373 246s196 355.333 196 574c0 246.667 -78.667 447.167 -236 601.5s-360.333 231.5 -609 231.5c-357.333 0 -641.166 -120.5 -851.499 -361.5
s-315.5 -526.833 -315.5 -857.5c0 -305.333 95.833 -554.833 287.5 -748.5s439.834 -290.5 744.501 -290.5c247.333 0 468.833 65.833 664.5 197.5s335.167 308.5 418.5 530.5h80c-104.667 -257.333 -257.5 -455.166 -458.5 -593.499s-436.5 -207.5 -706.5 -207.5
c-208.667 0 -398.834 43 -570.501 129s-314.334 217.5 -428.001 394.5s-170.5 388.833 -170.5 635.5c0 358 119.667 656.667 359 896s545.666 359 918.999 359c320.667 0 558.834 -89.333 714.501 -268s233.5 -386.334 233.5 -623.001c0 -240 -69.667 -456.667 -209 -650
s-333.666 -290 -582.999 -290c-178.667 0 -268 77 -268 231c0 47.333 10.667 109.333 32 186c-160 -278 -312 -417 -456 -417c-147.333 0 -221 97.667 -221 293c0 155.333 30.333 300.666 91 435.999s150 259.5 268 372.5s225.667 169.5 323 169.5
c104 0 166.333 -69 187 -207zM1357 1176c-73.333 0 -154.167 -103.832 -242.5 -311.499s-132.5 -374.834 -132.5 -501.501c0 -80.667 26 -121 78 -121c62 0 142.667 85 242 255s149 338.333 149 505c0 116 -31.333 174 -94 174z" />
    <glyph glyph-name="A" unicode="A" horiz-adv-x="1952" 
d="M1125 510l-633 0.00195312l-75 -175c-24.667 -57.333 -37 -105.333 -37 -144c0 -38 12.333 -69.5 37 -94.5s91 -40.833 199 -47.5v-49h-595v49c64.667 10 118.334 38.333 161.001 85s93 135 151 265l640 1428h25l645 -1468c54 -122.667 98.667 -203.834 134 -243.501
s83.666 -61.834 144.999 -66.501v-49h-866v49h36c116.667 0 175 30 175 90c0 24 -15.667 73 -47 147zM1080 607.002l-267 617l-274 -617h541z" />
    <glyph glyph-name="B" unicode="B" horiz-adv-x="1803" 
d="M1203 949c336.667 -71.333 505.001 -223.001 505.001 -455.001c0 -148.667 -65 -268.167 -195 -358.5s-312.333 -135.5 -547 -135.5h-909v49c60 0 108.833 6.16699 146.5 18.5s64 31 79 56s22.5 88.5 22.5 190.5v1162c0 78.667 -3.5 132.667 -10.5 162
s-26 53.833 -57 73.5s-91.167 29.5 -180.5 29.5v49h858c142.667 0 262.167 -10 358.5 -30s179.166 -69.5 248.499 -148.5s104 -169.5 104 -271.5c0 -189.333 -141 -319.666 -423 -390.999zM722.001 984.999c307.333 0 461 118.667 461 356
c0 97.333 -29.667 179.833 -89 247.5s-183.333 101.5 -372 101.5v-705zM722.001 881.999l1.00098 -637.998c-1.33301 -97.333 46 -146 142 -146c119.333 0 212.166 36.167 278.499 108.5s99.5 163.166 99.5 272.499c0 136.667 -38.333 238.167 -115 304.5
s-212 99.166 -406 98.499z" />
    <glyph glyph-name="C" unicode="C" horiz-adv-x="1952" 
d="M1804 1831l0.000976562 -621.002h-51c-36.667 154.667 -106.334 277 -209.001 367s-225 135 -367 135c-174.667 0 -317.5 -69.167 -428.5 -207.5s-166.5 -333.166 -166.5 -584.499c0 -558 195.333 -837 586 -837c215.333 0 417.333 109.667 606 329v-155
c-190.667 -198.667 -422 -298 -694 -298c-320.667 0 -563 91.333 -727 274s-246 392.334 -246 629.001c0 264 95.5 491.5 286.5 682.5s421.833 286.5 692.5 286.5c125.333 0 258.333 -27.333 399 -82c80.667 -31.333 132 -47 154 -47c64 0 102 43 114 129h51z" />
    <glyph glyph-name="D" unicode="D" horiz-adv-x="1952" 
d="M36 0l-0.00195312 49.002h59c44 0 80.833 6.83301 110.5 20.5s50.834 32.5 63.501 56.5s19 84 19 180v1178c0 71.333 -2.5 121.166 -7.5 149.499s-23.333 53.333 -55 75s-75.167 32.5 -130.5 32.5h-59v49h801c338 0 589.5 -80.833 754.5 -242.5
s247.5 -380.834 247.5 -657.501c0 -288.667 -88.167 -509.167 -264.5 -661.5s-422.166 -228.5 -737.499 -228.5h-801zM717.998 1688v-1396c0 -73.333 8.16699 -124 24.5 -152s57.833 -42 124.5 -42c330 0 495 260.333 495 781c0 200.667 -25.5 361.667 -76.5 483
s-115.333 206.333 -193 255s-202.5 72.334 -374.5 71.001z" />
    <glyph glyph-name="E" unicode="E" horiz-adv-x="1803" 
d="M737 1687l0.000976562 -729h35c201.333 0 316.333 141 345 423h50v-937h-50c-16 155.333 -52.833 263.333 -110.5 324s-147.5 91 -269.5 91v-504c0 -122.667 13.667 -196 41 -220s106 -36 236 -36c325.333 0 531.666 156.667 618.999 470h49l-81 -569h-1547v49h60
c78.667 0 130.334 17.333 155.001 52s37 103 37 205v1178c0 74 -2 125 -6 153s-21.833 52.333 -53.5 73s-75.834 31 -132.501 31h-60v49h1498v-529h-50c-28 146 -71 246.5 -129 301.5s-118.5 89.5 -181.5 103.5s-153.167 21 -270.5 21h-184z" />
    <glyph glyph-name="F" unicode="F" horiz-adv-x="1651" 
d="M743 1687v-734.999h52c230.667 0 360.334 128 389.001 384h46v-899h-46c-27.333 278 -157 417 -389 417h-52v-548c0 -68 2.66699 -117 8 -147s23.666 -55.833 54.999 -77.5s75 -32.5 131 -32.5h60v-49h-936v49h59c75.333 0 126.333 17.167 153 51.5s40 102.833 40 205.5
v1178c0 71.333 -2.5 121.166 -7.5 149.499s-23.333 53.333 -55 75s-75.167 32.5 -130.5 32.5h-59v49h1510v-514h-54c-10.667 102.667 -40.167 186 -88.5 250s-108.833 106.833 -181.5 128.5s-185 32.5 -337 32.5h-167z" />
    <glyph glyph-name="G" unicode="G" horiz-adv-x="2103" 
d="M1865 1831l-0.00292969 -631.001h-49c-55.333 163.333 -140.666 292.166 -255.999 386.499s-247.333 141.5 -396 141.5c-207.333 0 -355.5 -80.667 -444.5 -242s-133.5 -361.333 -133.5 -600c0 -552 192.667 -828 578 -828c84 0 174.667 18 272 54v372
c0 145.333 -61.667 218 -185 218h-46v49h870v-49c-85.333 -5.33301 -141.666 -22.666 -168.999 -51.999s-41 -84.666 -41 -165.999v-372c-230.667 -102.667 -478 -154 -742 -154c-201.333 0 -377.5 39.833 -528.5 119.5s-269.5 187.167 -355.5 322.5s-129 292.333 -129 471
c0 186.667 43.5 351.167 130.5 493.5s204.833 255.833 353.5 340.5s320 127 514 127c132.667 0 274.334 -27.333 425.001 -82c88 -32 140.333 -48 157 -48c54 0 96 43 126 129h49z" />
    <glyph glyph-name="H" unicode="H" horiz-adv-x="2103" 
d="M739 861l-0.000976562 -554.998c0 -68 2.66699 -117 8 -147s23.666 -55.833 54.999 -77.5s75 -32.5 131 -32.5h60v-49h-936v49h59c75.333 0 126.333 17.167 153 51.5s40 102.833 40 205.5v1178c0 71.333 -2.5 121.166 -7.5 149.499s-23.333 53.333 -55 75
s-75.167 32.5 -130.5 32.5h-59v49h936v-49h-60c-75.333 0 -126.5 -17.167 -153.5 -51.5s-40.5 -102.833 -40.5 -205.5v-507h633v507c0 71.333 -2.33301 121.166 -7 149.499s-23.167 53.333 -55.5 75s-76.5 32.5 -132.5 32.5h-58v49h935v-49h-58
c-80 0 -132.333 -17.5 -157 -52.5s-37 -103.167 -37 -204.5v-1178c0 -71.333 2.33301 -121.333 7 -150s22.834 -53.667 54.501 -75s75.834 -32 132.501 -32h58v-49h-935v49h58c80 0 132.5 17.833 157.5 53.5s37.5 103.5 37.5 203.5v555h-633z" />
    <glyph glyph-name="I" unicode="I" horiz-adv-x="1052" 
d="M990 49l-0.00195312 -49.0029h-936v49h60c78.667 0 130.334 17.333 155.001 52s37 103 37 205v1178c0 70.667 -2.5 120.334 -7.5 149.001s-23.167 53.834 -54.5 75.501s-74.666 32.5 -129.999 32.5h-60v49h936v-49h-59c-80 0 -132.333 -17.5 -157 -52.5
s-37 -103.167 -37 -204.5v-1178c0 -71.333 2.33301 -121.166 7 -149.499s23 -53.333 55 -75s76 -32.5 132 -32.5h59z" />
    <glyph glyph-name="J" unicode="J" 
d="M384 1741v49h952v-49h-58c-80.667 0 -133.167 -17.5 -157.5 -52.5s-36.5 -103.167 -36.5 -204.5v-877c0 -130.667 -11.833 -241.167 -35.5 -331.5s-79 -165.666 -166 -225.999s-203.5 -90.5 -349.5 -90.5c-120 0 -234 33.5 -342 100.5s-162 160.833 -162 281.5
c0 52 16.5 99.5 49.5 142.5s81.5 64.5 145.5 64.5c46.667 0 90 -15.333 130 -46s60 -74.667 60 -132c0 -40.667 -14.667 -82 -44 -124c-28.667 -41.333 -43 -69.333 -43 -84c0 -64 55 -96 165 -96c68 0 111.833 25.5 131.5 76.5s29.5 179.167 29.5 384.5v957
c0 71.333 -2.33301 121.166 -7 149.499s-23 53.333 -55 75s-76 32.5 -132 32.5h-75z" />
    <glyph glyph-name="K" unicode="K" horiz-adv-x="2103" 
d="M1126 1105l630.002 -788.001c73.333 -91.333 138.166 -158.833 194.499 -202.5s117.166 -65.5 182.499 -65.5v-49h-932v49c93.333 8 140 33.333 140 76c0 38 -40.333 107.667 -121 209l-411 516l-66 -55v-489c0 -70 2.83301 -119.833 8.5 -149.5s26.5 -55 62.5 -76
s86 -31.5 150 -31.5v-49h-903v49h59c75.333 0 126.333 17.167 153 51.5s40 102.833 40 205.5v1178c0 71.333 -2.5 121.166 -7.5 149.499s-23.333 53.333 -55 75s-75.167 32.5 -130.5 32.5h-59v49h891v-49c-48 0 -87.667 -6.66699 -119 -20s-54.166 -32.666 -68.499 -57.999
s-21.5 -85 -21.5 -179v-557l664 537c92.667 74.667 139 134.334 139 179.001c0 24.667 -10.833 46.834 -32.5 66.501s-77.834 30.167 -168.501 31.5v49h698v-49c-57.333 -4 -106.333 -16.333 -147 -37s-122.667 -80.334 -246 -179.001z" />
    <glyph glyph-name="L" unicode="L" horiz-adv-x="1803" 
d="M1707 628l-68.0049 -628.001h-1589v49h60c78.667 0 130.334 17.333 155.001 52s37 103 37 205v1178c0 70.667 -2.5 120.334 -7.5 149.001s-23.167 53.834 -54.5 75.501s-74.666 32.5 -129.999 32.5h-60v49h955v-49h-78c-80 0 -132.333 -17.5 -157 -52.5
s-37 -103.167 -37 -204.5v-1141c0 -66 6.33301 -118.167 19 -156.5s30.334 -62.333 53.001 -72s127.334 -14.5 314.001 -14.5c138 0 247.333 39.667 328 119s149.334 215.666 206.001 408.999h54z" />
    <glyph glyph-name="M" unicode="M" horiz-adv-x="2552" 
d="M1288 610l485.998 1180h729v-49h-58c-44 0 -80.667 -6.83301 -110 -20.5s-50.666 -32.834 -63.999 -57.501s-20 -83.667 -20 -177v-1180c0 -73.333 2.5 -123.166 7.5 -149.499s23 -50.833 54 -73.5s75.167 -34 132.5 -34h58v-49h-935v49h58
c80.667 0 133.167 17.5 157.5 52.5s36.5 103.167 36.5 204.5v1327l-686 -1633h-32l-697 1621v-1261c0 -84 3.33301 -143.5 10 -178.5s31.5 -65.833 74.5 -92.5s102.167 -40 177.5 -40v-49h-613v49h19c64.667 0 114.334 12.5 149.001 37.5s57.167 54.167 67.5 87.5
s15.5 93.333 15.5 180v1132c0 71.333 -2.33301 121 -7 149s-23 52.667 -55 74s-76 32 -132 32h-57v49h731z" />
    <glyph glyph-name="N" unicode="N" horiz-adv-x="1952" 
d="M673 1790l882.998 -1110v769c0 122 -21.167 201.167 -63.5 237.5s-107.166 54.5 -194.499 54.5v49h591v-49c-94.667 -8.66699 -157.5 -31.667 -188.5 -69s-46.5 -111.666 -46.5 -222.999v-1490h-45l-1210 1490v-1137c0 -175.333 77.333 -263 232 -263h42v-49h-635v49
c96.667 0.666992 164.834 20.5 204.501 59.5s59.5 106.833 59.5 203.5v1263l-38 47c-62 76.667 -137.333 116.334 -226 119.001v49h635z" />
    <glyph glyph-name="O" unicode="O" horiz-adv-x="2103" 
d="M1044 1815c194 0 359.67 -35.3311 497.003 -105.998s249.166 -176.334 335.499 -317.001s129.5 -304 129.5 -490c0 -260 -84.833 -482.167 -254.5 -666.5s-399.834 -276.5 -690.501 -276.5c-317.333 0 -555.833 96.333 -715.5 289s-239.5 410 -239.5 652
c0 158.667 34.333 305.667 103 441s173.167 248.166 313.5 338.499s314.166 135.5 521.499 135.5zM1060 1731c-318.667 0 -478 -281 -478 -843c0 -553.333 158.333 -830 475 -830c315.333 0 473 273.333 473 820c0 568.667 -156.667 853 -470 853z" />
    <glyph glyph-name="P" unicode="P" horiz-adv-x="1651" 
d="M730 811v-497c0 -77.333 3.33301 -130.833 10 -160.5s25.5 -54.5 56.5 -74.5s91.5 -30 181.5 -30v-49h-909v49c60 0 108.833 6.16699 146.5 18.5s64 31 79 56s22.5 88.5 22.5 190.5v1162c0 78.667 -3.5 132.667 -10.5 162s-26 53.833 -57 73.5s-91.167 29.5 -180.5 29.5
v49h780c480.667 0 721 -160.333 721 -481c0 -120.667 -32.333 -219.5 -97 -296.5s-152.167 -129.833 -262.5 -158.5s-270.5 -43 -480.5 -43zM730 1687v-774.001c194 0 309.333 43.333 346 130s55 173.334 55 260.001c0 256 -115.667 384 -347 384h-54z" />
    <glyph glyph-name="Q" unicode="Q" horiz-adv-x="2103" 
d="M1292 -16c81.333 -234.667 251.335 -351.999 510.002 -351.999c35.333 0 72.666 3.33301 111.999 10v-80c-132.667 -33.333 -251.334 -50 -356.001 -50c-354.667 0 -598 157.333 -730 472c-150 31.333 -278.333 90 -385 176s-189.5 191.667 -248.5 317
s-88.5 265.666 -88.5 420.999c0 185.333 41 347 123 485s193.833 247.167 335.5 327.5s306.5 120.5 494.5 120.5c274.667 0 501.5 -87.667 680.5 -263s268.5 -398.666 268.5 -669.999c0 -226.667 -67.833 -426.834 -203.5 -600.501s-306.5 -278.167 -512.5 -313.5z
M1057 1731c-316.667 0 -475 -279 -475 -837c0 -557.333 158.333 -836 475 -836c317.333 0 476 269 476 807c0 577.333 -158.667 866 -476 866z" />
    <glyph glyph-name="R" unicode="R" horiz-adv-x="1952" 
d="M718 816l-0.000976562 -501.998c0 -78.667 3.5 -132.667 10.5 -162s26 -53.833 57 -73.5s91.167 -29.5 180.5 -29.5v-49h-916v49c60 0 108.833 6.16699 146.5 18.5s64 30.666 79 54.999s22.5 88.166 22.5 191.499v1162c0 77.333 -3.33301 131 -10 161
s-25.5 54.833 -56.5 74.5s-91.5 29.5 -181.5 29.5v49h832c356 0 581 -49.333 675 -148s141 -214 141 -346c0 -234 -132.667 -384 -398 -450l431 -606c52.667 -74 93.834 -123.667 123.501 -149s70.167 -39.333 121.5 -42v-49h-564l-576 816h-118zM717.999 1694v-784.001h75
c162.667 0 281.667 28.833 357 86.5s113 156.834 113 297.501c0 266.667 -134.667 400 -404 400h-141z" />
    <glyph glyph-name="S" unicode="S" horiz-adv-x="1504" 
d="M1270 1831l14.002 -596.999h-54c-24 140 -84 258 -180 354s-206.667 144 -332 144c-72.667 0 -139.5 -20.167 -200.5 -60.5s-91.5 -99.5 -91.5 -177.5c0 -64 27.667 -121.5 83 -172.5s173.333 -121.167 354 -210.5c222 -108.667 366.167 -209.667 432.5 -303
s99.5 -194 99.5 -302c0 -158.667 -60.5 -289.667 -181.5 -393s-266.833 -155 -437.5 -155c-100.667 0 -216.667 27.333 -348 82c-41.333 17.333 -76.333 26 -105 26c-58 0 -102.667 -35.667 -134 -107h-49v676h49c35.333 -172 105 -312.5 209 -421.5s228 -163.5 372 -163.5
c82 0 156.333 23.333 223 70s100 112.667 100 198c0 70 -26.833 132.167 -80.5 186.5s-153.167 117.166 -298.5 188.499c-206.667 102 -353.834 198.333 -441.501 289s-131.5 202 -131.5 334c0 146.667 53.167 269.167 159.5 367.5s237.5 147.5 393.5 147.5
c77.333 0 166 -20.667 266 -62c100 -40.667 159.667 -61 179 -61c43.333 0 73.666 41 90.999 123h40z" />
    <glyph glyph-name="T" unicode="T" horiz-adv-x="1803" 
d="M1705 1790l-0.00488281 -484.003h-47c-25.333 100.667 -60 181.667 -104 243s-88 99.666 -132 114.999s-102.333 23 -175 23h-133v-1381c0 -71.333 2.33301 -121.166 7 -149.499s23.167 -53.333 55.5 -75s76.5 -32.5 132.5 -32.5h60v-49h-937v49h59
c54.667 0 94.834 8.33301 120.501 25s44.334 36.334 56.001 59.001s17.5 80.334 17.5 173.001v1381h-129c-77.333 0 -141.666 -10.667 -192.999 -32s-96.666 -62.666 -135.999 -123.999s-65.666 -136.333 -78.999 -225h-50v484h1607z" />
    <glyph glyph-name="U" unicode="U" horiz-adv-x="1952" 
d="M63 1790l923.998 -0.000976562v-49h-46c-90.667 0 -149.167 -16 -175.5 -48s-39.5 -107 -39.5 -225v-877c0 -114 6.5 -203.5 19.5 -268.5s48.833 -119.667 107.5 -164s138.334 -66.5 239.001 -66.5c92.667 0 171.334 18.5 236.001 55.5s116.667 94.667 156 173
s59 217.5 59 417.5v730c0 94 -15.333 163 -46 207s-100.667 66 -210 66v49h619v-49h-37c-57.333 0 -107.5 -15.167 -150.5 -45.5s-64.5 -106.166 -64.5 -227.499v-680c0 -140 -5.16699 -252.833 -15.5 -338.5s-40.5 -168 -90.5 -247s-123.667 -139.5 -221 -181.5
s-216.333 -63 -357 -63c-449.333 0 -674 211 -674 633v877c0 86 -4 144.5 -12 175.5s-26.833 55 -56.5 72s-84.5 25.5 -164.5 25.5v49z" />
    <glyph glyph-name="V" unicode="V" horiz-adv-x="1952" 
d="M1925 1790l0.00195312 -49c-68.667 -11.333 -124.334 -42.833 -167.001 -94.5s-100.334 -158.167 -173.001 -319.5l-616 -1368h-44l-712 1654c-45.333 76 -109.333 118.667 -192 128v49h858v-49h-29c-126 0 -189 -29 -189 -87c0 -26 27.333 -102.667 82 -230l382 -891
l353 794c62 139.333 93 231.333 93 276c0 92 -78 138 -234 138v49h588z" />
    <glyph glyph-name="W" unicode="W" horiz-adv-x="2703" 
d="M2680 1790l0.000976562 -48.999c-50 -3.33301 -87.667 -20.833 -113 -52.5s-64 -115.834 -116 -252.501l-561 -1477h-51l-444 1154l-488 -1154h-49l-671 1663c-41.333 73.333 -95.666 113 -162.999 119v49h776v-49c-104 -2.66699 -156 -33.334 -156 -92.001
c0 -34.667 21.667 -105.667 65 -213l351 -868l281 678l-74 190c-50.667 130.667 -92.834 214.167 -126.501 250.5s-89.834 54.5 -168.501 54.5v49h867v-49c-126.667 -2 -190 -33.667 -190 -95c0 -22 19.667 -84 59 -186l326 -848l292 767c44.667 117.333 67 198.333 67 243
c0 76.667 -59.333 116.334 -178 119.001v49h465z" />
    <glyph glyph-name="X" unicode="X" horiz-adv-x="1952" 
d="M1142 1049l494 -732.002c70 -103.333 123.167 -172.166 159.5 -206.499s82.5 -54.833 138.5 -61.5v-49h-873v49c110 8 165 38 165 90c0 28.667 -33.667 92 -101 190l-262 386l-273 -334c-82 -100 -123 -168.333 -123 -205c0 -84.667 79.667 -127 239 -127v-49h-688v49
c68.667 10 128.834 29.833 180.501 59.5s135.5 115.5 251.5 257.5l355 433l-455 669l-123.5 176.5c-38.333 53.667 -94.833 85.834 -169.5 96.501v49h888v-49h-45c-96 0 -144 -30 -144 -90c0 -14.667 29 -66 87 -154l242 -367l189 231c96.667 118 145 201 145 249
c0 87.333 -66 131 -198 131v49h659v-49c-72 -1.33301 -130.333 -16.833 -175 -46.5s-119.334 -108.167 -224.001 -235.5z" />
    <glyph glyph-name="Y" unicode="Y" horiz-adv-x="1952" 
d="M1922 1790v-48.998c-47.333 -5.33301 -88.833 -19 -124.5 -41s-109.167 -126.333 -220.5 -313l-388 -648v-433c0 -70.667 2.33301 -120.334 7 -149.001s22.334 -53.834 53.001 -75.501s72.667 -32.5 126 -32.5h101v-49h-1005v49h94c56 0 96.667 8.5 122 25.5
s43.666 36.667 54.999 59s17 79.833 17 172.5v359l-421 767c-72 130.667 -126 214.5 -162 251.5s-86.667 56.167 -152 57.5v49h858v-49h-38c-93.333 0 -140 -23.333 -140 -70c0 -31.333 35 -111 105 -239l324 -592l322 539c80 134 120 221.667 120 263
c0 58.667 -66.667 91.667 -200 99v49h547z" />
    <glyph glyph-name="Z" unicode="Z" horiz-adv-x="1803" 
d="M1650 1790l-1052 -1690h341c138.667 0 253.834 10.667 345.501 32s177.167 75.833 256.5 163.5s133.666 204.834 162.999 351.501h52l-73 -647h-1639l1053 1692h-265c-117.333 0 -210.166 -9 -278.499 -27s-131.5 -59.833 -189.5 -125.5s-100.667 -156.834 -128 -273.501
h-49l49 524h1414z" />
    <glyph glyph-name="bracketleft" unicode="[" horiz-adv-x="900" 
d="M281 -417l0.000976562 2284h531v-55h-59c-74 0 -122 -14.333 -144 -43s-33 -94 -33 -196v-1705c0 -43.333 0.5 -83.333 1.5 -120s16.167 -65.334 45.5 -86.001s72.666 -31 129.999 -31h59v-48h-531z" />
    <glyph glyph-name="backslash" unicode="\" horiz-adv-x="751" 
d="M3 1831h166l590 -1872h-170z" />
    <glyph glyph-name="bracketright" unicode="]" horiz-adv-x="900" 
d="M620 1867v-2284h-531v50h60c74.667 0 122.834 14.167 144.501 42.5s32.5 93.5 32.5 195.5v1706c0 35.333 -0.5 73.166 -1.5 113.499s-16.333 71 -46 92s-72.834 31.5 -129.501 31.5h-60v53h531z" />
    <glyph glyph-name="asciicircum" unicode="^" horiz-adv-x="1571" 
d="M194 879l543 948h108l533 -948h-210l-389 676l-383 -676h-202z" />
    <glyph glyph-name="underscore" unicode="_" 
d="M-25 -411h1402v-172h-1402v172z" />
    <glyph glyph-name="grave" unicode="`" horiz-adv-x="900" 
d="M50 1851h397l154 -458h-113z" />
    <glyph glyph-name="a" unicode="a" 
d="M772 182c-150.667 -132.667 -285.667 -198.998 -405 -198.998c-62 0 -118.5 20.5 -169.5 61.5s-76.5 101.5 -76.5 181.5c0 95.333 43.667 181.666 131 258.999s260.666 175.666 519.999 294.999v124c0 178 -55.667 267 -167 267c-117.333 0 -176 -31.333 -176 -94
c0 -14.667 14.333 -40.334 43 -77.001c29.333 -36 44 -69.667 44 -101c0 -104 -58 -156 -174 -156c-54 0 -100 15.833 -138 47.5s-57 71.834 -57 120.501c0 114 58.333 202.5 175 265.5s246.667 94.5 390 94.5c106.667 0 193.834 -18.667 261.501 -56
s112.5 -84.833 134.5 -142.5s33 -155.167 33 -292.5v-479c0 -99.333 18.667 -149 56 -149c23.333 0 46.666 16.333 69.999 49l40 -32c-84 -124 -183 -186 -297 -186c-141.333 0 -220.666 66.333 -237.999 199zM772 279.002v413c-192.667 -114 -289 -229 -289 -345
c0 -34.667 11.833 -67 35.5 -97s57.167 -45 100.5 -45c44 0 95 24.667 153 74z" />
    <glyph glyph-name="b" unicode="b" horiz-adv-x="1504" 
d="M569 1790l-0.000976562 -680.001c104 107.333 217.667 161 341 161c146.667 0 262.834 -58 348.501 -174s128.5 -259 128.5 -429c0 -222 -58.5 -395 -175.5 -519s-259.5 -186 -427.5 -186c-126 0 -236.333 45 -331 135l-205 -134h-45v1570
c0 80.667 -8.33301 134.834 -25 162.501s-57 42.5 -121 44.5v49h512zM568.999 992.999v-549.001c0 -100.667 2.83301 -174.5 8.5 -221.5s24.667 -86.667 57 -119s76.833 -48.5 133.5 -48.5c81.333 0 139.833 44.333 175.5 133s53.5 244.334 53.5 467.001
c0 310.667 -70 466 -210 466c-76 0 -148.667 -42.667 -218 -128z" />
    <glyph glyph-name="c" unicode="c" horiz-adv-x="1200" 
d="M1098 318l40.998 -32c-114.667 -215.333 -279.334 -323 -494.001 -323c-162.667 0 -293.667 60.667 -393 182s-149 272 -149 452c0 168.667 49.333 323.167 148 463.5s243.334 210.5 434.001 210.5c100.667 0 195.334 -27 284.001 -81s133 -130.667 133 -230
c0 -110 -55 -165 -165 -165c-113.333 0 -177 78.333 -191 235c-9.33301 99.333 -46 149 -110 149c-118 0 -177 -126.333 -177 -379c0 -174 33 -322 99 -444s159.333 -183 280 -183c82.667 0 169.334 48.333 260.001 145z" />
    <glyph glyph-name="d" unicode="d" horiz-adv-x="1504" 
d="M1291 1790v-1420c0 -108 8 -177.333 24 -208s58.667 -48.667 128 -54v-43l-522 -102v195c-107.333 -130 -218 -195 -332 -195c-157.333 0 -277.5 63.167 -360.5 189.5s-124.5 273.833 -124.5 442.5c0 192.667 45.833 353.5 137.5 482.5s217.167 193.5 376.5 193.5
c108.667 0 209.667 -51.333 303 -154v372c0 103.333 -9.33301 170.166 -28 200.499s-68.667 45.5 -150 45.5v55h548zM921 953.001c-64.667 125.333 -144.333 188 -239 188c-127.333 0 -191 -162 -191 -486c0 -356 70.333 -534 211 -534c77.333 0 150.333 61 219 183v649z
" />
    <glyph glyph-name="e" unicode="e" horiz-adv-x="1200" 
d="M1137 661h-677.997c7.33301 -146.667 43.5 -266.167 108.5 -358.5s145.5 -138.5 241.5 -138.5c101.333 0 195.666 67.667 282.999 203l45 -29c-122.667 -250 -290.334 -375 -503.001 -375c-176 0 -308.333 61.5 -397 184.5s-133 272.833 -133 449.5
c0 186.667 51.5 345.667 154.5 477s237.833 197 404.5 197c147.333 0 261.666 -58.667 342.999 -176s125 -262 131 -434zM812.003 750c0 290 -56.333 435 -169 435c-57.333 0 -103.333 -37.167 -138 -111.5s-52 -166.833 -52 -277.5v-46h359z" />
    <glyph glyph-name="f" unicode="f" horiz-adv-x="900" 
d="M632 1105l0.00195312 -856.999c0 -100.667 15.167 -159.167 45.5 -175.5s75.833 -24.5 136.5 -24.5v-48h-727v48c73.333 1.33301 121.666 14.166 144.999 38.499s35 78.166 35 161.499v857h-180v129h180c0 102.667 -0.666992 154 -2 154
c0 128.667 47.167 234.667 141.5 318s219.166 125 374.499 125c83.333 0 157.5 -16.167 222.5 -48.5s97.5 -81.166 97.5 -146.499c0 -98 -59.333 -147 -178 -147c-99.333 0 -149 38.333 -149 115c0 8 1.66699 22.667 5 44s5 37.333 5 48c0 40 -21.667 60 -65 60
c-59.333 0 -89 -44.667 -89 -134v-388h184v-129h-182z" />
    <glyph glyph-name="g" unicode="g" 
d="M883 1220l415.999 -0.00195312v-145h-236c80.667 -82 121 -171 121 -267c0 -87.333 -22.5 -162.666 -67.5 -225.999s-111.333 -114.166 -199 -152.499s-163.167 -57.5 -226.5 -57.5l-167 7c-36 0 -67.5 -12.833 -94.5 -38.5s-40.5 -56.834 -40.5 -93.501
c0 -72 51.667 -108 155 -108h228c156.667 0 268.334 -12.333 335.001 -37s116 -61.667 148 -111s48 -106.333 48 -171c0 -134.667 -57.667 -235.5 -173 -302.5s-271.666 -100.5 -468.999 -100.5c-372.667 0 -559 80.667 -559 242c0 88.667 71.667 152.334 215 191.001
c-114.667 56 -172 134 -172 234c0 136.667 97.333 245.667 292 327c-223.333 81.333 -335 219.333 -335 414c0 139.333 54 248.5 162 327.5s230 118.5 366 118.5c81.333 0 165.666 -17 252.999 -51zM654.999 1189c-121.333 0 -182 -132.333 -182 -397
c0 -228.667 58.333 -343 175 -343c123.333 0 185 118.333 185 355c0 256.667 -59.333 385 -178 385zM576.999 -182.002c-169.333 0 -254 -44.333 -254 -133c0 -118 123.667 -177 371 -177c262.667 0 394 62 394 186c0 49.333 -29.833 82.333 -89.5 99s-200.167 25 -421.5 25
z" />
    <glyph glyph-name="h" unicode="h" horiz-adv-x="1504" 
d="M595 1790l-0.000976562 -713.998c124 130 244.667 195 362 195c94 0 173.333 -28 238 -84s97 -201.667 97 -437v-482c0 -82 7.16699 -137.5 21.5 -166.5s51.833 -46.833 112.5 -53.5v-48h-626v48c40 5.33301 70.5 19.666 91.5 42.999s31.5 82.333 31.5 177v550
c0 183.333 -38.667 275 -116 275c-71.333 0 -142 -54.667 -212 -164v-661c0 -79.333 6.33301 -134 19 -164s47.334 -48.667 104.001 -56v-48h-626v48c46 4 79.833 17 101.5 39s32.5 82.333 32.5 181v1254c0 81.333 -7 136.166 -21 164.499s-51.667 46.5 -113 54.5v49h503z
" />
    <glyph glyph-name="i" unicode="i" horiz-adv-x="751" 
d="M388 1832c50 0 96.667 -17.668 140 -53.001s65 -85.666 65 -150.999s-21.667 -115.666 -65 -150.999s-90 -53 -140 -53c-57.333 0 -105.5 19.667 -144.5 59s-58.5 87.666 -58.5 144.999c0 50 17.5 96.5 52.5 139.5s85.167 64.5 150.5 64.5zM573 1234v-977.999
c0 -75.333 8.16699 -128 24.5 -158s57.833 -46.667 124.5 -50v-48h-667v48c48.667 1.33301 85.5 13.166 110.5 35.499s37.5 79.833 37.5 172.5v721c0 75.333 -8 127.833 -24 157.5s-57.333 46.5 -124 50.5v49h518z" />
    <glyph glyph-name="j" unicode="j" horiz-adv-x="900" 
d="M470 1831c56.667 0 104.5 -19.333 143.5 -58s58.5 -86.334 58.5 -143.001s-19.5 -104.667 -58.5 -144s-86.833 -59 -143.5 -59s-104.5 19.667 -143.5 59s-58.5 87.333 -58.5 144s19.5 104.334 58.5 143.001s86.833 58 143.5 58zM655 1234l-0.000976562 -1278
c0 -110 -8.66699 -202.667 -26 -278s-58.666 -137.666 -123.999 -186.999s-153 -74 -263 -74c-211.333 0 -317 75 -317 225c0 34 11.833 66.5 35.5 97.5s56.5 46.5 98.5 46.5c71.333 0 107 -52.333 107 -157c0 -85.333 24.333 -128 73 -128c49.333 0 74 34 74 102
c0 13.333 -2.66699 49 -8 107c-12 126.667 -18 205.334 -18 236.001l1 1085c0 55.333 -10.167 93.5 -30.5 114.5s-59.5 34.167 -117.5 39.5v49h515z" />
    <glyph glyph-name="k" unicode="k" horiz-adv-x="1504" 
d="M593 1790l-0.000976562 -1178l286 282c88 86.667 132 152.667 132 198c0 50.667 -47.333 81.667 -142 93v49h553v-49c-53.333 -2.66699 -102.166 -17.667 -146.499 -45s-119.166 -92.333 -224.499 -195l-135 -132l291 -425
c101.333 -147.333 167.166 -239.833 197.499 -277.5s71.833 -58.5 124.5 -62.5v-48h-638v48c54 0 81 16.667 81 50c0 20 -18.667 57.333 -56 112l-244 358l-79 -78v-222c0 -82.667 7 -138.334 21 -167.001s51.667 -46.334 113 -53.001v-48h-637v48
c46 4 79.667 16.833 101 38.5s32 82.167 32 181.5v1254c0 80.667 -7 135.334 -21 164.001s-51.333 47 -112 55v49h503z" />
    <glyph glyph-name="l" unicode="l" horiz-adv-x="751" 
d="M574 1790v-1534c0 -75.333 8.16699 -128 24.5 -158s57.833 -46.667 124.5 -50v-48h-666v48c47.333 1.33301 83.833 13.333 109.5 36s38.5 80 38.5 172v1278c0 90.667 -12 147.167 -36 169.5s-61.333 34.833 -112 37.5v49h517z" />
    <glyph glyph-name="m" unicode="m" horiz-adv-x="2252" 
d="M603 1234l-0.00195312 -161.999c122 132.667 248 199 378 199c158 0 265.667 -74.667 323 -224c133.333 149.333 268.333 224 405 224c122.667 0 210 -37.5 262 -112.5s78 -202.833 78 -383.5v-506c0 -84 6.83301 -139.833 20.5 -167.5s51.167 -45.5 112.5 -53.5v-48
h-638v48c56.667 4.66699 93.334 23 110.001 55s25 87.333 25 166v531c0 198.667 -40.333 298 -121 298c-76 0 -153.667 -55.333 -233 -166v-663c0 -80 7.66699 -135.833 23 -167.5s54 -49.5 116 -53.5v-48h-639v48c51.333 2.66699 86 18.167 104 46.5s27 86.5 27 174.5v531
c0 200 -41.333 300 -124 300c-73.333 0 -149.666 -56 -228.999 -168v-663c0 -80 7.66699 -135.5 23 -166.5s52.333 -49.167 111 -54.5v-48h-637v48c46 4 79.833 17 101.5 39s32.5 82.667 32.5 182v697c0 81.333 -6.83301 136.166 -20.5 164.499s-51.5 46.5 -113.5 54.5v49
h503z" />
    <glyph glyph-name="n" unicode="n" horiz-adv-x="1504" 
d="M595 1234l0.00195312 -158.999c121.333 130.667 244.666 196 369.999 196c82 0 148.667 -20 200 -60s85.166 -92.5 101.499 -157.5s24.5 -166.167 24.5 -303.5v-481c0 -84 7 -140.333 21 -169s51.333 -46 112 -52v-48h-624v48c52 6.66699 85.167 25.5 99.5 56.5
s21.5 85.833 21.5 164.5v549c0 183.333 -38 275 -114 275s-146.667 -54 -212 -162v-662c0 -80.667 6.83301 -136 20.5 -166s47.5 -48.333 101.5 -55v-48h-625v48c46 4 79.833 17 101.5 39s32.5 82.667 32.5 182v697c0 81.333 -6.83301 136.166 -20.5 164.499
s-51.5 46.5 -113.5 54.5v49h503z" />
    <glyph glyph-name="o" unicode="o" 
d="M673 1271c184.667 0 327.833 -63.001 429.5 -189.001s152.5 -281.333 152.5 -466c0 -192 -52.333 -348.833 -157 -470.5s-245 -182.5 -421 -182.5c-192 0 -336.5 65.5 -433.5 196.5s-145.5 281.5 -145.5 451.5c0 188.667 52.667 345.834 158 471.501
s244.333 188.5 417 188.5zM677.999 1177c-70.667 0 -120.668 -40 -150.001 -120s-44 -262.333 -44 -547c0 -156 13.333 -271 40 -345s76.334 -111 149.001 -111c80 0 132.333 39.5 157 118.5s37 261.167 37 546.5c0 305.333 -63 458 -189 458z" />
    <glyph glyph-name="p" unicode="p" horiz-adv-x="1504" 
d="M569 125l-0.000976562 -459.001c0 -80 11.833 -132.5 35.5 -157.5s73.834 -37.5 150.501 -37.5v-49h-704v49c48.667 1.33301 85.5 12.833 110.5 34.5s37.5 77.834 37.5 168.501v1303c0 75.333 -8 127.833 -24 157.5s-57.333 46.5 -124 50.5v49h518v-162
c90 132.667 204 199 342 199c154 0 271.667 -64.167 353 -192.5s122 -280.166 122 -455.499c0 -216.667 -47.167 -380.834 -141.5 -492.501s-209.833 -167.5 -346.5 -167.5c-129.333 0 -239 54 -329 162zM568.999 258.999c75.333 -107.333 156.333 -161 243 -161
c124 0 186 165.667 186 497c0 343.333 -70 515 -210 515c-88.667 0 -161.667 -64.333 -219 -193v-658z" />
    <glyph glyph-name="q" unicode="q" horiz-adv-x="1504" 
d="M920 129c-106.667 -110.667 -220.998 -166.001 -342.998 -166.001c-148 0 -264 59.833 -348 179.5s-126 260.5 -126 422.5c0 221.333 60.833 394.333 182.5 519s262.5 187 422.5 187c141.333 0 251.333 -48 330 -144l207 144h45v-1598
c0 -77.333 8.16699 -130.166 24.5 -158.499s61.166 -42.833 134.499 -43.5v-49h-712v49c73.333 0 122.166 12.333 146.499 37s36.5 76 36.5 154v467zM920.002 248.999v509c0 148 -13.167 255.833 -39.5 323.5s-76.166 101.5 -149.499 101.5c-162 0 -243 -198 -243 -594
c0 -318 69.667 -477 209 -477c77.333 0 151.666 45.667 222.999 137z" />
    <glyph glyph-name="r" unicode="r" horiz-adv-x="1200" 
d="M603 1234l-0.000976562 -280c135.333 211.333 266.666 317 393.999 317c108 0 162 -58 162 -174c0 -124 -49 -186 -147 -186c-43.333 0 -85.666 17 -126.999 51c-40.667 34.667 -69 52 -85 52c-63.333 0 -112 -44.333 -146 -133s-51 -191 -51 -307l1 -358
c0 -59.333 9.83301 -101.333 29.5 -126s63.834 -38.667 132.501 -42v-48h-667v48c56.667 4.66699 93.667 21.5 111 50.5s26 92.833 26 191.5v683c0 80 -7.66699 133.833 -23 161.5s-53.333 44.5 -114 50.5v49h504z" />
    <glyph glyph-name="s" unicode="s" horiz-adv-x="1052" 
d="M871 1269l20 -422h-45c-92.667 216.667 -205.667 325 -339 325c-87.333 0 -131 -40 -131 -120c0 -56 91 -144 273 -264c204.667 -134 307 -273.333 307 -418c0 -128 -40.333 -227.833 -121 -299.5s-175 -107.5 -283 -107.5c-42 0 -97 11.667 -165 35s-110 35 -126 35
c-28.667 0 -52.667 -22 -72 -66h-44l-21 444h45c33.333 -98.667 82.833 -181.5 148.5 -248.5s135.834 -100.5 210.501 -100.5c96 0 144 44.333 144 133c0 39.333 -12.5 74.5 -37.5 105.5s-84.833 79.167 -179.5 144.5c-154.667 106.667 -251.334 191.667 -290.001 255
s-58 129.333 -58 198c0 123.333 39.5 216.333 118.5 279s167.167 94 264.5 94c46.667 0 97.667 -11.333 153 -34s88.333 -34 99 -34c26 0 54 22 84 66h45z" />
    <glyph glyph-name="t" unicode="t" horiz-adv-x="900" 
d="M581 1686l0.000976562 -452h293v-130h-293v-762c0 -138 30.333 -207 91 -207c57.333 0 111.333 43.333 162 130l40 -29c-71.333 -168.667 -187 -253 -347 -253c-78.667 0 -143 16.833 -193 50.5s-83 75.667 -99 126s-24 142.833 -24 277.5v667h-161v46
c211.333 149.333 373.666 328 486.999 536h44z" />
    <glyph glyph-name="u" unicode="u" horiz-adv-x="1504" 
d="M1283 1234v-966c0 -81.333 7.16699 -136.666 21.5 -165.999s51.5 -47.333 111.5 -54v-48h-503v165c-112.667 -134.667 -237.334 -202 -374.001 -202c-75.333 0 -141.166 23.833 -197.499 71.5s-91.333 103.834 -105 168.501s-20.5 156 -20.5 274v489
c0 83.333 -6.83301 138.666 -20.5 165.999s-51.167 45 -112.5 53v49h503v-887c0 -136 38.333 -204 115 -204c65.333 0 136 54.333 212 163v660c0 83.333 -6.83301 138.666 -20.5 165.999s-51.167 45 -112.5 53v49h503z" />
    <glyph glyph-name="v" unicode="v" 
d="M648 -37l-416 956.999c-47.333 108 -83.333 177.167 -108 207.5s-57.667 49.5 -99 57.5v49h656v-49c-77.333 0 -116 -30.333 -116 -91c0 -33.333 19.333 -94.333 58 -183l203 -464l163 400c46.667 114.667 70 195.667 70 243c0 60.667 -45 92.334 -135 95.001v49h404v-49
c-42 -6 -75.667 -23.333 -101 -52s-60.333 -95.667 -105 -201l-412 -969h-62z" />
    <glyph glyph-name="w" unicode="w" horiz-adv-x="1952" 
d="M1315 -37l-337.997 905.998l-332 -906h-68l-329 895c-38.667 104.667 -72.834 182.334 -102.501 233.001s-70.834 82 -123.501 94v49h623v-49c-73.333 0 -110 -20 -110 -60c0 -15.333 14 -60.333 42 -135l181 -482l174 482l-13 32
c-23.333 57.333 -44.5 96.833 -63.5 118.5s-51.5 36.5 -97.5 44.5v49h632v-49c-76 -4 -114 -26.333 -114 -67c0 -13.333 13 -56 39 -128l174 -482l158 444c23.333 65.333 35 108.333 35 129c0 63.333 -41 98 -123 104v49h366v-49
c-44 -5.33301 -77.833 -22.166 -101.5 -50.499s-52.834 -91.833 -87.501 -190.5l-346 -981h-75z" />
    <glyph glyph-name="x" unicode="x" 
d="M821 756l213.999 -406.004c72.667 -137.333 125.334 -221.666 158.001 -252.999s71 -47.666 115 -48.999v-48h-688v48c79.333 6 119 26 119 60c0 24.667 -14 63.334 -42 116.001l-107 201l-91 -133c-54 -78.667 -81 -129.667 -81 -153c0 -60.667 42.333 -91 127 -91v-48
h-483v48c67.333 0 127.833 21.333 181.5 64s120.5 124 200.5 244l101 151l-212 393c-58 108 -104.833 181.5 -140.5 220.5s-79.167 60.5 -130.5 64.5v49h684v-49c-63.333 -15.333 -98.333 -24.5 -105 -27.5s-10 -12.167 -10 -27.5c0 -19.333 14.667 -56.666 44 -111.999
l96 -180l50 72c70.667 102 106 169.667 106 203c0 40.667 -35.333 64.667 -106 72v49h437v-49c-107.333 -3.33301 -210 -80.333 -308 -231z" />
    <glyph glyph-name="y" unicode="y" 
d="M657 -50l-398.001 914.999c-50.667 116.667 -90.5 195.5 -119.5 236.5s-68.167 68.833 -117.5 83.5v49h656v-49c-78 -2.66699 -117 -29 -117 -79c0 -31.333 22 -97.333 66 -198l211 -483l144 374c52 135.333 78 227.666 78 276.999c0 70 -49 106.333 -147 109v49h414v-49
c-29.333 -2.66699 -56.5 -14.167 -81.5 -34.5s-43.167 -41.166 -54.5 -62.499s-41.666 -95.666 -90.999 -222.999l-353 -915c-102 -264 -180.667 -418.833 -236 -464.5s-118.666 -68.5 -189.999 -68.5c-62 0 -118.5 18.5 -169.5 55.5s-76.5 89.5 -76.5 157.5
c0 118 54.333 177 163 177c96 0 145 -57.667 147 -173c1.33301 -52.667 15.666 -79 42.999 -79c55.333 0 119 97.333 191 292z" />
    <glyph glyph-name="z" unicode="z" horiz-adv-x="1200" 
d="M1102 0l-1074 0.000976562v29l678 1125h-198c-74.667 0 -141.334 -10.333 -200.001 -31s-106.667 -103.334 -144 -248.001h-47v359h1039v-35l-673 -1115h85c147.333 0 262.666 20.5 345.999 61.5s146 133.167 188 276.5h37z" />
    <glyph glyph-name="braceleft" unicode="{" horiz-adv-x="1065" 
d="M950 1923l0.000976562 -60.0029c-171.333 -32 -257 -114.667 -257 -248c0 -34 10.333 -108.667 31 -224c21.333 -115.333 32 -190 32 -224c0 -210.667 -143.333 -354 -430 -430c288.667 -82 433 -226 433 -432c0 -32 -11 -104.667 -33 -218
c-21.333 -113.333 -32 -187.666 -32 -222.999c0 -138 85.333 -223.333 256 -256v-62h-46c-151.333 0 -272.333 44 -363 132s-136 183.333 -136 286c0 61.333 13.667 144.333 41 249c20.667 79.333 31 149.333 31 210c0 152.667 -86.333 243.334 -259 272.001v81
c172.667 28.667 259 123.334 259 284.001c0 58 -10 125.333 -30 202c-26.667 102.667 -40 182 -40 238c0 114.667 48.667 212.5 146 293.5s229.666 124.167 396.999 129.5z" />
    <glyph glyph-name="bar" unicode="|" horiz-adv-x="595" 
d="M210 -583v2414h171v-2414h-171z" />
    <glyph glyph-name="braceright" unicode="}" horiz-adv-x="1065" 
d="M122 -454l0.000976562 60.001c172 33.333 258 116 258 248c0 33.333 -10.667 107.666 -32 222.999s-32 190.333 -32 225c0 208 143.667 351.333 431 430c-290 85.333 -435 229.666 -435 432.999c0 32 10.667 104.667 32 218c22 113.333 33 187.333 33 222
c0 136.667 -85 222.334 -255 257.001v61l46 1c110 0 220.667 -36.167 332 -108.5s167 -176.166 167 -311.499c0 -59.333 -13.667 -142 -41 -248c-20 -78 -30 -148 -30 -210c0 -154.667 86.333 -245.334 259 -272.001v-80c-172.667 -28.667 -259 -123.334 -259 -284.001
c0 -59.333 9.66699 -126.666 29 -201.999c26.667 -104 40 -183.667 40 -239c0 -113.333 -49.333 -211.333 -148 -294s-230.334 -125.667 -395.001 -129z" />
    <glyph glyph-name="asciitilde" unicode="~" horiz-adv-x="1466" 
d="M1378 936l75 -0.000976562c-4.66699 -129.333 -38.5 -232.666 -101.5 -309.999s-147.5 -116 -253.5 -116c-79.333 0 -244.333 52.333 -495 157c-128 53.333 -220.667 80 -278 80c-127.333 0 -205 -78.667 -233 -236h-76c14 284 128.333 426 343 426
c93.333 0 262 -52.333 506 -157c130.667 -56 223.667 -84 279 -84c140 0 218 80 234 240z" />
    <glyph glyph-name="delete" horiz-adv-x="2048" 
 />
    <glyph glyph-name="exclamdown" unicode="&#xa1;" horiz-adv-x="900" 
d="M448 1284c60 0 110.667 -20.667 152 -62s62 -92 62 -152c0 -58 -20.667 -108.167 -62 -150.5s-92 -63.5 -152 -63.5c-58.667 0 -109 21 -151 63s-63 92.333 -63 151s21 109 63 151s92.333 63 151 63zM422 666l57.999 -0.00195312c0 -46 5.66699 -101.333 17 -166
c8 -46 22.333 -112 43 -198l68 -288c21.333 -86.667 37 -160 47 -220s15 -110 15 -150c0 -67.333 -20.167 -122.166 -60.5 -164.499s-92.833 -63.5 -157.5 -63.5c-62.667 0 -115 21 -157 63s-63 95.667 -63 161c0 36.667 5 84.334 15 143.001s27 135.667 51 231l68 288
c22.667 96.667 41.334 218 56.001 364z" />
    <glyph glyph-name="cent" unicode="&#xa2;" 
d="M1162 320l42 -29.999c-117.333 -217.333 -286 -326 -506 -326c-77.333 0 -151.333 18.667 -222 56l-202 -518h-90l216 570c-76.667 62.667 -134.5 139.5 -173.5 230.5s-58.5 190.833 -58.5 299.5c0 180.667 52.667 336.667 158 468
c53.333 65.333 113.333 114.333 180 147s141.334 49 224.001 49c17.333 0 31 -0.333008 41 -1c49.333 -3.33301 77 -5 83 -5l198 520h96l-210 -546c78 -28 135.333 -67.333 172 -118c37.333 -47.333 56 -99.333 56 -156c0 -49.333 -14.833 -89.333 -44.5 -120
s-68.834 -46 -117.501 -46c-41.333 0 -78 10.667 -110 32c-28 20.667 -51.333 56.667 -70 108l-210 -552c39.333 -70.667 81.333 -123.334 126 -158.001c24 -16.667 48.833 -29.167 74.5 -37.5s53.5 -12.5 83.5 -12.5c94.667 0 182.667 48.667 264 146zM794 1108
c-28 48 -59.333 72.001 -94 72.001c-40.667 0 -76.667 -22.667 -108 -68c-46.667 -66.667 -70 -162.667 -70 -288c0 -46.667 3.5 -94.834 10.5 -144.501s18.167 -107.5 33.5 -173.5z" />
    <glyph glyph-name="sterling" unicode="&#xa3;" 
d="M704 1034l289.996 0.00195312v-200h-272l2 -102c0 -67.333 -5.16699 -132.5 -15.5 -195.5s-26.5 -127.167 -48.5 -192.5c26.667 -6.66699 51.834 -12.334 75.501 -17.001s45.834 -7 66.501 -7c18.667 -2.66699 41.334 -4.66699 68.001 -6s52.667 -2 78 -2
c93.333 0 165.333 14.667 216 44c34 18 60 51.333 78 100h54c0 -156 -38.5 -277 -115.5 -363s-173.833 -129 -290.5 -129c-52.667 0 -104 10 -154 30c-22.667 10 -49.167 25.167 -79.5 45.5s-63.833 45.833 -100.5 76.5c-38 -50.667 -75.333 -87.334 -112 -110.001
c-48 -28 -100.667 -42 -158 -42c-70.667 0 -128 22 -172 66c-45.333 41.333 -68 92 -68 152c0 63.333 24.5 118.5 73.5 165.5s117.167 70.5 204.5 70.5c10 0 19.833 -0.166992 29.5 -0.5s20.167 -1.5 31.5 -3.5l33 -6c10.667 -2 23.334 -6 38.001 -12
c0 24.667 -1.66699 47.334 -5 68.001s-8.33301 44.667 -15 72l-94 298h-286v200h244c-13.333 93.333 -20 168.666 -20 225.999c0 142.667 40.667 268.667 122 378c98.667 133.333 226.667 200 384 200c113.333 0 208.666 -34.167 285.999 -102.5s116 -142.833 116 -223.5
c0 -54 -15.833 -97.833 -47.5 -131.5s-73.167 -50.5 -124.5 -50.5c-53.333 0 -96.333 16.333 -129 49s-49 77 -49 133l2 66v22.5c0 7 0.666992 14.833 2 23.5c0 44 -9.33301 75.333 -28 94c-19.333 21.333 -45.333 32 -78 32c-31.333 0 -57.333 -13.333 -78 -40
c-21.333 -23.333 -32 -63.333 -32 -120c0 -32.667 2.83301 -72 8.5 -118s13.834 -96.5 24.501 -151.5l30.5 -162c9.66699 -53 14.5 -94.5 14.5 -124.5zM439.996 216.002c-32.667 23.333 -60.668 39.501 -84.001 48.501s-48 13.5 -74 13.5c-40.667 0 -72.667 -10.667 -96 -32
c-22.667 -18.667 -34 -43.334 -34 -74.001c0 -27.333 10.833 -50.833 32.5 -70.5s48.834 -29.5 81.501 -29.5s64.667 10.667 96 32c29.333 22 55.333 59.333 78 112z" />
    <glyph glyph-name="currency" unicode="&#xa4;" 
d="M1028 1356l182.001 178l118 -114l-184 -186c76 -106 114 -220 114 -342c0 -119.333 -38 -236 -114 -350l170 -170l-122 -120l-172 170c-34.667 -21.333 -66.5 -39.333 -95.5 -54s-57.167 -26.667 -84.5 -36c-24 -6.66699 -50.167 -12 -78.5 -16s-57.5 -6 -87.5 -6
c-34 0 -65.167 2 -93.5 6s-55.5 10.333 -81.5 19s-53.667 20.167 -83 34.5s-59.333 31.833 -90 52.5l-176 -170l-116 120l174 170c-77.333 101.333 -116 216 -116 344c0 33.333 2.16699 64.333 6.5 93s11.5 59 21.5 91c17.333 60 46.666 114.667 87.999 164l-180 178
l122 122l176 -178c108.667 78.667 223.334 118 344.001 118c115.333 0 234.666 -39.333 357.999 -118zM674.001 1302c-58 0 -111.169 -9.66699 -159.502 -29s-93.166 -49.666 -134.499 -90.999c-80 -80 -120 -176.667 -120 -290c0 -114.667 40.333 -212.334 121 -293.001
s178.334 -121 293.001 -121c112.667 0 209.5 40 290.5 120s121.5 178 121.5 294c0 111.333 -40 207.5 -120 288.5s-177.333 121.5 -292 121.5z" />
    <glyph glyph-name="yen" unicode="&#xa5;" 
d="M926 814l423.997 -0.00390625v-100h-460l-18 -52v-180h478v-100h-478v-58c0 -80 3.66699 -131 11 -153s15.5 -40.167 24.5 -54.5s20.833 -26.5 35.5 -36.5s34.334 -17.833 59.001 -23.5s52.667 -8.5 84 -8.5h48v-48h-938v48h46c73.333 0 126 9.33301 158 28
c33.333 16 56 38.333 68 67s18 90.334 18 185.001v54h-486v100h486v180l-18 52h-468v100h432l-242 672c-38.667 108 -74 178 -106 210c-18 20 -46 32 -84 36v58h650v-58c-52 0 -86.167 -6.16699 -102.5 -18.5s-25.5 -26.166 -27.5 -41.499c0 -19.333 12.667 -64 38 -134
l264 -724l216 628c34.667 102 52 173.333 52 214c0 26 -8 44 -24 54c-7.33301 6 -20.166 11.167 -38.499 15.5s-40.166 6.5 -65.499 6.5v58h388v-58c-38 -9.33301 -72.667 -30.666 -104 -63.999c-12 -14 -26 -38.167 -42 -72.5s-33.333 -76.166 -52 -125.499z" />
    <glyph glyph-name="brokenbar" unicode="&#xa6;" horiz-adv-x="596" 
d="M210 868v964h172v-964h-172zM210 -584v966h172v-966h-172z" />
    <glyph glyph-name="section" unicode="&#xa7;" 
d="M404 1066c-36 30.667 -66.4961 60.6689 -91.4961 90.002s-45.833 58.666 -62.5 87.999c-30.667 57.333 -46 117.333 -46 180c0 106.667 44.667 200.667 134 282c92 84 208.667 126 350 126c131.333 0 238.166 -33.667 320.499 -101s123.5 -140.333 123.5 -219
c0 -46 -14.5 -84.5 -43.5 -115.5s-65.167 -46.5 -108.5 -46.5c-42.667 0 -77.667 13.667 -105 41s-41 60.333 -41 99c0 15.333 2 36 6 62c5.33301 23.333 8 45.333 8 66c0 34.667 -13.5 64 -40.5 88s-67.5 36 -121.5 36c-66.667 0 -122.334 -20.333 -167.001 -61
s-67 -85.667 -67 -135c0 -30 4.16699 -57.167 12.5 -81.5s22.166 -48.5 41.499 -72.5c16 -22.667 45 -50.334 87 -83.001s96.333 -70.334 163 -113.001c316 -196 474 -392.667 474 -590c0 -40.667 -5.16699 -78.5 -15.5 -113.5s-26.5 -69.167 -48.5 -102.5
c-42 -66.667 -115.333 -135.334 -220 -206.001c37.333 -35.333 69.666 -70 96.999 -104c25.333 -32 45.666 -62 60.999 -90c28 -54 42 -113.333 42 -178c0 -73.333 -18.833 -140.333 -56.5 -201s-93.834 -108.334 -168.501 -143.001s-161 -52 -259 -52
c-138.667 0 -245.667 32.167 -321 96.5s-113 138.166 -113 221.499c0 46.667 14.833 85.334 44.5 116.001s66.834 46 111.501 46c40.667 0 75.834 -14.333 105.501 -43s44.5 -59.667 44.5 -93c0 -20.667 -6 -46 -18 -76c-10.667 -34 -16 -60 -16 -78
c0 -23.333 13.667 -45.5 41 -66.5s67.666 -31.5 120.999 -31.5c75.333 0 134.833 18.833 178.5 56.5s65.5 82.834 65.5 135.501c0 57.333 -14 106 -42 146c-39.333 50.667 -123.333 115.334 -252 194.001c-158 98 -284 202 -378 312
c-74.667 90.667 -112 177.334 -112 260.001c0 77.333 21.333 151 64 221s115.334 147.667 218.001 233zM476.004 1008c-84 -72 -126.001 -148.665 -126.001 -229.998c0 -41.333 12.667 -85.333 38 -132c26.667 -42.667 70 -89.334 130 -140.001l362 -268
c23.333 21.333 42.833 41.333 58.5 60s28.834 38 39.501 58c10 21.333 17.5 40.666 22.5 57.999s7.5 35.333 7.5 54c0 40.667 -10.667 79.334 -32 116.001c-30.667 55.333 -78.667 108.666 -144 159.999z" />
    <glyph glyph-name="dieresis" unicode="&#xa8;" horiz-adv-x="900" 
d="M698 1806c48 0 89.333 -17.333 124 -52c17.333 -17.333 30.333 -36 39 -56s13 -42.667 13 -68c0 -46 -17.333 -87.333 -52 -124c-17.333 -17.333 -36 -30.333 -56 -39s-42.667 -13 -68 -13c-46 0 -86.833 17.333 -122.5 52s-53.5 76 -53.5 124
c0 46 17.333 86.833 52 122.5s76 53.5 124 53.5zM204 1806c48 0 89.333 -16.833 124 -50.5s52 -75.5 52 -125.5c0 -48 -17.333 -89.333 -52 -124c-17.333 -17.333 -36 -30.333 -56 -39s-42.667 -13 -68 -13c-46 0 -86.5 17 -121.5 51s-52.5 75.667 -52.5 125
c0 47.333 17 88.5 51 123.5s75 52.5 123 52.5z" />
    <glyph glyph-name="copyright" unicode="&#xa9;" horiz-adv-x="2020" 
d="M1014 1832c158 0 311.667 -40.3291 461 -120.996s266.166 -196.834 350.499 -348.501s126.5 -307.167 126.5 -466.5s-41.167 -313.833 -123.5 -463.5s-198.5 -266.5 -348.5 -350.5c-146.667 -81.333 -302 -122 -466 -122c-162 0 -317.333 40.667 -466 122
c-75.333 41.333 -141.166 90.333 -197.499 147s-105.833 123.667 -148.5 201c-82.667 147.333 -124 302.666 -124 465.999c0 83.333 10.167 163.166 30.5 239.499s52.166 152.5 95.499 228.5c84.667 151.333 201.334 266.666 350.001 345.999
c152.667 81.333 306 122 460 122zM1014 1714c-69.333 0 -137.334 -8.66992 -204.001 -26.0029s-132.667 -44 -198 -80c-130 -70 -232.667 -171.333 -308 -304c-72 -130 -108 -266 -108 -408s36 -278 108 -408c68.667 -127.333 170 -228.666 304 -303.999
c64 -35.333 130 -62.166 198 -80.499s137.333 -27.5 208 -27.5c140.667 0 275.834 35.833 405.501 107.5s230.834 172.334 303.501 302.001s109 266.5 109 410.5c0 141.333 -36.667 277.333 -110 408c-36 65.333 -79.333 123.333 -130 174s-109.334 94 -176.001 130
c-129.333 70.667 -263.333 106 -402 106zM1456 1460l-0.000976562 -348.001h-50c-18 87.333 -56.667 156.666 -116 207.999c-29.333 25.333 -61 44.333 -95 57s-71.667 19 -113 19c-97.333 0 -178.666 -38.667 -243.999 -116s-98 -198.666 -98 -363.999
c0 -177.333 32 -304 96 -380s143.333 -114 238 -114c127.333 0 242.666 60.667 345.999 182v-92c-53.333 -55.333 -115 -97.166 -185 -125.499s-148.333 -42.5 -235 -42.5c-165.333 0 -299.333 50.333 -402 151s-154 229.667 -154 387c0 168 55.167 306.667 165.5 416
s248.5 164 414.5 164c75.333 0 162 -18 260 -54c30 -10.667 50.667 -16 62 -16c14.667 0 27.334 5.33301 38.001 16s18 28 22 52h50z" />
    <glyph glyph-name="ordfeminine" unicode="&#xaa;" horiz-adv-x="810" 
d="M484 1174c-98 -80 -185.331 -120.002 -261.998 -120.002c-48.667 0 -87.834 14.333 -117.501 43s-44.5 63.667 -44.5 105c0 44.667 19.333 87.334 58 128.001c49.333 53.333 171.333 120.666 366 201.999v74c0 54 -3.33301 88.667 -10 104c-5.33301 14.667 -18 28 -38 40
c-16 12 -37.333 18 -64 18c-36.667 0 -66.667 -8.66699 -90 -26c-12.667 -7.33301 -20 -18 -22 -32c0 -9.33301 8.66699 -22.666 26 -39.999c20 -22 30 -43.333 30 -64c0 -28.667 -10 -51.334 -30 -68.001c-20.667 -18.667 -48 -28 -82 -28c-35.333 0 -66 10 -92 30
c-22.667 22.667 -34 47.334 -34 74.001c0 25.333 6.16699 48.5 18.5 69.5s32.166 41.833 59.499 62.5c72.667 54.667 164.667 82 276 82c38 0 71.333 -3.16699 100 -9.5s55.334 -16.5 80.001 -30.5c47.333 -21.333 77.833 -49 91.5 -83s20.5 -91.667 20.5 -173v-288v-35.5
c0 -13 1.33301 -22.5 4 -28.5c2 -8 6 -14 12 -18c4 -4 10.667 -6 20 -6c16 0 31.333 9.33301 46 28l26 -18c-28.667 -37.333 -58.834 -65.333 -90.501 -84s-66.167 -28 -103.5 -28c-24.667 0 -45.5 2.16699 -62.5 6.5s-32.167 11.5 -45.5 21.5
c-22.667 18.667 -38 49.334 -46 92.001zM484.002 1232v245.999c-34.667 -18 -64.667 -36.667 -90 -56s-47.333 -40.666 -66 -63.999c-10 -14 -17.833 -28 -23.5 -42s-8.5 -27.333 -8.5 -40c0 -24.667 8 -46 24 -64c17.333 -17.333 38 -26 62 -26
c27.333 0 61.333 15.333 102 46z" />
    <glyph glyph-name="guillemotleft" unicode="&#xab;" 
d="M1202 10l-554 610l560 604h94l-310 -604l310 -610h-100zM606 10l-558 610l558 604h104l-316 -598l316 -616h-104z" />
    <glyph glyph-name="logicalnot" unicode="&#xac;" horiz-adv-x="1540" 
d="M54 1190h1444v-600h-170v434l-1274 -2v168z" />
    <glyph glyph-name="minus" unicode="&#xad;" horiz-adv-x="900" 
d="M836 484h-770v274h770v-274z" />
    <glyph glyph-name="registered" unicode="&#xae;" horiz-adv-x="2020" 
d="M1014 1832c158 0 311.667 -40.3291 461 -120.996s266.166 -196.834 350.499 -348.501s126.5 -307.167 126.5 -466.5s-41.167 -313.833 -123.5 -463.5s-198.5 -266.5 -348.5 -350.5c-146.667 -81.333 -302 -122 -466 -122c-162 0 -317.333 40.667 -466 122
c-75.333 41.333 -141.166 90.333 -197.499 147s-105.833 123.667 -148.5 201c-82.667 147.333 -124 302.666 -124 465.999c0 83.333 10.167 163.166 30.5 239.499s52.166 152.5 95.499 228.5c84.667 151.333 201.334 266.666 350.001 345.999
c152.667 81.333 306 122 460 122zM1014 1714c-69.333 0 -137.334 -8.66992 -204.001 -26.0029s-132.667 -44 -198 -80c-130 -70 -232.667 -171.333 -308 -304c-72 -130 -108 -266 -108 -408s36 -278 108 -408c68.667 -127.333 170 -228.666 304 -303.999
c64 -35.333 130 -62.166 198 -80.499s137.333 -27.5 208 -27.5c140.667 0 275.834 35.833 405.501 107.5s230.834 172.334 303.501 302.001s109 266.5 109 410.5c0 141.333 -36.667 277.333 -110 408c-36 65.333 -79.333 123.333 -130 174s-109.334 94 -176.001 130
c-129.333 70.667 -263.333 106 -402 106zM513.999 1438l478.001 -0.00195312c81.333 0 149.666 -4.66699 204.999 -14s98.333 -24 129 -44c89.333 -53.333 134 -130 134 -230c0 -62 -20 -118 -60 -168c-36.667 -46.667 -95.334 -82 -176.001 -106l180 -330
c14 -23.333 27.833 -44 41.5 -62s27.167 -32.667 40.5 -44c14.667 -10.667 34 -18.667 58 -24v-46h-320l-270 486h-62v-260c0 -74 10 -122 30 -144c10 -11.333 25.667 -20.166 47 -26.499s48.333 -9.5 81 -9.5v-46h-558v46c52 0 87.333 9.33301 106 28
c22.667 24.667 34 75.334 34 152.001v622c0 70 -8 116 -24 138c-15.333 19.333 -46.666 32 -93.999 38v44zM892 923.999c30 -4 55.334 -6 76.001 -6c29.333 0 56 5.16699 80 15.5s46 26.5 66 48.5c41.333 41.333 62 99.333 62 174c0 74 -19.333 129.333 -58 166
c-34.667 38.667 -93.334 58 -176.001 58h-50v-456z" />
    <glyph glyph-name="macron" unicode="&#xaf;" 
d="M-26 2102h1402v-172h-1402v172z" />
    <glyph glyph-name="degree" unicode="&#xb0;" horiz-adv-x="1082" 
d="M534 1828c76.667 0 152.002 -20.001 226.002 -60.001c71.333 -38 128 -94.667 170 -170c20 -36.667 35.333 -74 46 -112s16 -76.667 16 -116c0 -123.333 -45.333 -231.333 -136 -324c-88 -88 -195.333 -132 -322 -132c-124.667 0 -231.834 44.333 -321.501 133
s-134.5 196.334 -134.5 323.001c0 78 20.5 154 61.5 228s97.667 130.833 170 170.5s147.166 59.5 224.499 59.5zM534.002 1656c-78.667 0 -145.667 -28.167 -201 -84.5s-83 -122.833 -83 -199.5s28.167 -143.167 84.5 -199.5s122.833 -84.5 199.5 -84.5
c76 0 143.333 27.333 202 82c54.667 56.667 82 124 82 202c0 76.667 -27.667 143.167 -83 199.5s-122.333 84.5 -201 84.5z" />
    <glyph glyph-name="plusminus" unicode="&#xb1;" horiz-adv-x="1484" 
d="M22 982h634v634h174v-634h634v-174h-634v-454h634v-174h-1442l-2 172h636v456h-634v174z" />
    <glyph glyph-name="twosuperior" unicode="&#xb2;" horiz-adv-x="810" 
d="M686 876h-653.999v24c98.667 101.333 178 187 238 257c58 67.333 96.667 118.333 116 153c36 66 54 127.333 54 184c0 44 -14.833 81.333 -44.5 112s-67.5 46 -113.5 46c-72.667 0 -132 -36 -178 -108l-56 16c28 87.333 72 153.833 132 199.5s130 68.5 210 68.5
c89.333 0 162.666 -25.667 219.999 -77s86 -106.333 86 -165c0 -53.333 -22.667 -117.333 -68 -192c-24 -37.333 -62.167 -82.5 -114.5 -135.5s-121.5 -115.833 -207.5 -188.5h200c63.333 0 104 4 122 12c7.33301 4 15 11 23 21s15.667 22.333 23 37l12 18h60z" />
    <glyph glyph-name="threesuperior" unicode="&#xb3;" horiz-adv-x="810" 
d="M232 1338l-0.000976562 33.999c79.333 20.667 127.333 39.334 144 56.001c40 32 60 71.333 60 118c0 35.333 -13.333 65.833 -40 91.5s-62.667 38.5 -108 38.5c-64 0 -123.333 -35.333 -178 -106l-54 20c80.667 158.667 199.334 238 356.001 238c80 0 145 -21 195 -63
s75 -89 75 -141c0 -73.333 -42.667 -132.666 -128 -177.999c118.667 -56 178 -135.333 178 -238c0 -92 -40.167 -173.667 -120.5 -245s-191.5 -107 -333.5 -107c-94.667 0 -166 14.667 -214 44c-29.333 20.667 -44 44.667 -44 72c0 10.667 2.16699 20.5 6.5 29.5
s11.5 19.167 21.5 30.5c10 7.33301 21.333 13.166 34 17.499s26 6.5 40 6.5c18.667 0 38 -4 58 -12c4.66699 -1.33301 13.834 -6.5 27.501 -15.5s33.167 -23.167 58.5 -42.5c46.667 -34.667 91.334 -52 134.001 -52c35.333 0 64.666 12.667 87.999 38
c11.333 12 20.166 26 26.499 42s9.5 33.333 9.5 52c0 57.333 -23.5 111.5 -70.5 162.5s-120.833 87.5 -221.5 109.5z" />
    <glyph glyph-name="acute" unicode="&#xb4;" horiz-adv-x="900" 
d="M852 1850l-438 -458h-114l154 458h398z" />
    <glyph glyph-name="mu" unicode="&#xb5;" horiz-adv-x="1558" 
d="M200 1234l368.001 0.00195312v-916c0 -69.333 9.33301 -116 28 -140c20.667 -22.667 48.667 -34 84 -34c80 0 152.667 53.333 218 160v930h366v-824v-70c0 -72.667 8.5 -120.5 25.5 -143.5s38.5 -34.5 64.5 -34.5c20.667 0 38.667 10.667 54 32
c22.667 30 38 82.667 46 158h58c0 -60.667 -8.83301 -114.834 -26.5 -162.501s-43.5 -89.5 -77.5 -125.5c-62.667 -66.667 -142 -100 -238 -100c-33.333 0 -62.833 3.83301 -88.5 11.5s-50.167 20.5 -73.5 38.5c-22 15.333 -41.5 36 -58.5 62s-31.5 57.333 -43.5 94
c-35.333 -38.667 -67.333 -70 -96 -94c-32 -26.667 -63.333 -48 -94 -64c-60 -32 -124.667 -48 -194 -48c-22 0 -39.333 0.833008 -52 2.5s-26 5.5 -40 11.5c-23.333 7.33301 -58 26.666 -104 57.999c0 -52 2 -94 6 -126c3.33301 -16 10 -43.667 20 -83l20 -77
c10 -34 17.833 -65 23.5 -93s8.5 -49.667 8.5 -65c0 -54 -14.5 -96.5 -43.5 -127.5s-67.167 -46.5 -114.5 -46.5c-42.667 0 -77.334 13.333 -104.001 40c-12.667 14.667 -22.167 31.167 -28.5 49.5s-9.5 39.833 -9.5 64.5c0 22 2.33301 46.5 7 73.5s13 63.167 25 108.5
c25.333 100.667 42.333 185.167 51 253.5s13 179.833 13 334.5v892z" />
    <glyph glyph-name="paragraph" unicode="&#xb6;" horiz-adv-x="1460" 
d="M844 1690l0.000976562 -2274h-132v1150c-78 0 -150.333 7.33301 -217 22s-126.334 34.334 -179.001 59.001s-98.167 54.834 -136.5 90.501s-71.5 77.834 -99.5 126.501c-52 98 -78 207.333 -78 328c0 92 10.667 166 32 222c10.667 28.667 24.667 57.167 42 85.5
s38.333 56 63 83s48.834 50.667 72.501 71s48.5 37.833 74.5 52.5c50 28 108 48 174 60c84 16 225.333 24 424 24h580v-58h-58c-50.667 0 -89.834 -8.16699 -117.501 -24.5s-47.167 -38.833 -58.5 -67.5c-10.667 -23.333 -16 -82 -16 -176v-2048h-130v2274h-240z" />
    <glyph glyph-name="periodcentered" unicode="&#xb7;" horiz-adv-x="676" 
d="M340 1116c60 0 111.668 -21.667 155.001 -65s65 -95.666 65 -156.999c0 -59.333 -21.333 -111.333 -64 -156c-44.667 -42.667 -96.667 -64 -156 -64c-60.667 0 -112.834 21.333 -156.501 64s-65.5 94.667 -65.5 156c0 31.333 5.16699 59.666 15.5 84.999s26.5 49 48.5 71
c42 44 94.667 66 158 66z" />
    <glyph glyph-name="periodcentered" unicode="&#x2219;" horiz-adv-x="676" 
d="M340 1116c60 0 111.668 -21.667 155.001 -65s65 -95.666 65 -156.999c0 -59.333 -21.333 -111.333 -64 -156c-44.667 -42.667 -96.667 -64 -156 -64c-60.667 0 -112.834 21.333 -156.501 64s-65.5 94.667 -65.5 156c0 31.333 5.16699 59.666 15.5 84.999s26.5 49 48.5 71
c42 44 94.667 66 158 66z" />
    <glyph glyph-name="cedilla" unicode="&#xb8;" horiz-adv-x="900" 
d="M452 16l88.001 -0.00195312l-62 -96c51.333 -8 91.166 -29.167 119.499 -63.5s42.5 -77.166 42.5 -128.499c0 -23.333 -3.16699 -45.166 -9.5 -65.499s-16.5 -40.5 -30.5 -60.5c-28 -36.667 -62.667 -62.667 -104 -78c-32 -10.667 -73.5 -18.667 -124.5 -24
s-110.833 -8 -179.5 -8v62c85.333 0 144.666 14.667 177.999 44c32 24 48 58 48 102c0 24.667 -10.167 46.167 -30.5 64.5s-50.166 27.5 -89.499 27.5z" />
    <glyph glyph-name="onesuperior" unicode="&#xb9;" horiz-adv-x="810" 
d="M546 1828l-0.000976562 -758c0 -54.667 3.33301 -92 10 -112c4.66699 -11.333 14 -20.833 28 -28.5s40 -11.5 78 -11.5h40v-42h-588v42h44c46 0 77.333 4.66699 94 14c10 6 18 14 24 24c8 18 12 56 12 114v474c0 40.667 -2 66 -6 76c-1.33301 8 -8 16 -20 24
c-3.33301 2 -8.66602 3.83301 -15.999 5.5s-14 2.5 -20 2.5c-12 0 -26.5 -2 -43.5 -6s-37.167 -10.667 -60.5 -20l-24 42l402 160h46z" />
    <glyph glyph-name="ordmasculine" unicode="&#xba;" horiz-adv-x="892" 
d="M448 1828c108 0 197.999 -36.5 269.999 -109.5s108 -167.833 108 -284.5c0 -118.667 -34.667 -213.667 -104 -285s-159.333 -107 -270 -107c-111.333 0 -202.166 36.167 -272.499 108.5s-105.5 166.166 -105.5 281.499c0 116.667 35.333 211.834 106 285.501
s160 110.5 268 110.5zM451.999 1770c-26.667 0 -49.999 -8 -69.999 -24c-17.333 -15.333 -29.5 -37.5 -36.5 -66.5s-12.333 -71.333 -16 -127s-5.5 -118.5 -5.5 -188.5c0 -110 12 -182 36 -216c21.333 -34.667 50.666 -52 87.999 -52c26.667 0 50 8 70 24
c18.667 16.667 32 40 40 70c5.33301 26 9.33301 63 12 111s4 111 4 189c0 122 -10.667 199.167 -32 231.5s-51.333 48.5 -90 48.5z" />
    <glyph glyph-name="guillemotright" unicode="&#xbb;" 
d="M152 1224l552 -608l-558 -606h-96l310 606l-310 608h102zM748 1224l558 -608l-558 -606h-106l316 598l-316 616h106z" />
    <glyph glyph-name="onequarter" unicode="&#xbc;" horiz-adv-x="2028" 
d="M544 1828l-0.00390625 -758.002c0 -59.333 3.33301 -96.666 10 -111.999c4.66699 -11.333 13.334 -20.666 26.001 -27.999c16 -8 42.667 -12 80 -12h40v-42h-590v42h44c47.333 0 79.333 4.66699 96 14c10 6 18 14 24 24c8 18 12 56 12 114v474c0 40.667 -2 66 -6 76
c-0.666992 4.66699 -3 9 -7 13c-1.33301 1.33301 -5.66602 5 -12.999 11c-1.33301 0.666992 -5.66602 2.16699 -12.999 4.5s-15 3.5 -23 3.5c-12.667 0 -27.167 -2 -43.5 -6s-37.166 -10.667 -62.499 -20l-22 42l402 160h46zM1768 1828l-1270 -1906h-174l1266 1906h178z
M1248 291.998l508 600h120v-600h98v-150h-98v-204h-238v204h-390v150zM1358 291.998h280v328z" />
    <glyph glyph-name="onehalf" unicode="&#xbd;" horiz-adv-x="2028" 
d="M544 1828l-0.00390625 -758.002c0 -59.333 3.33301 -96.666 10 -111.999c4.66699 -11.333 13.334 -20.666 26.001 -27.999c16 -8 42.667 -12 80 -12h40v-42h-590v42h44c47.333 0 79.333 4.66699 96 14c10 6 18 14 24 24c8 18 12 56 12 114v474c0 40.667 -2 66 -6 76
c-0.666992 4.66699 -3 9 -7 13c-1.33301 1.33301 -5.66602 5 -12.999 11c-1.33301 0.666992 -5.66602 2.16699 -12.999 4.5s-15 3.5 -23 3.5c-12.667 0 -27.167 -2 -43.5 -6s-37.166 -10.667 -62.499 -20l-22 42l402 160h46zM1738 1828l-1272 -1906h-180l1272 1906h180z
M1900 -62.002l-653.999 -0.000976562v26c199.333 203.333 317.166 338.333 353.499 405s54.5 128.334 54.5 185.001c0 44.667 -14.667 82.167 -44 112.5s-67.333 45.5 -114 45.5c-76 0 -135.333 -36 -178 -108l-54 20c14 43.333 31.667 81.5 53 114.5s47 60.833 77 83.5
c58 44 128 66 210 66c90.667 0 164.334 -24.833 221.001 -74.5s85 -104.834 85 -165.501c0 -53.333 -22.667 -117.333 -68 -192c-23.333 -37.333 -61.833 -83.166 -115.5 -137.499s-122.5 -116.5 -206.5 -186.5h202c62 0 102 4 120 12c16.667 8.66699 32.667 28 48 58
c5.33301 10.667 8.66602 16.667 9.99902 18h60z" />
    <glyph glyph-name="threequarters" unicode="&#xbe;" horiz-adv-x="2028" 
d="M228 1338l0.00292969 34.001c40 10.667 71.667 20.334 95 29.001s40.333 17.667 51 27c40 32 60 71.333 60 118c0 35.333 -13.333 65.333 -40 90c-28.667 26.667 -64.667 40 -108 40c-64 0 -123.333 -35.333 -178 -106l-54 20c80.667 158.667 199.334 238 356.001 238
c80 0 145 -21.5 195 -64.5s75 -89.5 75 -139.5c0 -73.333 -42.667 -132.666 -128 -177.999c117.333 -56 176 -135.333 176 -238c0 -46.667 -9.83301 -90.334 -29.5 -131.001s-49.834 -79 -90.501 -115c-78.667 -70.667 -189.334 -106 -332.001 -106
c-49.333 0 -91.5 3.66699 -126.5 11s-64.167 18.333 -87.5 33c-29.333 20.667 -44 44.667 -44 72c0 21.333 9.33301 41.333 28 60c9.33301 7.33301 20.166 13.166 32.499 17.499s26.166 6.5 41.499 6.5c19.333 0 38 -4 56 -12c11.333 -2 40 -21.333 86 -58
c48.667 -34.667 94 -52 136 -52c34 0 63.167 12.667 87.5 38s36.5 56.666 36.5 93.999c0 57.333 -23.5 111.5 -70.5 162.5s-121.5 87.5 -223.5 109.5zM1768 1828l-1270 -1906h-174l1266 1906h178zM1248 292.001l508 600h120v-600h98v-150h-98v-204h-238v204h-390v150z
M1358 292.001h280v328z" />
    <glyph glyph-name="questiondown" unicode="&#xbf;" 
d="M724 1284c60 0 110.667 -20.667 152 -62c20.667 -21.333 36.167 -44.5 46.5 -69.5s15.5 -52.5 15.5 -82.5c0 -57.333 -21 -107 -63 -149s-92.333 -63 -151 -63c-58 0 -108.667 20.667 -152 62c-41.333 43.333 -62 93.333 -62 150c0 58 20.667 108.667 62 152
c21.333 20.667 44.5 36.167 69.5 46.5s52.5 15.5 82.5 15.5zM710 664l54.002 0.00195312c0 -60 -0.833008 -105 -2.5 -135s-5.5 -57.667 -11.5 -83c-10 -48.667 -38.667 -115.334 -86 -200.001c-22 -42 -41 -80.833 -57 -116.5s-27.667 -65.5 -35 -89.5
c-6 -24 -10.833 -53 -14.5 -87s-5.5 -68.333 -5.5 -103c0 -116.667 22.833 -202.834 68.5 -258.501s99.5 -83.5 161.5 -83.5c49.333 0 89.333 13.333 120 40c23.333 17.333 36 37.333 38 60c0 13.333 -8.83301 36.166 -26.5 68.499s-31.334 63.333 -41.001 93
s-14.5 55.834 -14.5 78.501c0 42.667 14.167 78.667 42.5 108s65.5 44 111.5 44s86.5 -17 121.5 -51s52.5 -80.333 52.5 -139c0 -105.333 -44.833 -197.333 -134.5 -276s-214.834 -118 -375.501 -118c-169.333 0 -299 41 -389 123s-135 180.333 -135 295
c0 84 22.333 161 67 231s133.667 149 267 237c86.667 58 143.667 109.167 171 153.5s45 113.833 53 208.5z" />
    <glyph glyph-name="Agrave" unicode="&#xc0;" horiz-adv-x="1952" 
d="M1125 510l-633 0.00195312l-75 -175c-24.667 -57.333 -37 -105.333 -37 -144c0 -38 12.333 -69.5 37 -94.5s91 -40.833 199 -47.5v-49h-595v49c64.667 10 118.334 38.333 161.001 85s93 135 151 265l640 1428h25l645 -1468c54 -122.667 98.667 -203.834 134 -243.501
s83.666 -61.834 144.999 -66.501v-49h-866v49h36c116.667 0 175 30 175 90c0 24 -15.667 73 -47 147zM1080 607.002l-267 617l-274 -617h541zM471 2391h397l154 -458h-113z" />
    <glyph glyph-name="Aacute" unicode="&#xc1;" horiz-adv-x="1952" 
d="M1125 510l-633 0.00195312l-75 -175c-24.667 -57.333 -37 -105.333 -37 -144c0 -38 12.333 -69.5 37 -94.5s91 -40.833 199 -47.5v-49h-595v49c64.667 10 118.334 38.333 161.001 85s93 135 151 265l640 1428h25l645 -1468c54 -122.667 98.667 -203.834 134 -243.501
s83.666 -61.834 144.999 -66.501v-49h-866v49h36c116.667 0 175 30 175 90c0 24 -15.667 73 -47 147zM1080 607.002l-267 617l-274 -617h541zM1332 2370l-438 -458h-114l154 458h398z" />
    <glyph glyph-name="Acircumflex" unicode="&#xc2;" horiz-adv-x="1952" 
d="M1125 510l-633 0.00195312l-75 -175c-24.667 -57.333 -37 -105.333 -37 -144c0 -38 12.333 -69.5 37 -94.5s91 -40.833 199 -47.5v-49h-595v49c64.667 10 118.334 38.333 161.001 85s93 135 151 265l640 1428h25l645 -1468c54 -122.667 98.667 -203.834 134 -243.501
s83.666 -61.834 144.999 -66.501v-49h-866v49h36c116.667 0 175 30 175 90c0 24 -15.667 73 -47 147zM1080 607.002l-267 617l-274 -617h541zM1118 2404l268 -504h-102l-314 272l-324 -264h-108l280 496h300z" />
    <glyph glyph-name="Atilde" unicode="&#xc3;" horiz-adv-x="1952" 
d="M1125 510l-633 0.00195312l-75 -175c-24.667 -57.333 -37 -105.333 -37 -144c0 -38 12.333 -69.5 37 -94.5s91 -40.833 199 -47.5v-49h-595v49c64.667 10 118.334 38.333 161.001 85s93 135 151 265l640 1428h25l645 -1468c54 -122.667 98.667 -203.834 134 -243.501
s83.666 -61.834 144.999 -66.501v-49h-866v49h36c116.667 0 175 30 175 90c0 24 -15.667 73 -47 147zM1080 607.002l-267 617l-274 -617h541zM1310 2326l69.999 -0.00195312v-44c0 -99.333 -27.333 -177.333 -82 -234c-27.333 -29.333 -57.5 -51.666 -90.5 -66.999
s-68.833 -23 -107.5 -23c-57.333 0 -129.5 21 -216.5 63s-144.167 63 -171.5 63s-49.333 -9.33301 -66 -28c-17.333 -15.333 -30 -46.666 -38 -93.999h-76c0 58.667 6.16699 110 18.5 154s32.166 82 59.499 114c55.333 65.333 124 98 206 98
c9.33301 0 19.333 -0.166992 30 -0.5s22.667 -2.83301 36 -7.5c19.333 -4.66699 62 -22 128 -52c88.667 -41.333 153.334 -62 194.001 -62c17.333 0 36 8 56 24c14.667 14.667 31.334 46.667 50.001 96z" />
    <glyph glyph-name="Adieresis" unicode="&#xc4;" horiz-adv-x="1952" 
d="M1125 510l-633 0.00195312l-75 -175c-24.667 -57.333 -37 -105.333 -37 -144c0 -38 12.333 -69.5 37 -94.5s91 -40.833 199 -47.5v-49h-595v49c64.667 10 118.334 38.333 161.001 85s93 135 151 265l640 1428h25l645 -1468c54 -122.667 98.667 -203.834 134 -243.501
s83.666 -61.834 144.999 -66.501v-49h-866v49h36c116.667 0 175 30 175 90c0 24 -15.667 73 -47 147zM1080 607.002l-267 617l-274 -617h541zM1218 2326c48 0 89.333 -17.333 124 -52c17.333 -17.333 30.333 -36 39 -56s13 -42.667 13 -68c0 -46 -17.333 -87.333 -52 -124
c-17.333 -17.333 -36 -30.333 -56 -39s-42.667 -13 -68 -13c-46 0 -86.833 17.333 -122.5 52s-53.5 76 -53.5 124c0 46 17.333 86.833 52 122.5s76 53.5 124 53.5zM724 2326c48 0 89.333 -16.833 124 -50.5s52 -75.5 52 -125.5c0 -48 -17.333 -89.333 -52 -124
c-17.333 -17.333 -36 -30.333 -56 -39s-42.667 -13 -68 -13c-46 0 -86.5 17 -121.5 51s-52.5 75.667 -52.5 125c0 47.333 17 88.5 51 123.5s75 52.5 123 52.5z" />
    <glyph glyph-name="Aring" unicode="&#xc5;" horiz-adv-x="1952" 
d="M1125 510l-633 0.00195312l-75 -175c-24.667 -57.333 -37 -105.333 -37 -144c0 -38 12.333 -69.5 37 -94.5s91 -40.833 199 -47.5v-49h-595v49c64.667 10 118.334 38.333 161.001 85s93 135 151 265l640 1428h25l645 -1468c54 -122.667 98.667 -203.834 134 -243.501
s83.666 -61.834 144.999 -66.501v-49h-866v49h36c116.667 0 175 30 175 90c0 24 -15.667 73 -47 147zM1080 607.002l-267 617l-274 -617h541zM950 2438c76 0 141.329 -26.8311 195.996 -80.498s82 -118.834 82 -195.501c0 -75.333 -27.333 -141.333 -82 -198
c-26.667 -26 -56.667 -45.833 -90 -59.5s-68.666 -20.5 -105.999 -20.5c-75.333 0 -140.166 27.167 -194.499 81.5s-81.5 119.833 -81.5 196.499c0 76 26.667 140.667 80 194c26.667 26.667 56.334 47 89.001 61s68.334 21 107.001 21zM951.996 2336
c-47.333 0 -89.333 -17.333 -126 -52c-33.333 -35.333 -50 -76 -50 -122c0 -48 17.333 -89.333 52 -124c17.333 -17.333 36 -30.333 56 -39s42.667 -13 68 -13c48.667 0 89.334 17.333 122.001 52c17.333 17.333 30.333 36 39 56s13 42.667 13 68
c0 46.667 -16.833 87.334 -50.5 122c-33.667 34.667 -74.834 52 -123.501 52z" />
    <glyph glyph-name="AE" unicode="&#xc6;" horiz-adv-x="2704" 
d="M2456 1790l-0.00195312 -529.997h-52c-21.333 113.333 -55.333 201.333 -102 264c-44 60 -98.333 102 -163 126s-170.334 36 -317.001 36h-140v-724h48c80.667 0 148.334 28.833 203.001 86.5s93 168.167 115 331.5h48v-936h-48c-6 53.333 -14.833 101.833 -26.5 145.5
s-26.167 83.167 -43.5 118.5c-23.333 46.667 -57.666 85 -102.999 115s-93.666 45 -144.999 45h-48v-546c0 -74.667 2 -122 6 -142c8 -26 23.333 -46.667 46 -62c26.667 -13.333 75.334 -20 146.001 -20h106c84 0 166 20 246 60c76 36.667 136.5 86.167 181.5 148.5
s84.5 148.166 118.5 257.499h50l-82 -564h-1570v48h100c77.333 0 130 10.167 158 30.5s47.333 48.166 58 83.499c1.33301 10.667 2.66602 34.5 3.99902 71.5s2 63.833 2 80.5v456h-580l-252 -404c-40 -62 -62.667 -102 -68 -120c-10.667 -23.333 -16 -46.666 -16 -69.999
c0 -32 15.333 -61.333 46 -88c16.667 -12.667 39.167 -22.5 67.5 -29.5s61.833 -10.5 100.5 -10.5v-48h-580v48c45.333 5.33301 88.666 22.666 129.999 51.999c20.667 15.333 43.834 39.166 69.501 71.499s54.5 74.5 86.5 126.5l724 1152c60 96 90 156 90 180
c0 21.333 -7 41 -21 59s-33 31.667 -57 41c-24 8 -77.333 12 -160 12v48h1624zM1252 868.003v818l-520 -818h520z" />
    <glyph glyph-name="Ccedilla" unicode="&#xc7;" horiz-adv-x="1952" 
d="M1804 1831l0.000976562 -621.002h-51c-36.667 154.667 -106.334 277 -209.001 367s-225 135 -367 135c-174.667 0 -317.5 -69.167 -428.5 -207.5s-166.5 -333.166 -166.5 -584.499c0 -558 195.333 -837 586 -837c215.333 0 417.333 109.667 606 329v-155
c-190.667 -198.667 -422 -298 -694 -298c-320.667 0 -563 91.333 -727 274s-246 392.334 -246 629.001c0 264 95.5 491.5 286.5 682.5s421.833 286.5 692.5 286.5c125.333 0 258.333 -27.333 399 -82c80.667 -31.333 132 -47 154 -47c64 0 102 43 114 129h51zM1009 15.998
l88.001 -0.00195312l-62 -96c51.333 -8 91.166 -29.167 119.499 -63.5s42.5 -77.166 42.5 -128.499c0 -23.333 -3.16699 -45.166 -9.5 -65.499s-16.5 -40.5 -30.5 -60.5c-28 -36.667 -62.667 -62.667 -104 -78c-32 -10.667 -73.5 -18.667 -124.5 -24s-110.833 -8 -179.5 -8
v62c85.333 0 144.666 14.667 177.999 44c32 24 48 58 48 102c0 24.667 -10.167 46.167 -30.5 64.5s-50.166 27.5 -89.499 27.5z" />
    <glyph glyph-name="Egrave" unicode="&#xc8;" horiz-adv-x="1803" 
d="M737 1687l0.000976562 -729h35c201.333 0 316.333 141 345 423h50v-937h-50c-16 155.333 -52.833 263.333 -110.5 324s-147.5 91 -269.5 91v-504c0 -122.667 13.667 -196 41 -220s106 -36 236 -36c325.333 0 531.666 156.667 618.999 470h49l-81 -569h-1547v49h60
c78.667 0 130.334 17.333 155.001 52s37 103 37 205v1178c0 74 -2 125 -6 153s-21.833 52.333 -53.5 73s-75.834 31 -132.501 31h-60v49h1498v-529h-50c-28 146 -71 246.5 -129 301.5s-118.5 89.5 -181.5 103.5s-153.167 21 -270.5 21h-184zM491.001 2371h397l154 -458h-113
z" />
    <glyph glyph-name="Eacute" unicode="&#xc9;" horiz-adv-x="1803" 
d="M737 1687l0.000976562 -729h35c201.333 0 316.333 141 345 423h50v-937h-50c-16 155.333 -52.833 263.333 -110.5 324s-147.5 91 -269.5 91v-504c0 -122.667 13.667 -196 41 -220s106 -36 236 -36c325.333 0 531.666 156.667 618.999 470h49l-81 -569h-1547v49h60
c78.667 0 130.334 17.333 155.001 52s37 103 37 205v1178c0 74 -2 125 -6 153s-21.833 52.333 -53.5 73s-75.834 31 -132.501 31h-60v49h1498v-529h-50c-28 146 -71 246.5 -129 301.5s-118.5 89.5 -181.5 103.5s-153.167 21 -270.5 21h-184zM1293 2370l-438 -458h-114
l154 458h398z" />
    <glyph glyph-name="Ecircumflex" unicode="&#xca;" horiz-adv-x="1803" 
d="M737 1687l0.000976562 -729h35c201.333 0 316.333 141 345 423h50v-937h-50c-16 155.333 -52.833 263.333 -110.5 324s-147.5 91 -269.5 91v-504c0 -122.667 13.667 -196 41 -220s106 -36 236 -36c325.333 0 531.666 156.667 618.999 470h49l-81 -569h-1547v49h60
c78.667 0 130.334 17.333 155.001 52s37 103 37 205v1178c0 74 -2 125 -6 153s-21.833 52.333 -53.5 73s-75.834 31 -132.501 31h-60v49h1498v-529h-50c-28 146 -71 246.5 -129 301.5s-118.5 89.5 -181.5 103.5s-153.167 21 -270.5 21h-184zM1047 2404l268 -504h-102
l-314 272l-324 -264h-108l280 496h300z" />
    <glyph glyph-name="Edieresis" unicode="&#xcb;" horiz-adv-x="1803" 
d="M737 1687l0.000976562 -729h35c201.333 0 316.333 141 345 423h50v-937h-50c-16 155.333 -52.833 263.333 -110.5 324s-147.5 91 -269.5 91v-504c0 -122.667 13.667 -196 41 -220s106 -36 236 -36c325.333 0 531.666 156.667 618.999 470h49l-81 -569h-1547v49h60
c78.667 0 130.334 17.333 155.001 52s37 103 37 205v1178c0 74 -2 125 -6 153s-21.833 52.333 -53.5 73s-75.834 31 -132.501 31h-60v49h1498v-529h-50c-28 146 -71 246.5 -129 301.5s-118.5 89.5 -181.5 103.5s-153.167 21 -270.5 21h-184zM1141 2326
c48 0 89.333 -17.333 124 -52c17.333 -17.333 30.333 -36 39 -56s13 -42.667 13 -68c0 -46 -17.333 -87.333 -52 -124c-17.333 -17.333 -36 -30.333 -56 -39s-42.667 -13 -68 -13c-46 0 -86.833 17.333 -122.5 52s-53.5 76 -53.5 124c0 46 17.333 86.833 52 122.5
s76 53.5 124 53.5zM647.001 2326c48 0 89.333 -16.833 124 -50.5s52 -75.5 52 -125.5c0 -48 -17.333 -89.333 -52 -124c-17.333 -17.333 -36 -30.333 -56 -39s-42.667 -13 -68 -13c-46 0 -86.5 17 -121.5 51s-52.5 75.667 -52.5 125c0 47.333 17 88.5 51 123.5
s75 52.5 123 52.5z" />
    <glyph glyph-name="Igrave" unicode="&#xcc;" horiz-adv-x="1052" 
d="M990 49l-0.00195312 -49.0029h-936v49h60c78.667 0 130.334 17.333 155.001 52s37 103 37 205v1178c0 70.667 -2.5 120.334 -7.5 149.001s-23.167 53.834 -54.5 75.501s-74.666 32.5 -129.999 32.5h-60v49h936v-49h-59c-80 0 -132.333 -17.5 -157 -52.5
s-37 -103.167 -37 -204.5v-1178c0 -71.333 2.33301 -121.166 7 -149.499s23 -53.333 55 -75s76 -32.5 132 -32.5h59zM49.998 2371h397l154 -458h-113z" />
    <glyph glyph-name="Iacute" unicode="&#xcd;" horiz-adv-x="1052" 
d="M990 49l-0.00195312 -49.0029h-936v49h60c78.667 0 130.334 17.333 155.001 52s37 103 37 205v1178c0 70.667 -2.5 120.334 -7.5 149.001s-23.167 53.834 -54.5 75.501s-74.666 32.5 -129.999 32.5h-60v49h936v-49h-59c-80 0 -132.333 -17.5 -157 -52.5
s-37 -103.167 -37 -204.5v-1178c0 -71.333 2.33301 -121.166 7 -149.499s23 -53.333 55 -75s76 -32.5 132 -32.5h59zM934.998 2370l-438 -458h-114l154 458h398z" />
    <glyph glyph-name="Icircumflex" unicode="&#xce;" horiz-adv-x="1052" 
d="M990 49l-0.00195312 -49.0029h-936v49h60c78.667 0 130.334 17.333 155.001 52s37 103 37 205v1178c0 70.667 -2.5 120.334 -7.5 149.001s-23.167 53.834 -54.5 75.501s-74.666 32.5 -129.999 32.5h-60v49h936v-49h-59c-80 0 -132.333 -17.5 -157 -52.5
s-37 -103.167 -37 -204.5v-1178c0 -71.333 2.33301 -121.166 7 -149.499s23 -53.333 55 -75s76 -32.5 132 -32.5h59zM678.998 2404l268 -504h-102l-314 272l-324 -264h-108l280 496h300z" />
    <glyph glyph-name="Idieresis" unicode="&#xcf;" horiz-adv-x="1052" 
d="M990 49l-0.00195312 -49.0029h-936v49h60c78.667 0 130.334 17.333 155.001 52s37 103 37 205v1178c0 70.667 -2.5 120.334 -7.5 149.001s-23.167 53.834 -54.5 75.501s-74.666 32.5 -129.999 32.5h-60v49h936v-49h-59c-80 0 -132.333 -17.5 -157 -52.5
s-37 -103.167 -37 -204.5v-1178c0 -71.333 2.33301 -121.166 7 -149.499s23 -53.333 55 -75s76 -32.5 132 -32.5h59zM752.998 2326c48 0 89.333 -17.333 124 -52c17.333 -17.333 30.333 -36 39 -56s13 -42.667 13 -68c0 -46 -17.333 -87.333 -52 -124
c-17.333 -17.333 -36 -30.333 -56 -39s-42.667 -13 -68 -13c-46 0 -86.833 17.333 -122.5 52s-53.5 76 -53.5 124c0 46 17.333 86.833 52 122.5s76 53.5 124 53.5zM258.998 2326c48 0 89.333 -16.833 124 -50.5s52 -75.5 52 -125.5c0 -48 -17.333 -89.333 -52 -124
c-17.333 -17.333 -36 -30.333 -56 -39s-42.667 -13 -68 -13c-46 0 -86.5 17 -121.5 51s-52.5 75.667 -52.5 125c0 47.333 17 88.5 51 123.5s75 52.5 123 52.5z" />
    <glyph glyph-name="Eth" unicode="&#xd0;" horiz-adv-x="1952" 
d="M46 0l-0.00195312 48.0039h60c50.667 0 89.834 8 117.501 24s48.5 38.667 62.5 68c4 9.33301 7.33301 28.166 10 56.499s4 64.833 4 109.5v590h-254v96h254v492c0 89.333 -5.33301 146.666 -16 171.999c-10.667 22.667 -30.667 42 -60 58
c-29.333 18.667 -68.666 28 -117.999 28h-60v48h802c216 0 388.667 -29.333 518 -88c157.333 -70 277.333 -177.333 360 -322c41.333 -72.667 72.333 -149.334 93 -230.001s31 -167.334 31 -260.001c0 -128 -19.833 -244.5 -59.5 -349.5s-92.5 -192.5 -158.5 -262.5
s-140.5 -125.167 -223.5 -165.5s-185.833 -72.5 -308.5 -96.5c-55.333 -10.667 -139.333 -16 -252 -16h-802zM729.998 1688l-1.99902 -696.001h398v-96h-398l2 -604c0 -39.333 0.666992 -70 2 -92s4 -36.667 8 -44c8 -16 19.333 -28.667 34 -38
c22.667 -13.333 57.334 -20 104.001 -20c145.333 0 258 50 338 150c104 134 156 344.667 156 632c0 116 -8.66699 219.333 -26 310s-44.666 170.667 -81.999 240c-54.667 106.667 -127.334 179.334 -218.001 218.001c-30.667 13.333 -72.834 23.333 -126.501 30
s-116.834 10 -189.501 10z" />
    <glyph glyph-name="Ntilde" unicode="&#xd1;" horiz-adv-x="1952" 
d="M673 1790l882.998 -1110v769c0 122 -21.167 201.167 -63.5 237.5s-107.166 54.5 -194.499 54.5v49h591v-49c-94.667 -8.66699 -157.5 -31.667 -188.5 -69s-46.5 -111.666 -46.5 -222.999v-1490h-45l-1210 1490v-1137c0 -175.333 77.333 -263 232 -263h42v-49h-635v49
c96.667 0.666992 164.834 20.5 204.501 59.5s59.5 106.833 59.5 203.5v1263l-38 47c-62 76.667 -137.333 116.334 -226 119.001v49h635zM1349 2326l69.999 -0.00195312v-44c0 -99.333 -27.333 -177.333 -82 -234c-27.333 -29.333 -57.5 -51.666 -90.5 -66.999
s-68.833 -23 -107.5 -23c-57.333 0 -129.5 21 -216.5 63s-144.167 63 -171.5 63s-49.333 -9.33301 -66 -28c-17.333 -15.333 -30 -46.666 -38 -93.999h-76c0 58.667 6.16699 110 18.5 154s32.166 82 59.499 114c55.333 65.333 124 98 206 98
c9.33301 0 19.333 -0.166992 30 -0.5s22.667 -2.83301 36 -7.5c19.333 -4.66699 62 -22 128 -52c88.667 -41.333 153.334 -62 194.001 -62c17.333 0 36 8 56 24c14.667 14.667 31.334 46.667 50.001 96z" />
    <glyph glyph-name="Ograve" unicode="&#xd2;" horiz-adv-x="2103" 
d="M1044 1815c194 0 359.67 -35.3311 497.003 -105.998s249.166 -176.334 335.499 -317.001s129.5 -304 129.5 -490c0 -260 -84.833 -482.167 -254.5 -666.5s-399.834 -276.5 -690.501 -276.5c-317.333 0 -555.833 96.333 -715.5 289s-239.5 410 -239.5 652
c0 158.667 34.333 305.667 103 441s173.167 248.166 313.5 338.499s314.166 135.5 521.499 135.5zM1060 1731c-318.667 0 -478 -281 -478 -843c0 -553.333 158.333 -830 475 -830c315.333 0 473 273.333 473 820c0 568.667 -156.667 853 -470 853zM577.003 2371h397
l154 -458h-113z" />
    <glyph glyph-name="Oacute" unicode="&#xd3;" horiz-adv-x="2103" 
d="M1044 1815c194 0 359.67 -35.3311 497.003 -105.998s249.166 -176.334 335.499 -317.001s129.5 -304 129.5 -490c0 -260 -84.833 -482.167 -254.5 -666.5s-399.834 -276.5 -690.501 -276.5c-317.333 0 -555.833 96.333 -715.5 289s-239.5 410 -239.5 652
c0 158.667 34.333 305.667 103 441s173.167 248.166 313.5 338.499s314.166 135.5 521.499 135.5zM1060 1731c-318.667 0 -478 -281 -478 -843c0 -553.333 158.333 -830 475 -830c315.333 0 473 273.333 473 820c0 568.667 -156.667 853 -470 853zM1452 2370l-438 -458h-114
l154 458h398z" />
    <glyph glyph-name="Ocircumflex" unicode="&#xd4;" horiz-adv-x="2103" 
d="M1044 1815c194 0 359.67 -35.3311 497.003 -105.998s249.166 -176.334 335.499 -317.001s129.5 -304 129.5 -490c0 -260 -84.833 -482.167 -254.5 -666.5s-399.834 -276.5 -690.501 -276.5c-317.333 0 -555.833 96.333 -715.5 289s-239.5 410 -239.5 652
c0 158.667 34.333 305.667 103 441s173.167 248.166 313.5 338.499s314.166 135.5 521.499 135.5zM1060 1731c-318.667 0 -478 -281 -478 -843c0 -553.333 158.333 -830 475 -830c315.333 0 473 273.333 473 820c0 568.667 -156.667 853 -470 853zM1198 2404l268 -504h-102
l-314 272l-324 -264h-108l280 496h300z" />
    <glyph glyph-name="Otilde" unicode="&#xd5;" horiz-adv-x="2103" 
d="M1044 1815c194 0 359.67 -35.3311 497.003 -105.998s249.166 -176.334 335.499 -317.001s129.5 -304 129.5 -490c0 -260 -84.833 -482.167 -254.5 -666.5s-399.834 -276.5 -690.501 -276.5c-317.333 0 -555.833 96.333 -715.5 289s-239.5 410 -239.5 652
c0 158.667 34.333 305.667 103 441s173.167 248.166 313.5 338.499s314.166 135.5 521.499 135.5zM1060 1731c-318.667 0 -478 -281 -478 -843c0 -553.333 158.333 -830 475 -830c315.333 0 473 273.333 473 820c0 568.667 -156.667 853 -470 853zM1400 2326
l69.999 -0.00195312v-44c0 -99.333 -27.333 -177.333 -82 -234c-27.333 -29.333 -57.5 -51.666 -90.5 -66.999s-68.833 -23 -107.5 -23c-57.333 0 -129.5 21 -216.5 63s-144.167 63 -171.5 63s-49.333 -9.33301 -66 -28c-17.333 -15.333 -30 -46.666 -38 -93.999h-76
c0 58.667 6.16699 110 18.5 154s32.166 82 59.499 114c55.333 65.333 124 98 206 98c9.33301 0 19.333 -0.166992 30 -0.5s22.667 -2.83301 36 -7.5c19.333 -4.66699 62 -22 128 -52c88.667 -41.333 153.334 -62 194.001 -62c17.333 0 36 8 56 24
c14.667 14.667 31.334 46.667 50.001 96z" />
    <glyph glyph-name="Odieresis" unicode="&#xd6;" horiz-adv-x="2103" 
d="M1044 1815c194 0 359.67 -35.3311 497.003 -105.998s249.166 -176.334 335.499 -317.001s129.5 -304 129.5 -490c0 -260 -84.833 -482.167 -254.5 -666.5s-399.834 -276.5 -690.501 -276.5c-317.333 0 -555.833 96.333 -715.5 289s-239.5 410 -239.5 652
c0 158.667 34.333 305.667 103 441s173.167 248.166 313.5 338.499s314.166 135.5 521.499 135.5zM1060 1731c-318.667 0 -478 -281 -478 -843c0 -553.333 158.333 -830 475 -830c315.333 0 473 273.333 473 820c0 568.667 -156.667 853 -470 853zM1288 2326
c48 0 89.333 -17.333 124 -52c17.333 -17.333 30.333 -36 39 -56s13 -42.667 13 -68c0 -46 -17.333 -87.333 -52 -124c-17.333 -17.333 -36 -30.333 -56 -39s-42.667 -13 -68 -13c-46 0 -86.833 17.333 -122.5 52s-53.5 76 -53.5 124c0 46 17.333 86.833 52 122.5
s76 53.5 124 53.5zM794.003 2326c48 0 89.333 -16.833 124 -50.5s52 -75.5 52 -125.5c0 -48 -17.333 -89.333 -52 -124c-17.333 -17.333 -36 -30.333 -56 -39s-42.667 -13 -68 -13c-46 0 -86.5 17 -121.5 51s-52.5 75.667 -52.5 125c0 47.333 17 88.5 51 123.5
s75 52.5 123 52.5z" />
    <glyph glyph-name="multiply" unicode="&#xd7;" horiz-adv-x="1540" 
d="M326 1468l448 -448l450 446l122 -120l-448 -450l448 -448l-122 -124l-450 450l-446 -446l-120 122l444 446l-448 450z" />
    <glyph glyph-name="Oslash" unicode="&#xd8;" horiz-adv-x="2104" 
d="M1928 1810l-204 -236c188 -182 282 -407.333 282 -676c0 -92 -10.333 -178.167 -31 -258.5s-53 -158.166 -97 -233.499c-86 -145.333 -204.333 -256 -355 -332s-303 -114 -457 -114c-95.333 0 -196.833 14.833 -304.5 44.5s-203.5 72.834 -287.5 129.501l-208 -236
l-72 66l206 236c-94 86 -167.333 192 -220 318c-24.667 63.333 -43.167 126.666 -55.5 189.999s-18.5 127.333 -18.5 192c0 167.333 41 324.666 123 471.999s197.333 260.833 346 340.5s311 119.5 487 119.5c226.667 0 422 -64 586 -192l204 234zM1454 1416
c-46 110 -96 186 -150 228c-70 56 -152.667 84 -248 84c-132 0 -238.667 -54.667 -320 -164c-101.333 -135.333 -152 -363.333 -152 -684c0 -142 14.667 -281.333 44 -418zM666 354c49.333 -108 105.332 -185.334 167.999 -232.001c30 -21.333 63.333 -37.666 100 -48.999
s78 -17 124 -17c94.667 0 176 28 244 84c34 27.333 65.5 66 94.5 116s55.5 111.333 79.5 184c17.333 55.333 30.333 117.833 39 187.5s13 149.834 13 240.501c0 89.333 -3.33301 170.666 -10 243.999c-3.33301 40 -12.666 103.333 -27.999 190z" />
    <glyph glyph-name="Ugrave" unicode="&#xd9;" horiz-adv-x="1952" 
d="M63 1790l923.998 -0.000976562v-49h-46c-90.667 0 -149.167 -16 -175.5 -48s-39.5 -107 -39.5 -225v-877c0 -114 6.5 -203.5 19.5 -268.5s48.833 -119.667 107.5 -164s138.334 -66.5 239.001 -66.5c92.667 0 171.334 18.5 236.001 55.5s116.667 94.667 156 173
s59 217.5 59 417.5v730c0 94 -15.333 163 -46 207s-100.667 66 -210 66v49h619v-49h-37c-57.333 0 -107.5 -15.167 -150.5 -45.5s-64.5 -106.166 -64.5 -227.499v-680c0 -140 -5.16699 -252.833 -15.5 -338.5s-40.5 -168 -90.5 -247s-123.667 -139.5 -221 -181.5
s-216.333 -63 -357 -63c-449.333 0 -674 211 -674 633v877c0 86 -4 144.5 -12 175.5s-26.833 55 -56.5 72s-84.5 25.5 -164.5 25.5v49zM570.998 2371h397l154 -458h-113z" />
    <glyph glyph-name="Uacute" unicode="&#xda;" horiz-adv-x="1952" 
d="M63 1790l923.998 -0.000976562v-49h-46c-90.667 0 -149.167 -16 -175.5 -48s-39.5 -107 -39.5 -225v-877c0 -114 6.5 -203.5 19.5 -268.5s48.833 -119.667 107.5 -164s138.334 -66.5 239.001 -66.5c92.667 0 171.334 18.5 236.001 55.5s116.667 94.667 156 173
s59 217.5 59 417.5v730c0 94 -15.333 163 -46 207s-100.667 66 -210 66v49h619v-49h-37c-57.333 0 -107.5 -15.167 -150.5 -45.5s-64.5 -106.166 -64.5 -227.499v-680c0 -140 -5.16699 -252.833 -15.5 -338.5s-40.5 -168 -90.5 -247s-123.667 -139.5 -221 -181.5
s-216.333 -63 -357 -63c-449.333 0 -674 211 -674 633v877c0 86 -4 144.5 -12 175.5s-26.833 55 -56.5 72s-84.5 25.5 -164.5 25.5v49zM1392 2370l-438 -458h-114l154 458h398z" />
    <glyph glyph-name="Ucircumflex" unicode="&#xdb;" horiz-adv-x="1952" 
d="M63 1790l923.998 -0.000976562v-49h-46c-90.667 0 -149.167 -16 -175.5 -48s-39.5 -107 -39.5 -225v-877c0 -114 6.5 -203.5 19.5 -268.5s48.833 -119.667 107.5 -164s138.334 -66.5 239.001 -66.5c92.667 0 171.334 18.5 236.001 55.5s116.667 94.667 156 173
s59 217.5 59 417.5v730c0 94 -15.333 163 -46 207s-100.667 66 -210 66v49h619v-49h-37c-57.333 0 -107.5 -15.167 -150.5 -45.5s-64.5 -106.166 -64.5 -227.499v-680c0 -140 -5.16699 -252.833 -15.5 -338.5s-40.5 -168 -90.5 -247s-123.667 -139.5 -221 -181.5
s-216.333 -63 -357 -63c-449.333 0 -674 211 -674 633v877c0 86 -4 144.5 -12 175.5s-26.833 55 -56.5 72s-84.5 25.5 -164.5 25.5v49zM1168 2404l268 -504h-102l-314 272l-324 -264h-108l280 496h300z" />
    <glyph glyph-name="Udieresis" unicode="&#xdc;" horiz-adv-x="1952" 
d="M63 1790l923.998 -0.000976562v-49h-46c-90.667 0 -149.167 -16 -175.5 -48s-39.5 -107 -39.5 -225v-877c0 -114 6.5 -203.5 19.5 -268.5s48.833 -119.667 107.5 -164s138.334 -66.5 239.001 -66.5c92.667 0 171.334 18.5 236.001 55.5s116.667 94.667 156 173
s59 217.5 59 417.5v730c0 94 -15.333 163 -46 207s-100.667 66 -210 66v49h619v-49h-37c-57.333 0 -107.5 -15.167 -150.5 -45.5s-64.5 -106.166 -64.5 -227.499v-680c0 -140 -5.16699 -252.833 -15.5 -338.5s-40.5 -168 -90.5 -247s-123.667 -139.5 -221 -181.5
s-216.333 -63 -357 -63c-449.333 0 -674 211 -674 633v877c0 86 -4 144.5 -12 175.5s-26.833 55 -56.5 72s-84.5 25.5 -164.5 25.5v49zM1258 2326c48 0 89.333 -17.333 124 -52c17.333 -17.333 30.333 -36 39 -56s13 -42.667 13 -68c0 -46 -17.333 -87.333 -52 -124
c-17.333 -17.333 -36 -30.333 -56 -39s-42.667 -13 -68 -13c-46 0 -86.833 17.333 -122.5 52s-53.5 76 -53.5 124c0 46 17.333 86.833 52 122.5s76 53.5 124 53.5zM763.998 2326c48 0 89.333 -16.833 124 -50.5s52 -75.5 52 -125.5c0 -48 -17.333 -89.333 -52 -124
c-17.333 -17.333 -36 -30.333 -56 -39s-42.667 -13 -68 -13c-46 0 -86.5 17 -121.5 51s-52.5 75.667 -52.5 125c0 47.333 17 88.5 51 123.5s75 52.5 123 52.5z" />
    <glyph glyph-name="Yacute" unicode="&#xdd;" horiz-adv-x="1952" 
d="M1922 1790v-48.998c-47.333 -5.33301 -88.833 -19 -124.5 -41s-109.167 -126.333 -220.5 -313l-388 -648v-433c0 -70.667 2.33301 -120.334 7 -149.001s22.334 -53.834 53.001 -75.501s72.667 -32.5 126 -32.5h101v-49h-1005v49h94c56 0 96.667 8.5 122 25.5
s43.666 36.667 54.999 59s17 79.833 17 172.5v359l-421 767c-72 130.667 -126 214.5 -162 251.5s-86.667 56.167 -152 57.5v49h858v-49h-38c-93.333 0 -140 -23.333 -140 -70c0 -31.333 35 -111 105 -239l324 -592l322 539c80 134 120 221.667 120 263
c0 58.667 -66.667 91.667 -200 99v49h547zM1431 2370l-438 -458h-114l154 458h398z" />
    <glyph glyph-name="Thorn" unicode="&#xde;" horiz-adv-x="1652" 
d="M716 1392l94 -0.000976562c160 0 285.333 -11.333 376 -34c112.667 -28 203.167 -83.167 271.5 -165.5s102.5 -179.166 102.5 -290.499c0 -92.667 -24.667 -179.334 -74 -260.001c-25.333 -40 -55.666 -74.667 -90.999 -104s-77 -54 -125 -74
c-95.333 -38.667 -248.666 -58 -459.999 -58h-94v-82c0 -104.667 3.83301 -167.5 11.5 -188.5s24.5 -39.5 50.5 -55.5c34 -21.333 75.333 -32 124 -32h56v-48h-904v48h64c56 0 100 12 132 36c21.333 16.667 36.666 41.334 45.999 74.001c4 14 6 60.667 6 140v1170
c0 105.333 -4.66699 169.333 -14 192c-8 24 -24 42 -48 54c-32 20 -74 30 -126 30h-60v46h904v-46h-58c-28.667 0 -53.834 -2.66699 -75.501 -8s-40.5 -14 -56.5 -26c-20.667 -14.667 -36 -38.667 -46 -72c-4 -16 -6 -71.333 -6 -166v-80zM716 1288l-0.000976562 -780.001
c62 0 113.833 2.66699 155.5 8s73.834 14 96.501 26c43.333 21.333 78 55.333 104 102c32 64 48 150 48 258c0 92.667 -16 170 -48 232c-29.333 58.667 -70.666 101.334 -123.999 128.001c-36.667 17.333 -103.334 26 -200.001 26h-32z" />
    <glyph glyph-name="germandbls" unicode="&#xdf;" horiz-adv-x="1504" 
d="M572 0l-496 -0.00488281v48c23.333 0 43.5 4.16699 60.5 12.5s30.833 20.166 41.5 35.499c20 26 30 83.333 30 172v1054c0 122 21.5 218.167 64.5 288.5s107.833 124.833 194.5 163.5s183 58 289 58c182 0 316.833 -37.333 404.5 -112s131.5 -168.667 131.5 -282
c0 -106 -30 -188 -90 -246c-44.667 -40.667 -118.667 -70 -222 -88c88 -17.333 158 -46.333 210 -87s94.667 -101.5 128 -182.5s50 -170.5 50 -268.5c0 -118 -18 -222 -54 -312c-18 -44.667 -39.5 -83.167 -64.5 -115.5s-54.833 -61.166 -89.5 -86.499
c-34 -22 -69 -38.5 -105 -49.5s-74.333 -16.5 -115 -16.5c-82.667 0 -147 20.5 -193 61.5s-69 89.167 -69 144.5c0 37.333 11.333 69.333 34 96c24 24 55.333 36 94 36c25.333 0 45.5 -4 60.5 -12s29.5 -22 43.5 -42c6.66699 -8.66699 12 -16.334 16 -23.001
s6.66699 -11.667 8 -15l-10 -120c0 -3.33301 6.66699 -10.666 20 -21.999c4.66699 -3.33301 10.667 -6.83301 18 -10.5s16 -5.5 26 -5.5c16.667 0 32.834 8.83301 48.501 26.5s23.5 38.167 23.5 61.5c0 20 -16 78 -48 174l-16.5 52
c-5.66699 18.667 -8.83398 30.667 -9.50098 36c-4 28 -6 67.333 -6 118v190c0 100 -6 166 -18 198c-10 33.333 -30 60 -60 80c-15.333 10.667 -35.166 19.334 -59.499 26.001s-51.166 10 -80.499 10v80c49.333 0 86 10 110 30c22 16.667 38 46 48 88
c1.33301 16.667 2.66602 45.334 3.99902 86.001s2 69.334 2 86.001c0 122 -10 202 -30 240c-28.667 57.333 -78 86 -148 86c-34.667 0 -64.667 -8.66699 -90 -26c-16.667 -12.667 -30.334 -25.167 -41.001 -37.5s-19 -27.166 -25 -44.499
c-13.333 -35.333 -20 -104.666 -20 -207.999v-1426z" />
    <glyph glyph-name="agrave" unicode="&#xe0;" 
d="M772 182c-150.667 -132.667 -285.667 -198.998 -405 -198.998c-62 0 -118.5 20.5 -169.5 61.5s-76.5 101.5 -76.5 181.5c0 95.333 43.667 181.666 131 258.999s260.666 175.666 519.999 294.999v124c0 178 -55.667 267 -167 267c-117.333 0 -176 -31.333 -176 -94
c0 -14.667 14.333 -40.334 43 -77.001c29.333 -36 44 -69.667 44 -101c0 -104 -58 -156 -174 -156c-54 0 -100 15.833 -138 47.5s-57 71.834 -57 120.501c0 114 58.333 202.5 175 265.5s246.667 94.5 390 94.5c106.667 0 193.834 -18.667 261.501 -56
s112.5 -84.833 134.5 -142.5s33 -155.167 33 -292.5v-479c0 -99.333 18.667 -149 56 -149c23.333 0 46.666 16.333 69.999 49l40 -32c-84 -124 -183 -186 -297 -186c-141.333 0 -220.666 66.333 -237.999 199zM772 279.002v413c-192.667 -114 -289 -229 -289 -345
c0 -34.667 11.833 -67 35.5 -97s57.167 -45 100.5 -45c44 0 95 24.667 153 74zM220 1851h397l154 -458h-113z" />
    <glyph glyph-name="aacute" unicode="&#xe1;" 
d="M772 182c-150.667 -132.667 -285.667 -198.998 -405 -198.998c-62 0 -118.5 20.5 -169.5 61.5s-76.5 101.5 -76.5 181.5c0 95.333 43.667 181.666 131 258.999s260.666 175.666 519.999 294.999v124c0 178 -55.667 267 -167 267c-117.333 0 -176 -31.333 -176 -94
c0 -14.667 14.333 -40.334 43 -77.001c29.333 -36 44 -69.667 44 -101c0 -104 -58 -156 -174 -156c-54 0 -100 15.833 -138 47.5s-57 71.834 -57 120.501c0 114 58.333 202.5 175 265.5s246.667 94.5 390 94.5c106.667 0 193.834 -18.667 261.501 -56
s112.5 -84.833 134.5 -142.5s33 -155.167 33 -292.5v-479c0 -99.333 18.667 -149 56 -149c23.333 0 46.666 16.333 69.999 49l40 -32c-84 -124 -183 -186 -297 -186c-141.333 0 -220.666 66.333 -237.999 199zM772 279.002v413c-192.667 -114 -289 -229 -289 -345
c0 -34.667 11.833 -67 35.5 -97s57.167 -45 100.5 -45c44 0 95 24.667 153 74zM1122 1850l-438 -458h-114l154 458h398z" />
    <glyph glyph-name="acircumflex" unicode="&#xe2;" 
d="M772 182c-150.667 -132.667 -285.667 -198.998 -405 -198.998c-62 0 -118.5 20.5 -169.5 61.5s-76.5 101.5 -76.5 181.5c0 95.333 43.667 181.666 131 258.999s260.666 175.666 519.999 294.999v124c0 178 -55.667 267 -167 267c-117.333 0 -176 -31.333 -176 -94
c0 -14.667 14.333 -40.334 43 -77.001c29.333 -36 44 -69.667 44 -101c0 -104 -58 -156 -174 -156c-54 0 -100 15.833 -138 47.5s-57 71.834 -57 120.501c0 114 58.333 202.5 175 265.5s246.667 94.5 390 94.5c106.667 0 193.834 -18.667 261.501 -56
s112.5 -84.833 134.5 -142.5s33 -155.167 33 -292.5v-479c0 -99.333 18.667 -149 56 -149c23.333 0 46.666 16.333 69.999 49l40 -32c-84 -124 -183 -186 -297 -186c-141.333 0 -220.666 66.333 -237.999 199zM772 279.002v413c-192.667 -114 -289 -229 -289 -345
c0 -34.667 11.833 -67 35.5 -97s57.167 -45 100.5 -45c44 0 95 24.667 153 74zM836 1884l268 -504h-102l-314 272l-324 -264h-108l280 496h300z" />
    <glyph glyph-name="atilde" unicode="&#xe3;" 
d="M772 182c-150.667 -132.667 -285.667 -198.998 -405 -198.998c-62 0 -118.5 20.5 -169.5 61.5s-76.5 101.5 -76.5 181.5c0 95.333 43.667 181.666 131 258.999s260.666 175.666 519.999 294.999v124c0 178 -55.667 267 -167 267c-117.333 0 -176 -31.333 -176 -94
c0 -14.667 14.333 -40.334 43 -77.001c29.333 -36 44 -69.667 44 -101c0 -104 -58 -156 -174 -156c-54 0 -100 15.833 -138 47.5s-57 71.834 -57 120.501c0 114 58.333 202.5 175 265.5s246.667 94.5 390 94.5c106.667 0 193.834 -18.667 261.501 -56
s112.5 -84.833 134.5 -142.5s33 -155.167 33 -292.5v-479c0 -99.333 18.667 -149 56 -149c23.333 0 46.666 16.333 69.999 49l40 -32c-84 -124 -183 -186 -297 -186c-141.333 0 -220.666 66.333 -237.999 199zM772 279.002v413c-192.667 -114 -289 -229 -289 -345
c0 -34.667 11.833 -67 35.5 -97s57.167 -45 100.5 -45c44 0 95 24.667 153 74zM1035 1808l69.999 -0.00195312v-44c0 -99.333 -27.333 -177.333 -82 -234c-27.333 -29.333 -57.5 -51.666 -90.5 -66.999s-68.833 -23 -107.5 -23c-57.333 0 -129.5 21 -216.5 63
s-144.167 63 -171.5 63s-49.333 -9.33301 -66 -28c-17.333 -15.333 -30 -46.666 -38 -93.999h-76c0 58.667 6.16699 110 18.5 154s32.166 82 59.499 114c55.333 65.333 124 98 206 98c9.33301 0 19.333 -0.166992 30 -0.5s22.667 -2.83301 36 -7.5
c19.333 -4.66699 62 -22 128 -52c88.667 -41.333 153.334 -62 194.001 -62c17.333 0 36 8 56 24c14.667 14.667 31.334 46.667 50.001 96z" />
    <glyph glyph-name="adieresis" unicode="&#xe4;" 
d="M772 182c-150.667 -132.667 -285.667 -198.998 -405 -198.998c-62 0 -118.5 20.5 -169.5 61.5s-76.5 101.5 -76.5 181.5c0 95.333 43.667 181.666 131 258.999s260.666 175.666 519.999 294.999v124c0 178 -55.667 267 -167 267c-117.333 0 -176 -31.333 -176 -94
c0 -14.667 14.333 -40.334 43 -77.001c29.333 -36 44 -69.667 44 -101c0 -104 -58 -156 -174 -156c-54 0 -100 15.833 -138 47.5s-57 71.834 -57 120.501c0 114 58.333 202.5 175 265.5s246.667 94.5 390 94.5c106.667 0 193.834 -18.667 261.501 -56
s112.5 -84.833 134.5 -142.5s33 -155.167 33 -292.5v-479c0 -99.333 18.667 -149 56 -149c23.333 0 46.666 16.333 69.999 49l40 -32c-84 -124 -183 -186 -297 -186c-141.333 0 -220.666 66.333 -237.999 199zM772 279.002v413c-192.667 -114 -289 -229 -289 -345
c0 -34.667 11.833 -67 35.5 -97s57.167 -45 100.5 -45c44 0 95 24.667 153 74zM900 1806c48 0 89.333 -17.333 124 -52c17.333 -17.333 30.333 -36 39 -56s13 -42.667 13 -68c0 -46 -17.333 -87.333 -52 -124c-17.333 -17.333 -36 -30.333 -56 -39s-42.667 -13 -68 -13
c-46 0 -86.833 17.333 -122.5 52s-53.5 76 -53.5 124c0 46 17.333 86.833 52 122.5s76 53.5 124 53.5zM406 1806c48 0 89.333 -16.833 124 -50.5s52 -75.5 52 -125.5c0 -48 -17.333 -89.333 -52 -124c-17.333 -17.333 -36 -30.333 -56 -39s-42.667 -13 -68 -13
c-46 0 -86.5 17 -121.5 51s-52.5 75.667 -52.5 125c0 47.333 17 88.5 51 123.5s75 52.5 123 52.5z" />
    <glyph glyph-name="aring" unicode="&#xe5;" 
d="M772 182c-150.667 -132.667 -285.667 -198.998 -405 -198.998c-62 0 -118.5 20.5 -169.5 61.5s-76.5 101.5 -76.5 181.5c0 95.333 43.667 181.666 131 258.999s260.666 175.666 519.999 294.999v124c0 178 -55.667 267 -167 267c-117.333 0 -176 -31.333 -176 -94
c0 -14.667 14.333 -40.334 43 -77.001c29.333 -36 44 -69.667 44 -101c0 -104 -58 -156 -174 -156c-54 0 -100 15.833 -138 47.5s-57 71.834 -57 120.501c0 114 58.333 202.5 175 265.5s246.667 94.5 390 94.5c106.667 0 193.834 -18.667 261.501 -56
s112.5 -84.833 134.5 -142.5s33 -155.167 33 -292.5v-479c0 -99.333 18.667 -149 56 -149c23.333 0 46.666 16.333 69.999 49l40 -32c-84 -124 -183 -186 -297 -186c-141.333 0 -220.666 66.333 -237.999 199zM772 279.002v413c-192.667 -114 -289 -229 -289 -345
c0 -34.667 11.833 -67 35.5 -97s57.167 -45 100.5 -45c44 0 95 24.667 153 74zM670 1898c76 0 141.329 -26.832 195.996 -80.499s82 -118.834 82 -195.501c0 -75.333 -27.333 -141.333 -82 -198c-26.667 -26 -56.667 -45.833 -90 -59.5s-68.666 -20.5 -105.999 -20.5
c-75.333 0 -140.166 27.167 -194.499 81.5s-81.5 119.833 -81.5 196.5c0 76 26.667 140.667 80 194c26.667 26.667 56.334 47 89.001 61s68.334 21 107.001 21zM671.996 1796c-47.333 0 -89.333 -17.334 -126 -52.001c-33.333 -35.333 -50 -76 -50 -122
c0 -48 17.333 -89.333 52 -124c17.333 -17.333 36 -30.333 56 -39s42.667 -13 68 -13c48.667 0 89.334 17.333 122.001 52c17.333 17.333 30.333 36 39 56s13 42.667 13 68c0 46.667 -16.833 87.334 -50.5 122.001s-74.834 52 -123.501 52z" />
    <glyph glyph-name="ae" unicode="&#xe6;" horiz-adv-x="1952" 
d="M1874 658l-712.001 -0.000976562c9.33301 -90.667 24.5 -167.5 45.5 -230.5s49.167 -114.167 84.5 -153.5c68 -76 144 -114 228 -114c123.333 0 227.333 67.333 312 202l42 -30c-77.333 -139.333 -156.666 -236.666 -237.999 -291.999
c-40.667 -25.333 -86.167 -44.333 -136.5 -57s-107.5 -19 -171.5 -19c-48.667 0 -93.167 5 -133.5 15s-79.833 26.333 -118.5 49c-57.333 32.667 -109.333 82 -156 148c-94 -71.333 -183.833 -124.5 -269.5 -159.5s-168.5 -52.5 -248.5 -52.5
c-88.667 0 -157.334 23.333 -206.001 70c-26 24.667 -45.5 50.667 -58.5 78s-19.5 56.666 -19.5 87.999c0 78.667 36 158.5 108 239.5s266 192.5 582 334.5v102c0 88.667 -6 148.667 -18 180s-35.667 57.5 -71 78.5s-77 31.5 -125 31.5c-52 0 -96 -13.333 -132 -40
c-26.667 -20.667 -40 -42 -40 -64c0 -4 2 -10 6 -18c2 -6 14.667 -20.667 38 -44c32 -32 48 -68 48 -108c0 -42 -15.333 -75.333 -46 -100c-40 -36 -86 -54 -138 -54c-48.667 0 -91.167 17.667 -127.5 53s-54.5 76.333 -54.5 123c0 98 56.833 182.167 170.5 252.5
s233.5 105.5 359.5 105.5c89.333 0 169.333 -16.667 240 -50c42.667 -19.333 85.334 -53.333 128.001 -102c51.333 51.333 102 89.5 152 114.5s110.667 37.5 182 37.5c140 0 255.333 -49.333 346 -148c47.333 -51.333 83.833 -115.666 109.5 -192.999
s38.5 -168.333 38.5 -273zM1552 745.999v64.001c0 138 -22 240 -66 306c-30.667 42.667 -70.667 64 -120 64c-30.667 0 -56.667 -8.66699 -78 -26c-36.667 -28.667 -66 -73.334 -88 -134.001c-14 -40 -24.5 -82.333 -31.5 -127s-10.5 -93.667 -10.5 -147h394zM807.999 694
c-66.667 -44.667 -122 -84.335 -166 -119.002s-76 -63.667 -96 -87c-41.333 -47.333 -62 -102 -62 -164c0 -42.667 16 -80 48 -112c34.667 -30.667 74 -46 118 -46c16.667 0 32.167 1.33301 46.5 4s32.833 8 55.5 16c40 14 84 34 132 60
c-27.333 58.667 -46.833 118.834 -58.5 180.501s-17.5 150.834 -17.5 267.501z" />
    <glyph glyph-name="ccedilla" unicode="&#xe7;" horiz-adv-x="1200" 
d="M1098 318l40.998 -32c-114.667 -215.333 -279.334 -323 -494.001 -323c-162.667 0 -293.667 60.667 -393 182s-149 272 -149 452c0 168.667 49.333 323.167 148 463.5s243.334 210.5 434.001 210.5c100.667 0 195.334 -27 284.001 -81s133 -130.667 133 -230
c0 -110 -55 -165 -165 -165c-113.333 0 -177 78.333 -191 235c-9.33301 99.333 -46 149 -110 149c-118 0 -177 -126.333 -177 -379c0 -174 33 -322 99 -444s159.333 -183 280 -183c82.667 0 169.334 48.333 260.001 145zM608.998 16l88.001 -0.00195312l-62 -96
c51.333 -8 91.166 -29.167 119.499 -63.5s42.5 -77.166 42.5 -128.499c0 -23.333 -3.16699 -45.166 -9.5 -65.499s-16.5 -40.5 -30.5 -60.5c-28 -36.667 -62.667 -62.667 -104 -78c-32 -10.667 -73.5 -18.667 -124.5 -24s-110.833 -8 -179.5 -8v62
c85.333 0 144.666 14.667 177.999 44c32 24 48 58 48 102c0 24.667 -10.167 46.167 -30.5 64.5s-50.166 27.5 -89.499 27.5z" />
    <glyph glyph-name="egrave" unicode="&#xe8;" horiz-adv-x="1200" 
d="M1137 661h-677.997c7.33301 -146.667 43.5 -266.167 108.5 -358.5s145.5 -138.5 241.5 -138.5c101.333 0 195.666 67.667 282.999 203l45 -29c-122.667 -250 -290.334 -375 -503.001 -375c-176 0 -308.333 61.5 -397 184.5s-133 272.833 -133 449.5
c0 186.667 51.5 345.667 154.5 477s237.833 197 404.5 197c147.333 0 261.666 -58.667 342.999 -176s125 -262 131 -434zM812.003 750c0 290 -56.333 435 -169 435c-57.333 0 -103.333 -37.167 -138 -111.5s-52 -166.833 -52 -277.5v-46h359zM207.003 1851h397l154 -458
h-113z" />
    <glyph glyph-name="eacute" unicode="&#xe9;" horiz-adv-x="1200" 
d="M1137 661h-677.997c7.33301 -146.667 43.5 -266.167 108.5 -358.5s145.5 -138.5 241.5 -138.5c101.333 0 195.666 67.667 282.999 203l45 -29c-122.667 -250 -290.334 -375 -503.001 -375c-176 0 -308.333 61.5 -397 184.5s-133 272.833 -133 449.5
c0 186.667 51.5 345.667 154.5 477s237.833 197 404.5 197c147.333 0 261.666 -58.667 342.999 -176s125 -262 131 -434zM812.003 750c0 290 -56.333 435 -169 435c-57.333 0 -103.333 -37.167 -138 -111.5s-52 -166.833 -52 -277.5v-46h359zM1049 1850l-438 -458h-114
l154 458h398z" />
    <glyph glyph-name="ecircumflex" unicode="&#xea;" horiz-adv-x="1200" 
d="M1137 661h-677.997c7.33301 -146.667 43.5 -266.167 108.5 -358.5s145.5 -138.5 241.5 -138.5c101.333 0 195.666 67.667 282.999 203l45 -29c-122.667 -250 -290.334 -375 -503.001 -375c-176 0 -308.333 61.5 -397 184.5s-133 272.833 -133 449.5
c0 186.667 51.5 345.667 154.5 477s237.833 197 404.5 197c147.333 0 261.666 -58.667 342.999 -176s125 -262 131 -434zM812.003 750c0 290 -56.333 435 -169 435c-57.333 0 -103.333 -37.167 -138 -111.5s-52 -166.833 -52 -277.5v-46h359zM793.003 1884l268 -504h-102
l-314 272l-324 -264h-108l280 496h300z" />
    <glyph glyph-name="edieresis" unicode="&#xeb;" horiz-adv-x="1200" 
d="M1137 661h-677.997c7.33301 -146.667 43.5 -266.167 108.5 -358.5s145.5 -138.5 241.5 -138.5c101.333 0 195.666 67.667 282.999 203l45 -29c-122.667 -250 -290.334 -375 -503.001 -375c-176 0 -308.333 61.5 -397 184.5s-133 272.833 -133 449.5
c0 186.667 51.5 345.667 154.5 477s237.833 197 404.5 197c147.333 0 261.666 -58.667 342.999 -176s125 -262 131 -434zM812.003 750c0 290 -56.333 435 -169 435c-57.333 0 -103.333 -37.167 -138 -111.5s-52 -166.833 -52 -277.5v-46h359zM871.003 1806
c48 0 89.333 -17.333 124 -52c17.333 -17.333 30.333 -36 39 -56s13 -42.667 13 -68c0 -46 -17.333 -87.333 -52 -124c-17.333 -17.333 -36 -30.333 -56 -39s-42.667 -13 -68 -13c-46 0 -86.833 17.333 -122.5 52s-53.5 76 -53.5 124c0 46 17.333 86.833 52 122.5
s76 53.5 124 53.5zM377.003 1806c48 0 89.333 -16.833 124 -50.5s52 -75.5 52 -125.5c0 -48 -17.333 -89.333 -52 -124c-17.333 -17.333 -36 -30.333 -56 -39s-42.667 -13 -68 -13c-46 0 -86.5 17 -121.5 51s-52.5 75.667 -52.5 125c0 47.333 17 88.5 51 123.5
s75 52.5 123 52.5z" />
    <glyph glyph-name="igrave" unicode="&#xec;" horiz-adv-x="752" 
d="M572 1234l-0.00195312 -978c0 -86.667 10.667 -142.667 32 -168c10.667 -12.667 25.834 -22.5 45.501 -29.5s43.834 -10.5 72.501 -10.5v-48h-666v48c54 0 94 16 120 48c18.667 18.667 28 72 28 160v720c0 88.667 -10.667 144.667 -32 168c-18 22 -56.667 36 -116 42v48
h516zM-33.002 1851h397l154 -458h-113z" />
    <glyph glyph-name="iacute" unicode="&#xed;" horiz-adv-x="752" 
d="M572 1234l-0.00195312 -978c0 -86.667 10.667 -142.667 32 -168c10.667 -12.667 25.834 -22.5 45.501 -29.5s43.834 -10.5 72.501 -10.5v-48h-666v48c54 0 94 16 120 48c18.667 18.667 28 72 28 160v720c0 88.667 -10.667 144.667 -32 168c-18 22 -56.667 36 -116 42v48
h516zM778.998 1850l-438 -458h-114l154 458h398z" />
    <glyph glyph-name="icircumflex" unicode="&#xee;" horiz-adv-x="752" 
d="M572 1234l-0.00195312 -978c0 -86.667 10.667 -142.667 32 -168c10.667 -12.667 25.834 -22.5 45.501 -29.5s43.834 -10.5 72.501 -10.5v-48h-666v48c54 0 94 16 120 48c18.667 18.667 28 72 28 160v720c0 88.667 -10.667 144.667 -32 168c-18 22 -56.667 36 -116 42v48
h516zM521.998 1884l268 -504h-102l-314 272l-324 -264h-108l280 496h300z" />
    <glyph glyph-name="idieresis" unicode="&#xef;" horiz-adv-x="752" 
d="M572 1234l-0.00195312 -978c0 -86.667 10.667 -142.667 32 -168c10.667 -12.667 25.834 -22.5 45.501 -29.5s43.834 -10.5 72.501 -10.5v-48h-666v48c54 0 94 16 120 48c18.667 18.667 28 72 28 160v720c0 88.667 -10.667 144.667 -32 168c-18 22 -56.667 36 -116 42v48
h516zM615.998 1807c48 0 89.333 -17.333 124 -52c17.333 -17.333 30.333 -36 39 -56s13 -42.667 13 -68c0 -46 -17.333 -87.333 -52 -124c-17.333 -17.333 -36 -30.333 -56 -39s-42.667 -13 -68 -13c-46 0 -86.833 17.333 -122.5 52s-53.5 76 -53.5 124
c0 46 17.333 86.833 52 122.5s76 53.5 124 53.5zM121.998 1807c48 0 89.333 -16.833 124 -50.5s52 -75.5 52 -125.5c0 -48 -17.333 -89.333 -52 -124c-17.333 -17.333 -36 -30.333 -56 -39s-42.667 -13 -68 -13c-46 0 -86.5 17 -121.5 51s-52.5 75.667 -52.5 125
c0 47.333 17 88.5 51 123.5s75 52.5 123 52.5z" />
    <glyph glyph-name="eth" unicode="&#xf0;" 
d="M622 1508l-331.996 -186.007l-44 76l318 178c-31.333 32.667 -67.5 66.334 -108.5 101.001s-86.833 70.334 -137.5 107.001l30 48c34 -13.333 66.667 -27 98 -41s56.666 -26.333 75.999 -37c25.333 -13.333 51.333 -28.166 78 -44.499s58 -37.5 94 -63.5l312 176l40 -76
l-276 -154c162 -130 284 -269.333 366 -418c39.333 -73.333 69.166 -150.166 89.499 -230.499s30.5 -164.166 30.5 -251.499c0 -148 -22.833 -277.833 -68.5 -389.5s-113.834 -196 -204.501 -253s-192.334 -85.5 -305.001 -85.5c-56.667 0 -110 6.83301 -160 20.5
s-98 34.834 -144 63.501c-89.333 54.667 -157.666 131.834 -204.999 231.501s-71 209.834 -71 330.501c0 156 36.667 291.333 110 406c90.667 142.667 221.334 214 392.001 214c28.667 0 58.5 -3.16699 89.5 -9.5s65.833 -16.5 104.5 -30.5c-28 74 -54 132 -78 174
c-12.667 26 -29.334 53.667 -50.001 83c-2.66699 3.33301 -17.334 23.666 -44.001 60.999zM678.004 1139.99c-39.333 0 -73.334 -11.332 -102.001 -33.999c-27.333 -19.333 -49.5 -56.166 -66.5 -110.499s-25.5 -158.833 -25.5 -313.5c0 -125.333 2 -226.5 6 -303.5
s10.667 -134.5 20 -172.5c10 -50 30 -88 60 -114c15.333 -12.667 31.5 -22.167 48.5 -28.5s35.5 -9.5 55.5 -9.5c36.667 0 69.834 11.833 99.501 35.5s50.5 63.167 62.5 118.5c8 36 14.333 91.333 19 166s7 168 7 280c0 87.333 -1.66699 158.666 -5 213.999
s-9 96.666 -17 123.999c-13.333 54.667 -34.333 93 -63 115s-61.667 33 -99 33z" />
    <glyph glyph-name="ntilde" unicode="&#xf1;" horiz-adv-x="1504" 
d="M595 1234l0.00195312 -158.999c121.333 130.667 244.666 196 369.999 196c82 0 148.667 -20 200 -60s85.166 -92.5 101.499 -157.5s24.5 -166.167 24.5 -303.5v-481c0 -84 7 -140.333 21 -169s51.333 -46 112 -52v-48h-624v48c52 6.66699 85.167 25.5 99.5 56.5
s21.5 85.833 21.5 164.5v549c0 183.333 -38 275 -114 275s-146.667 -54 -212 -162v-662c0 -80.667 6.83301 -136 20.5 -166s47.5 -48.333 101.5 -55v-48h-625v48c46 4 79.833 17 101.5 39s32.5 82.667 32.5 182v697c0 81.333 -6.83301 136.166 -20.5 164.499
s-51.5 46.5 -113.5 54.5v49h503zM1128 1808l69.999 -0.00195312v-44c0 -99.333 -27.333 -177.333 -82 -234c-27.333 -29.333 -57.5 -51.666 -90.5 -66.999s-68.833 -23 -107.5 -23c-57.333 0 -129.5 21 -216.5 63s-144.167 63 -171.5 63s-49.333 -9.33301 -66 -28
c-17.333 -15.333 -30 -46.666 -38 -93.999h-76c0 58.667 6.16699 110 18.5 154s32.166 82 59.499 114c55.333 65.333 124 98 206 98c9.33301 0 19.333 -0.166992 30 -0.5s22.667 -2.83301 36 -7.5c19.333 -4.66699 62 -22 128 -52c88.667 -41.333 153.334 -62 194.001 -62
c17.333 0 36 8 56 24c14.667 14.667 31.334 46.667 50.001 96z" />
    <glyph glyph-name="ograve" unicode="&#xf2;" 
d="M673 1271c184.667 0 327.833 -63.001 429.5 -189.001s152.5 -281.333 152.5 -466c0 -192 -52.333 -348.833 -157 -470.5s-245 -182.5 -421 -182.5c-192 0 -336.5 65.5 -433.5 196.5s-145.5 281.5 -145.5 451.5c0 188.667 52.667 345.834 158 471.501
s244.333 188.5 417 188.5zM677.999 1177c-70.667 0 -120.668 -40 -150.001 -120s-44 -262.333 -44 -547c0 -156 13.333 -271 40 -345s76.334 -111 149.001 -111c80 0 132.333 39.5 157 118.5s37 261.167 37 546.5c0 305.333 -63 458 -189 458zM218.998 1851h397l154 -458
h-113z" />
    <glyph glyph-name="oacute" unicode="&#xf3;" 
d="M673 1271c184.667 0 327.833 -63.001 429.5 -189.001s152.5 -281.333 152.5 -466c0 -192 -52.333 -348.833 -157 -470.5s-245 -182.5 -421 -182.5c-192 0 -336.5 65.5 -433.5 196.5s-145.5 281.5 -145.5 451.5c0 188.667 52.667 345.834 158 471.501
s244.333 188.5 417 188.5zM677.999 1177c-70.667 0 -120.668 -40 -150.001 -120s-44 -262.333 -44 -547c0 -156 13.333 -271 40 -345s76.334 -111 149.001 -111c80 0 132.333 39.5 157 118.5s37 261.167 37 546.5c0 305.333 -63 458 -189 458zM1122 1850l-438 -458h-114
l154 458h398z" />
    <glyph glyph-name="ocircumflex" unicode="&#xf4;" 
d="M673 1271c184.667 0 327.833 -63.001 429.5 -189.001s152.5 -281.333 152.5 -466c0 -192 -52.333 -348.833 -157 -470.5s-245 -182.5 -421 -182.5c-192 0 -336.5 65.5 -433.5 196.5s-145.5 281.5 -145.5 451.5c0 188.667 52.667 345.834 158 471.501
s244.333 188.5 417 188.5zM677.999 1177c-70.667 0 -120.668 -40 -150.001 -120s-44 -262.333 -44 -547c0 -156 13.333 -271 40 -345s76.334 -111 149.001 -111c80 0 132.333 39.5 157 118.5s37 261.167 37 546.5c0 305.333 -63 458 -189 458zM824.998 1884l268 -504h-102
l-314 272l-324 -264h-108l280 496h300z" />
    <glyph glyph-name="otilde" unicode="&#xf5;" 
d="M673 1271c184.667 0 327.833 -63.001 429.5 -189.001s152.5 -281.333 152.5 -466c0 -192 -52.333 -348.833 -157 -470.5s-245 -182.5 -421 -182.5c-192 0 -336.5 65.5 -433.5 196.5s-145.5 281.5 -145.5 451.5c0 188.667 52.667 345.834 158 471.501
s244.333 188.5 417 188.5zM677.999 1177c-70.667 0 -120.668 -40 -150.001 -120s-44 -262.333 -44 -547c0 -156 13.333 -271 40 -345s76.334 -111 149.001 -111c80 0 132.333 39.5 157 118.5s37 261.167 37 546.5c0 305.333 -63 458 -189 458zM1004 1808l69.999 -0.00195312
v-44c0 -99.333 -27.333 -177.333 -82 -234c-27.333 -29.333 -57.5 -51.666 -90.5 -66.999s-68.833 -23 -107.5 -23c-57.333 0 -129.5 21 -216.5 63s-144.167 63 -171.5 63s-49.333 -9.33301 -66 -28c-17.333 -15.333 -30 -46.666 -38 -93.999h-76
c0 58.667 6.16699 110 18.5 154s32.166 82 59.499 114c55.333 65.333 124 98 206 98c9.33301 0 19.333 -0.166992 30 -0.5s22.667 -2.83301 36 -7.5c19.333 -4.66699 62 -22 128 -52c88.667 -41.333 153.334 -62 194.001 -62c17.333 0 36 8 56 24
c14.667 14.667 31.334 46.667 50.001 96z" />
    <glyph glyph-name="odieresis" unicode="&#xf6;" 
d="M673 1271c184.667 0 327.833 -63.001 429.5 -189.001s152.5 -281.333 152.5 -466c0 -192 -52.333 -348.833 -157 -470.5s-245 -182.5 -421 -182.5c-192 0 -336.5 65.5 -433.5 196.5s-145.5 281.5 -145.5 451.5c0 188.667 52.667 345.834 158 471.501
s244.333 188.5 417 188.5zM677.999 1177c-70.667 0 -120.668 -40 -150.001 -120s-44 -262.333 -44 -547c0 -156 13.333 -271 40 -345s76.334 -111 149.001 -111c80 0 132.333 39.5 157 118.5s37 261.167 37 546.5c0 305.333 -63 458 -189 458zM906.998 1807
c48 0 89.333 -17.333 124 -52c17.333 -17.333 30.333 -36 39 -56s13 -42.667 13 -68c0 -46 -17.333 -87.333 -52 -124c-17.333 -17.333 -36 -30.333 -56 -39s-42.667 -13 -68 -13c-46 0 -86.833 17.333 -122.5 52s-53.5 76 -53.5 124c0 46 17.333 86.833 52 122.5
s76 53.5 124 53.5zM412.998 1807c48 0 89.333 -16.833 124 -50.5s52 -75.5 52 -125.5c0 -48 -17.333 -89.333 -52 -124c-17.333 -17.333 -36 -30.333 -56 -39s-42.667 -13 -68 -13c-46 0 -86.5 17 -121.5 51s-52.5 75.667 -52.5 125c0 47.333 17 88.5 51 123.5
s75 52.5 123 52.5z" />
    <glyph glyph-name="divide" unicode="&#xf7;" horiz-adv-x="1484" 
d="M744 1474c37.333 0 69.333 -12.833 96 -38.5s40 -58.167 40 -97.5c0 -38 -13.333 -69.833 -40 -95.5s-58.667 -38.5 -96 -38.5c-36 0 -67.333 13.333 -94 40s-40 58 -40 94c0 37.333 13.333 69.333 40 96s58 40 94 40zM22 982h1442v-174h-1442v174zM744 600
c36 0 67.667 -13.666 95 -40.999s41 -59 41 -95c0 -36.667 -13 -68.5 -39 -95.5s-58.333 -40.5 -97 -40.5c-38 0 -70.667 12.667 -98 38c-25.333 27.333 -38 60 -38 98c0 37.333 12.667 68.666 38 93.999c15.333 14 30.5 24.5 45.5 31.5s32.5 10.5 52.5 10.5z" />
    <glyph glyph-name="oslash" unicode="&#xf8;" 
d="M1264 1248l-150 -173.999c56 -78 94 -144 114 -198c24 -72 36 -155.333 36 -250c0 -126 -23.5 -240.833 -70.5 -344.5s-115.833 -182.5 -206.5 -236.5s-189 -81 -295 -81c-40 0 -76.833 2.83301 -110.5 8.5s-65.667 14.834 -96 27.501s-61 29 -92 49
s-64.167 45.667 -99.5 77l-142 -162l-62 58l146 170c-43.333 71.333 -74 134.666 -92 189.999c-10.667 33.333 -18.667 69.666 -24 108.999s-8 79.666 -8 120.999c0 176.667 50.333 330.834 151 462.501s243.667 197.5 429 197.5c36.667 0 70.167 -2.66699 100.5 -8
s60.833 -13.333 91.5 -24c54 -20 110.667 -54.667 170 -104l146 170zM868 924.001c0 45.333 -5.33301 84.333 -16 117s-24.667 59.667 -42 81c-31.333 37.333 -68 56 -110 56c-18.667 0 -34.5 -1.66699 -47.5 -5s-25.667 -8.83301 -38 -16.5s-24.166 -19.167 -35.499 -34.5
s-22.333 -34 -33 -56c-10.667 -24.667 -19.334 -56 -26.001 -94s-10 -84 -10 -138l-4 -340zM506 368.001c0 -58.667 5 -108.332 15 -148.999s24.167 -72.5 42.5 -95.5s37.166 -40 56.499 -51s41.333 -16.5 66 -16.5c40.667 0 71.334 9.33301 92.001 28
c14 10 27 25.167 39 45.5s22.333 43.833 31 70.5c10 35.333 17.833 82.166 23.5 140.499s8.5 122.833 8.5 193.5l-4 264z" />
    <glyph glyph-name="ugrave" unicode="&#xf9;" horiz-adv-x="1504" 
d="M1283 1234v-966c0 -81.333 7.16699 -136.666 21.5 -165.999s51.5 -47.333 111.5 -54v-48h-503v165c-112.667 -134.667 -237.334 -202 -374.001 -202c-75.333 0 -141.166 23.833 -197.499 71.5s-91.333 103.834 -105 168.501s-20.5 156 -20.5 274v489
c0 83.333 -6.83301 138.666 -20.5 165.999s-51.167 45 -112.5 53v49h503v-887c0 -136 38.333 -204 115 -204c65.333 0 136 54.333 212 163v660c0 83.333 -6.83301 138.666 -20.5 165.999s-51.167 45 -112.5 53v49h503zM271 1851h397l154 -458h-113z" />
    <glyph glyph-name="uacute" unicode="&#xfa;" horiz-adv-x="1504" 
d="M1283 1234v-966c0 -81.333 7.16699 -136.666 21.5 -165.999s51.5 -47.333 111.5 -54v-48h-503v165c-112.667 -134.667 -237.334 -202 -374.001 -202c-75.333 0 -141.166 23.833 -197.499 71.5s-91.333 103.834 -105 168.501s-20.5 156 -20.5 274v489
c0 83.333 -6.83301 138.666 -20.5 165.999s-51.167 45 -112.5 53v49h503v-887c0 -136 38.333 -204 115 -204c65.333 0 136 54.333 212 163v660c0 83.333 -6.83301 138.666 -20.5 165.999s-51.167 45 -112.5 53v49h503zM1136 1850l-438 -458h-114l154 458h398z" />
    <glyph glyph-name="ucircumflex" unicode="&#xfb;" horiz-adv-x="1504" 
d="M1283 1234v-966c0 -81.333 7.16699 -136.666 21.5 -165.999s51.5 -47.333 111.5 -54v-48h-503v165c-112.667 -134.667 -237.334 -202 -374.001 -202c-75.333 0 -141.166 23.833 -197.499 71.5s-91.333 103.834 -105 168.501s-20.5 156 -20.5 274v489
c0 83.333 -6.83301 138.666 -20.5 165.999s-51.167 45 -112.5 53v49h503v-887c0 -136 38.333 -204 115 -204c65.333 0 136 54.333 212 163v660c0 83.333 -6.83301 138.666 -20.5 165.999s-51.167 45 -112.5 53v49h503zM870 1884l268 -504h-102l-314 272l-324 -264h-108
l280 496h300z" />
    <glyph glyph-name="udieresis" unicode="&#xfc;" horiz-adv-x="1504" 
d="M1283 1234v-966c0 -81.333 7.16699 -136.666 21.5 -165.999s51.5 -47.333 111.5 -54v-48h-503v165c-112.667 -134.667 -237.334 -202 -374.001 -202c-75.333 0 -141.166 23.833 -197.499 71.5s-91.333 103.834 -105 168.501s-20.5 156 -20.5 274v489
c0 83.333 -6.83301 138.666 -20.5 165.999s-51.167 45 -112.5 53v49h503v-887c0 -136 38.333 -204 115 -204c65.333 0 136 54.333 212 163v660c0 83.333 -6.83301 138.666 -20.5 165.999s-51.167 45 -112.5 53v49h503zM954 1807c48 0 89.333 -17.333 124 -52
c17.333 -17.333 30.333 -36 39 -56s13 -42.667 13 -68c0 -46 -17.333 -87.333 -52 -124c-17.333 -17.333 -36 -30.333 -56 -39s-42.667 -13 -68 -13c-46 0 -86.833 17.333 -122.5 52s-53.5 76 -53.5 124c0 46 17.333 86.833 52 122.5s76 53.5 124 53.5zM460 1807
c48 0 89.333 -16.833 124 -50.5s52 -75.5 52 -125.5c0 -48 -17.333 -89.333 -52 -124c-17.333 -17.333 -36 -30.333 -56 -39s-42.667 -13 -68 -13c-46 0 -86.5 17 -121.5 51s-52.5 75.667 -52.5 125c0 47.333 17 88.5 51 123.5s75 52.5 123 52.5z" />
    <glyph glyph-name="yacute" unicode="&#xfd;" 
d="M657 -50l-398.001 914.999c-50.667 116.667 -90.5 195.5 -119.5 236.5s-68.167 68.833 -117.5 83.5v49h656v-49c-78 -2.66699 -117 -29 -117 -79c0 -31.333 22 -97.333 66 -198l211 -483l144 374c52 135.333 78 227.666 78 276.999c0 70 -49 106.333 -147 109v49h414v-49
c-29.333 -2.66699 -56.5 -14.167 -81.5 -34.5s-43.167 -41.166 -54.5 -62.499s-41.666 -95.666 -90.999 -222.999l-353 -915c-102 -264 -180.667 -418.833 -236 -464.5s-118.666 -68.5 -189.999 -68.5c-62 0 -118.5 18.5 -169.5 55.5s-76.5 89.5 -76.5 157.5
c0 118 54.333 177 163 177c96 0 145 -57.667 147 -173c1.33301 -52.667 15.666 -79 42.999 -79c55.333 0 119 97.333 191 292zM1092 1850l-438 -458h-114l154 458h398z" />
    <glyph glyph-name="thorn" unicode="&#xfe;" horiz-adv-x="1504" 
d="M568 126l0.000976562 -460c0 -66.667 5.33301 -110.667 16 -132c9.33301 -22 25.333 -39.333 48 -52c21.333 -10.667 62.666 -16 123.999 -16v-50h-704v50c53.333 0 93.333 15.333 120 46c18.667 20.667 28 74.667 28 162v1900c0 88.667 -10.667 144.667 -32 168
c-20 26.667 -58.667 40 -116 40v50h516v-760c43.333 62.667 87.333 108.667 132 138c66 41.333 136 62 210 62c90 0 172.333 -28.833 247 -86.5s131.5 -137.167 170.5 -238.5s58.5 -209 58.5 -323c0 -123.333 -20 -238 -60 -344c-20 -52 -44.167 -97.167 -72.5 -135.5
s-62.166 -71.833 -101.499 -100.5c-75.333 -53.333 -160 -80 -254 -80c-70 0 -133.333 14.667 -190 44c-44.667 22.667 -91.334 62 -140.001 118zM568.001 258c76.667 -106.667 158.001 -159.999 244.001 -159.999c47.333 0 86.666 24.667 117.999 74
c45.333 76 68 217.333 68 424c0 211.333 -25.333 356.666 -76 435.999c-32 52 -76.667 78 -134 78c-86.667 0 -160 -64 -220 -192v-660z" />
    <glyph glyph-name="ydieresis" unicode="&#xff;" 
d="M657 -50l-398.001 914.999c-50.667 116.667 -90.5 195.5 -119.5 236.5s-68.167 68.833 -117.5 83.5v49h656v-49c-78 -2.66699 -117 -29 -117 -79c0 -31.333 22 -97.333 66 -198l211 -483l144 374c52 135.333 78 227.666 78 276.999c0 70 -49 106.333 -147 109v49h414v-49
c-29.333 -2.66699 -56.5 -14.167 -81.5 -34.5s-43.167 -41.166 -54.5 -62.499s-41.666 -95.666 -90.999 -222.999l-353 -915c-102 -264 -180.667 -418.833 -236 -464.5s-118.666 -68.5 -189.999 -68.5c-62 0 -118.5 18.5 -169.5 55.5s-76.5 89.5 -76.5 157.5
c0 118 54.333 177 163 177c96 0 145 -57.667 147 -173c1.33301 -52.667 15.666 -79 42.999 -79c55.333 0 119 97.333 191 292zM924.999 1807c48 0 89.333 -17.333 124 -52c17.333 -17.333 30.333 -36 39 -56s13 -42.667 13 -68c0 -46 -17.333 -87.333 -52 -124
c-17.333 -17.333 -36 -30.333 -56 -39s-42.667 -13 -68 -13c-46 0 -86.833 17.333 -122.5 52s-53.5 76 -53.5 124c0 46 17.333 86.833 52 122.5s76 53.5 124 53.5zM430.999 1807c48 0 89.333 -16.833 124 -50.5s52 -75.5 52 -125.5c0 -48 -17.333 -89.333 -52 -124
c-17.333 -17.333 -36 -30.333 -56 -39s-42.667 -13 -68 -13c-46 0 -86.5 17 -121.5 51s-52.5 75.667 -52.5 125c0 47.333 17 88.5 51 123.5s75 52.5 123 52.5z" />
    <glyph glyph-name="dotlessi" unicode="&#x131;" horiz-adv-x="752" 
d="M572 1234l-0.00195312 -978c0 -86.667 10.667 -142.667 32 -168c10.667 -12.667 25.834 -22.5 45.501 -29.5s43.834 -10.5 72.501 -10.5v-48h-666v48c54 0 94 16 120 48c18.667 18.667 28 72 28 160v720c0 88.667 -10.667 144.667 -32 168c-18 22 -56.667 36 -116 42v48
h516z" />
    <glyph glyph-name="OE" unicode="&#x152;" horiz-adv-x="2704" 
d="M2444 1790l-0.00195312 -533.997h-52c-8.66699 55.333 -19.834 102.5 -33.5 141.5c-13.667 39 -32.5 75.167 -56.5 108.5c-43.333 64 -98 108.667 -164 134c-32.667 14 -69 24.833 -109 32.5s-81 11.5 -123 11.5h-212v-728h42c40 0 81.333 10.667 124 32
c30 14 58 37.333 84 70c21.333 27.333 41.333 68.666 60 123.999c14.667 44.667 24.334 80.667 29.001 108s7 56.666 7 87.999h52v-936h-52c-26 164 -65 274 -117 330s-114.333 84 -187 84h-42v-452c0 -135.333 3.33301 -214 10 -236c8 -22.667 20.667 -38.667 38 -48
c22.667 -13.333 66 -20 130 -20h80c72.667 0 139.334 9.83301 200.001 29.5s116 49.834 166 90.501c101.333 79.333 170 194.666 206 345.999h50l-82 -566h-994c-24.667 0 -43.167 -0.333008 -55.5 -1s-39.833 -3 -82.5 -7c-40.667 0 -99.667 -2.66699 -177 -8
s-134.333 -8 -171 -8c-168 0 -314 32 -438 96c-156.667 82.667 -275.167 198.167 -355.5 346.5s-120.5 307.5 -120.5 477.5c0 231.333 70 434 210 608c84 103.333 181.667 181.166 293 233.499s236.333 78.5 375 78.5c111.333 0 221.333 -6.66699 330 -20
c46 -4 106 -6 180 -6h958zM1264 1356c0 96.667 -2.66797 156.669 -8.00098 180.002c-8 47.333 -28.667 84.666 -62 111.999c-45.333 37.333 -102 56 -170 56c-125.333 0 -226.666 -53.333 -303.999 -160c-48.667 -68.667 -85.5 -162.334 -110.5 -281.001
s-37.5 -261 -37.5 -427c0 -274.667 48 -476 144 -604c75.333 -101.333 175.333 -152 300 -152c89.333 0 153 21 191 63s57 127 57 255v958z" />
    <glyph glyph-name="oe" unicode="&#x153;" horiz-adv-x="1952" 
d="M1878 654l-650 -0.00195312c16 -177.333 55.833 -304.333 119.5 -381s133.167 -115 208.5 -115c25.333 0 50.166 3.83301 74.499 11.5s47.333 19.334 69 35.001s43.667 36.834 66 63.501s45.166 58.667 68.499 96l44 -32
c-68.667 -133.333 -143.334 -229.333 -224.001 -288c-75.333 -53.333 -164.666 -80 -267.999 -80c-35.333 0 -67.666 2.66699 -96.999 8s-56.666 14.333 -81.999 27s-50.5 29 -75.5 49s-52.167 46 -81.5 78c-62.667 -60.667 -120.667 -103.334 -174 -128.001
c-25.333 -12 -54 -20.667 -86 -26s-67.333 -8 -106 -8c-204.667 0 -360.667 75.333 -468 226c-41.333 57.333 -72.333 120.333 -93 189s-31 144.334 -31 227.001c0 122 24.833 234.667 74.5 338s121.5 184 215.5 242c48 28.667 96.833 50.167 146.5 64.5
s101.5 21.5 155.5 21.5c77.333 0 146.333 -14.667 207 -44s119 -76 175 -140c52.667 65.333 106 111.333 160 138c55.333 30.667 117.333 46 186 46c124.667 0 233.5 -53 326.5 -159s139.5 -259 139.5 -459zM686 1178c-37.333 0 -70.0029 -10.001 -98.0029 -30.001
c-33.333 -29.333 -59.666 -81.833 -78.999 -157.5s-29 -214.5 -29 -416.5c0 -88 2 -160.5 6 -217.5s10.667 -102.5 20 -136.5c18 -63.333 42.667 -108.666 74 -135.999c24.667 -18.667 56 -28 94 -28c44.667 0 81.334 11.5 110.001 34.5s51.834 71 69.501 144
s26.5 220.167 26.5 441.5c0 171.333 -9.33301 286 -28 344c-8.66699 30.667 -18.667 56.167 -30 76.5s-26 37.5 -44 51.5c-22 20 -52.667 30 -92 30zM1554 743.997l-0.000976562 59.001c0 15.333 0.666992 29 2 41c0 130 -16.167 218.167 -48.5 264.5
s-68.166 69.5 -107.499 69.5c-25.333 0 -50 -10 -74 -30c-15.333 -11.333 -28.833 -26.333 -40.5 -45s-21.5 -40.334 -29.5 -65.001c-10.667 -35.333 -19 -78 -25 -128s-9 -105.333 -9 -166h332z" />
    <glyph glyph-name="Scaron" unicode="&#x160;" horiz-adv-x="1504" 
d="M1270 1831l14.002 -596.999h-54c-24 140 -84 258 -180 354s-206.667 144 -332 144c-72.667 0 -139.5 -20.167 -200.5 -60.5s-91.5 -99.5 -91.5 -177.5c0 -64 27.667 -121.5 83 -172.5s173.333 -121.167 354 -210.5c222 -108.667 366.167 -209.667 432.5 -303
s99.5 -194 99.5 -302c0 -158.667 -60.5 -289.667 -181.5 -393s-266.833 -155 -437.5 -155c-100.667 0 -216.667 27.333 -348 82c-41.333 17.333 -76.333 26 -105 26c-58 0 -102.667 -35.667 -134 -107h-49v676h49c35.333 -172 105 -312.5 209 -421.5s228 -163.5 372 -163.5
c82 0 156.333 23.333 223 70s100 112.667 100 198c0 70 -26.833 132.167 -80.5 186.5s-153.167 117.166 -298.5 188.499c-206.667 102 -353.834 198.333 -441.501 289s-131.5 202 -131.5 334c0 146.667 53.167 269.167 159.5 367.5s237.5 147.5 393.5 147.5
c77.333 0 166 -20.667 266 -62c100 -40.667 159.667 -61 179 -61c43.333 0 73.666 41 90.999 123h40zM574.002 1940l-266 504h100l316 -272l322 264h110l-284 -496h-298z" />
    <glyph glyph-name="scaron" unicode="&#x161;" horiz-adv-x="1052" 
d="M871 1269l20 -422h-45c-92.667 216.667 -205.667 325 -339 325c-87.333 0 -131 -40 -131 -120c0 -56 91 -144 273 -264c204.667 -134 307 -273.333 307 -418c0 -128 -40.333 -227.833 -121 -299.5s-175 -107.5 -283 -107.5c-42 0 -97 11.667 -165 35s-110 35 -126 35
c-28.667 0 -52.667 -22 -72 -66h-44l-21 444h45c33.333 -98.667 82.833 -181.5 148.5 -248.5s135.834 -100.5 210.501 -100.5c96 0 144 44.333 144 133c0 39.333 -12.5 74.5 -37.5 105.5s-84.833 79.167 -179.5 144.5c-154.667 106.667 -251.334 191.667 -290.001 255
s-58 129.333 -58 198c0 123.333 39.5 216.333 118.5 279s167.167 94 264.5 94c46.667 0 97.667 -11.333 153 -34s88.333 -34 99 -34c26 0 54 22 84 66h45zM342 1380l-266 504h100l316 -272l322 264h110l-284 -496h-298z" />
    <glyph glyph-name="Ydieresis" unicode="&#x178;" horiz-adv-x="1952" 
d="M1922 1790v-48.998c-47.333 -5.33301 -88.833 -19 -124.5 -41s-109.167 -126.333 -220.5 -313l-388 -648v-433c0 -70.667 2.33301 -120.334 7 -149.001s22.334 -53.834 53.001 -75.501s72.667 -32.5 126 -32.5h101v-49h-1005v49h94c56 0 96.667 8.5 122 25.5
s43.666 36.667 54.999 59s17 79.833 17 172.5v359l-421 767c-72 130.667 -126 214.5 -162 251.5s-86.667 56.167 -152 57.5v49h858v-49h-38c-93.333 0 -140 -23.333 -140 -70c0 -31.333 35 -111 105 -239l324 -592l322 539c80 134 120 221.667 120 263
c0 58.667 -66.667 91.667 -200 99v49h547zM1278 2346c48 0 89.333 -17.333 124 -52c17.333 -17.333 30.333 -36 39 -56s13 -42.667 13 -68c0 -46 -17.333 -87.333 -52 -124c-17.333 -17.333 -36 -30.333 -56 -39s-42.667 -13 -68 -13c-46 0 -86.833 17.333 -122.5 52
s-53.5 76 -53.5 124c0 46 17.333 86.833 52 122.5s76 53.5 124 53.5zM784 2346c48 0 89.333 -16.833 124 -50.5s52 -75.5 52 -125.5c0 -48 -17.333 -89.333 -52 -124c-17.333 -17.333 -36 -30.333 -56 -39s-42.667 -13 -68 -13c-46 0 -86.5 17 -121.5 51
s-52.5 75.667 -52.5 125c0 47.333 17 88.5 51 123.5s75 52.5 123 52.5z" />
    <glyph glyph-name="Zcaron" unicode="&#x17d;" horiz-adv-x="1803" 
d="M1650 1790l-1052 -1690h341c138.667 0 253.834 10.667 345.501 32s177.167 75.833 256.5 163.5s133.666 204.834 162.999 351.501h52l-73 -647h-1639l1053 1692h-265c-117.333 0 -210.166 -9 -278.499 -27s-131.5 -59.833 -189.5 -125.5s-100.667 -156.834 -128 -273.501
h-49l49 524h1414zM774.999 1910l-266 504h100l316 -272l322 264h110l-284 -496h-298z" />
    <glyph glyph-name="zcaron" unicode="&#x17e;" horiz-adv-x="1200" 
d="M1102 0l-1074 0.000976562v29l678 1125h-198c-74.667 0 -141.334 -10.333 -200.001 -31s-106.667 -103.334 -144 -248.001h-47v359h1039v-35l-673 -1115h85c147.333 0 262.666 20.5 345.999 61.5s146 133.167 188 276.5h37zM450.002 1380l-266 504h100l316 -272l322 264
h110l-284 -496h-298z" />
    <glyph glyph-name="florin" unicode="&#x192;" 
d="M938 1034l-131.998 -660.001c-32.667 -155.333 -61.334 -279.666 -86.001 -372.999c-27.333 -102.667 -52.666 -180.334 -75.999 -233.001c-46.667 -105.333 -110.667 -190.666 -192 -255.999c-39.333 -31.333 -79.666 -55.166 -120.999 -71.499
s-83.666 -24.5 -126.999 -24.5c-63.333 0 -114 16 -152 48c-18 16 -31.5 32.333 -40.5 49s-13.5 35.667 -13.5 57c0 33.333 12.833 63.333 38.5 90s58.167 40 97.5 40c37.333 0 68.666 -10.667 93.999 -32c10 -8.66699 17.5 -18.5 22.5 -29.5s7.5 -24.5 7.5 -40.5
c0 -11.333 -2 -22 -6 -32c-8 -22 -12 -35.333 -12 -40c0 -8 3.5 -14.667 10.5 -20s16.167 -8 27.5 -8c24 0 47.333 13.333 70 40c10 12.667 17.833 29.5 23.5 50.5s8.5 44.833 8.5 71.5c0 22 -1 45.667 -3 71l-5 63c0 12.667 -0.666992 31 -2 55s-2 41.667 -2 53
c0 74.667 2.33301 130.834 7 168.501s10.167 73.667 16.5 108s16.5 84.166 30.5 149.499l144 706h-188l32 162c86 0 150.833 17.5 194.5 52.5s89.667 116.167 138 243.5s103.666 215.833 165.999 265.5s139.5 74.5 231.5 74.5c67.333 0 119.833 -16.333 157.5 -49
s56.5 -72.334 56.5 -119.001c0 -44 -13.833 -80.333 -41.5 -109s-61.834 -43 -102.501 -43c-32 0 -59.333 11.333 -82 34c-22.667 20.667 -34 46 -34 76c0 18.667 12 52 36 100c4 8 6 14.667 6 20c0 6.66699 -3.33301 13.334 -10 20.001
c-4.66699 3.33301 -13.334 6 -26.001 8c-31.333 0 -59.833 -15.333 -85.5 -46s-38.5 -76.667 -38.5 -138c0 -11.333 0.666992 -32.5 2 -63.5s2 -50.5 2 -58.5l8 -104c0 -42.667 -6.66699 -97.334 -20 -164.001h204l-32 -162h-202z" />
    <glyph glyph-name="circumflex" unicode="&#x2c6;" horiz-adv-x="900" 
d="M608 1884l268 -504h-102l-314 272l-324 -264h-108l280 496h300z" />
    <glyph glyph-name="caron" unicode="&#x2c7;" horiz-adv-x="900" 
d="M294 1380l-266 504h100l316 -272l322 264h110l-284 -496h-298z" />
    <glyph glyph-name="ring" unicode="&#x2da;" horiz-adv-x="900" 
d="M450 1898c76 0 141.329 -26.832 195.996 -80.499s82 -118.834 82 -195.501c0 -75.333 -27.333 -141.333 -82 -198c-26.667 -26 -56.667 -45.833 -90 -59.5s-68.666 -20.5 -105.999 -20.5c-75.333 0 -140.166 27.167 -194.499 81.5s-81.5 119.833 -81.5 196.5
c0 76 26.667 140.667 80 194c26.667 26.667 56.334 47 89.001 61s68.334 21 107.001 21zM451.996 1796c-47.333 0 -89.333 -17.334 -126 -52.001c-33.333 -35.333 -50 -76 -50 -122c0 -48 17.333 -89.333 52 -124c17.333 -17.333 36 -30.333 56 -39s42.667 -13 68 -13
c48.667 0 89.334 17.333 122.001 52c17.333 17.333 30.333 36 39 56s13 42.667 13 68c0 46.667 -16.833 87.334 -50.5 122.001s-74.834 52 -123.501 52z" />
    <glyph glyph-name="ring" unicode="&#x25e6;" horiz-adv-x="900" 
d="M450 1898c76 0 141.329 -26.832 195.996 -80.499s82 -118.834 82 -195.501c0 -75.333 -27.333 -141.333 -82 -198c-26.667 -26 -56.667 -45.833 -90 -59.5s-68.666 -20.5 -105.999 -20.5c-75.333 0 -140.166 27.167 -194.499 81.5s-81.5 119.833 -81.5 196.5
c0 76 26.667 140.667 80 194c26.667 26.667 56.334 47 89.001 61s68.334 21 107.001 21zM451.996 1796c-47.333 0 -89.333 -17.334 -126 -52.001c-33.333 -35.333 -50 -76 -50 -122c0 -48 17.333 -89.333 52 -124c17.333 -17.333 36 -30.333 56 -39s42.667 -13 68 -13
c48.667 0 89.334 17.333 122.001 52c17.333 17.333 30.333 36 39 56s13 42.667 13 68c0 46.667 -16.833 87.334 -50.5 122.001s-74.834 52 -123.501 52z" />
    <glyph glyph-name="tilde" unicode="&#x2dc;" horiz-adv-x="900" 
d="M810 1806l69.999 -0.00195312v-44c0 -99.333 -27.333 -177.333 -82 -234c-27.333 -29.333 -57.5 -51.666 -90.5 -66.999s-68.833 -23 -107.5 -23c-57.333 0 -129.5 21 -216.5 63s-144.167 63 -171.5 63s-49.333 -9.33301 -66 -28
c-17.333 -15.333 -30 -46.666 -38 -93.999h-76c0 58.667 6.16699 110 18.5 154s32.166 82 59.499 114c55.333 65.333 124 98 206 98c9.33301 0 19.333 -0.166992 30 -0.5s22.667 -2.83301 36 -7.5c19.333 -4.66699 62 -22 128 -52c88.667 -41.333 153.334 -62 194.001 -62
c17.333 0 36 8 56 24c14.667 14.667 31.334 46.667 50.001 96z" />
    <glyph glyph-name="uni0E01" unicode="&#xe01;" horiz-adv-x="1569" 
d="M283 0l-0.00195312 1049h-123c0 157.333 51.333 294.833 154 412.5s252 176.5 448 176.5c218.667 0 386.667 -63.5 504 -190.5s176 -257.167 176 -390.5v-819c0 -15.333 -29 -58.833 -87 -130.5s-94.667 -107.5 -110 -107.5h-131v1073
c0 121.333 -41.667 215.833 -125 283.5s-172.666 101.5 -267.999 101.5c-211.333 0 -335.666 -83.333 -372.999 -250h447v-147h-185v-1061h-327z" />
    <glyph glyph-name="uni0E02" unicode="&#xe02;" horiz-adv-x="1700" 
d="M302 1317c38.667 6.66699 71.665 10.001 98.998 10.001c66.667 0 116.834 -23.5 150.501 -70.5s50.5 -99.833 50.5 -158.5c0 -66.667 -26.167 -121.334 -78.5 -164.001s-105.166 -64 -158.499 -64c-161.333 0 -242 104.667 -242 314c0 126.667 37.833 234 113.5 322
s172.834 132 291.501 132c145.333 0 259.5 -33.833 342.5 -101.5s124.5 -137.5 124.5 -209.5v-1061c0 -73.333 35.333 -110 106 -110c68.667 0 103 31.333 103 94v1130c18 60 78 144.667 180 254h152v-1249c0 -108 -44.833 -199.167 -134.5 -273.5
s-194.834 -111.5 -315.501 -111.5c-103.333 0 -198.833 34.667 -286.5 104s-131.5 144 -131.5 224v934c-9.33301 122 -61.333 182 -156 180c-129.333 0 -199.333 -41.667 -210 -125zM499.998 1104c0 87.333 -42.333 131 -127 131c-85.333 0 -128 -43.667 -128 -131
c0 -88 42.667 -132 128 -132c80 1.33301 122.333 45.333 127 132z" />
    <glyph glyph-name="uni0E03" unicode="&#xe03;" horiz-adv-x="1855" 
d="M605 1399l95.999 125.001c46.667 78.667 84.667 118 114 118c108.667 0 191.834 -35 249.501 -105s86.5 -140 86.5 -210v-1061c0 -73.333 35 -110 105 -110c69.333 0 104 31.333 104 94v1130c0 86.667 60 171.334 180 254.001h152v-1249
c0 -114 -43.667 -206.667 -131 -278s-190 -107 -308 -107c-120.667 0 -222.5 36.5 -305.5 109.5s-124.5 145.833 -124.5 218.5v934c0 65.333 -9.33301 98 -28 98c-19.333 0 -52.333 -34.667 -99 -104l-98 -113l-80 113c-53.333 76 -84 114 -92 114
c-36.667 0 -71.667 -30.5 -105 -91.5s-50 -120.167 -50 -177.5c0 -71.333 16.667 -133.333 50 -186s78 -79 134 -79c51.333 0 77 31.333 77 94l-5 73c0 32 17.333 48 52 48c86.667 0 130 -52.667 130 -158c0 -59.333 -24 -111 -72 -155s-102 -66 -162 -66
c-105.333 0 -189.5 41.167 -252.5 123.5s-94.5 182.166 -94.5 299.499c0 139.333 43 264.666 129 375.999s147.667 167 185 167c22 2 56.667 -43.667 104 -137z" />
    <glyph glyph-name="uni0E04" unicode="&#xe04;" horiz-adv-x="1655" 
d="M1491 0h-328.001v1102c0 74 -44 146.667 -132 218s-186.333 107 -295 107c-122 0 -229.5 -31.333 -322.5 -94s-139.5 -137.334 -139.5 -224.001c0 -22 8.66699 -52 26 -90c18.667 29.333 54.334 72.333 107.001 129c71.333 56 161.333 84 270 84
c82 0 152.833 -27.333 212.5 -82s89.5 -124 89.5 -208c0 -86 -27.5 -153.833 -82.5 -203.5s-127.167 -74.5 -216.5 -74.5c-16.667 0 -46.667 2.66699 -90 8v-672h-328v643c0 60.667 -23.667 132 -71 214c-45.333 78.667 -68 153.334 -68 224.001
c0 170 69.5 305.333 208.5 406s293.5 151 463.5 151c202 0 368.5 -54 499.5 -162s196.5 -236.667 196.5 -386v-1090zM865.999 934c0 43.333 -16.168 80.5 -48.501 111.5s-71.5 46.5 -117.5 46.5c-39.333 0 -76.666 -14 -111.999 -42s-53 -66.667 -53 -116
s17.5 -88 52.5 -116s72.5 -42 112.5 -42s77.667 13.833 113 41.5s53 66.5 53 116.5z" />
    <glyph glyph-name="uni0E05" unicode="&#xe05;" horiz-adv-x="1716" 
d="M1552 0l-326.996 -0.000976562v1155c0 52.667 -12.5 110.167 -37.5 172.5s-69.833 94.833 -134.5 97.5c-70.667 0 -141.334 -67 -212.001 -201c-91.333 124.667 -170.333 187 -237 187c-92 0 -170.667 -38.5 -236 -115.5s-98 -151.167 -98 -222.5
c0 -97.333 23.333 -187.333 70 -270c62 216 186 324 372 324c74.667 0 137.834 -27.333 189.501 -82s77.5 -124.334 77.5 -209.001c0 -75.333 -25.833 -138.333 -77.5 -189s-115.834 -76 -192.501 -76c-30.667 0 -71.667 11.667 -123 35v-606h-328v541
c0 34.667 -22.667 106.334 -68 215.001c-44.667 108.667 -67 185.667 -67 231c0 191.333 52.667 347 158 467s228.666 180 369.999 180c29.333 0 92.666 -53.667 189.999 -161c87.333 110 138.666 165 153.999 165c179.333 0 317 -43.167 413 -129.5
s144 -185.166 144 -296.499v-1212zM869.004 845.999c0 43.333 -16.168 80.5 -48.501 111.5s-71.166 46.5 -116.499 46.5c-40 0 -77.667 -14 -113 -42s-53 -66.667 -53 -116s17.5 -88 52.5 -116s72.833 -42 113.5 -42c40 0 77.5 14 112.5 42s52.5 66.667 52.5 116z" />
    <glyph glyph-name="uni0E06" unicode="&#xe06;" horiz-adv-x="2044" 
d="M1880 0l-188.002 -0.000976562c-46 81.333 -124 186.333 -234 315c-100 87.333 -207.667 131 -323 131c0 -319.333 -115.667 -479 -347 -479c-94 0 -177.167 27.333 -249.5 82s-108.5 138 -108.5 250c0 216 125.667 324 377 324v639c0 42 -16.333 70.667 -49 86
c-59.333 -66.667 -125 -133.667 -197 -201c-16.667 0 -70.667 60.667 -162 182c-69.333 -60.667 -104 -132.334 -104 -215.001c0 -134 35.333 -201 106 -201c26.667 0 53 16.333 79 49c26 33.333 45 50 57 50c60 0 90 -35.667 90 -107
c0 -51.333 -19.333 -96.166 -58 -134.499s-83.667 -57.5 -135 -57.5c-78 0 -149.333 28.833 -214 86.5s-97 152.834 -97 285.501c0 106.667 42.333 222.167 127 346.5s137.334 186.5 158.001 186.5c12.667 0.666992 42.667 -34.333 90 -105l80 -104l96 113
c55.333 76 88 114 98 114c74.667 0 153.834 -35.667 237.501 -107s125.5 -140 125.5 -206v-700c110.667 0 249.667 -56 417 -168v921c0 60 73.667 147.667 221 263l107 -1v-1638zM806.998 220.999v225c-147.333 0 -221 -47.667 -221 -143c0 -125.333 42.333 -188 127 -188
c62.667 0 94 35.333 94 106z" />
    <glyph glyph-name="uni0E07" unicode="&#xe07;" horiz-adv-x="1327" 
d="M1163 0l-323.002 0.000976562l-717 791v127l717 -553v696l-78 -4c-84.667 0 -155 23.667 -211 71s-84 109.666 -84 186.999c0 89.333 33.333 165.5 100 228.5s145.334 94.5 236.001 94.5c114.667 0 203.334 -39 266.001 -117s94 -166 94 -264v-1257zM925.998 1338
c0 43.333 -16.833 80 -50.5 110s-74.5 45 -122.5 45c-45.333 0 -84 -16.5 -116 -49.5s-48 -72.167 -48 -117.5s17 -83 51 -113s74.667 -45 122 -45c38.667 0 75.667 14.833 111 44.5s53 71.5 53 125.5z" />
    <glyph glyph-name="uni0E08" unicode="&#xe08;" horiz-adv-x="1556" 
d="M483 688c-36.667 -4 -61.999 -5.99902 -75.999 -5.99902c-95.333 0 -166.5 29.5 -213.5 88.5s-70.5 125.833 -70.5 200.5c0 85.333 30 155.166 90 209.499s134.333 81.5 223 81.5c112 0 202.5 -35.833 271.5 -107.5s103.5 -149.167 103.5 -232.5v-672
c0 -79.333 42.333 -119 127 -119c87.333 0 131 38.333 131 115v819c0 108.667 -39.833 198 -119.5 268s-166.834 105 -261.501 105c-103.333 0 -209 -21.667 -317 -65l-84 -34l-70 50c153.333 166 346 249 578 249c128 0 259.667 -46.667 395 -140s203 -229.333 203 -408
v-762c0 -218.667 -160 -328 -480 -328c-118 -0 -219.167 23.833 -303.5 71.5s-126.5 119.5 -126.5 215.5v401zM566.001 954.001c0 44 -14.499 81.333 -43.499 112s-69.5 46 -121.5 46c-50.667 0 -91 -13.833 -121 -41.5s-45 -66.5 -45 -116.5c0 -49.333 17.667 -88 53 -116
s73 -42 113 -42c45.333 0 84.166 15.5 116.499 46.5s48.5 68.167 48.5 111.5z" />
    <glyph glyph-name="uni0E09" unicode="&#xe09;" horiz-adv-x="1745" 
d="M1120 354c-37.333 -2 -73.999 -4.83398 -109.999 -8.50098s-70.833 -17.667 -104.5 -42s-73.667 -63.166 -120 -116.499s-91.166 -115.666 -134.499 -186.999h-213v733c-210 0 -315 94.333 -315 283c0 84.667 30.667 153.667 92 207s137 80 227 80
c78.667 0 152.334 -27.5 221.001 -82.5s103 -132.833 103 -233.5v-594c45.333 27.333 113.666 54.666 204.999 81.999l200 33v639c0 95.333 -43.833 170.333 -131.5 225s-176.167 82 -265.5 82c-118 0 -266.667 -35.333 -446 -106l-41 86
c69.333 50 163.666 96.5 282.999 139.5s220 64.5 302 64.5c60.667 0 147.667 -17.5 261 -52.5s202.666 -91.167 267.999 -168.5s98 -167.333 98 -270v-516l-48 -137c16 -12.667 41.333 -40 76 -82c36 -58 54 -114.667 54 -170c0 -72 -21.833 -131.333 -65.5 -178
s-102.167 -70 -175.5 -70c-170 0 -255 78 -255 234c0 34.667 11.667 76.667 35 126zM543.001 1019c0 42.667 -15.501 78.667 -46.501 108s-68.167 44 -111.5 44c-41.333 0 -76.166 -15.167 -104.499 -45.5s-42.5 -66.833 -42.5 -109.5
c-0.666992 -42 11.5 -78.833 36.5 -110.5s59.833 -47.5 104.5 -47.5c54.667 2.66699 95.667 19 123 49s41 67.333 41 112zM1460 236.999c-8 90.667 -50 133.667 -126 129c-77.333 -2 -119.333 -45 -126 -129c2 -85.333 44 -128.333 126 -129
c78.667 7.33301 120.667 50.333 126 129z" />
    <glyph glyph-name="uni0E0A" unicode="&#xe0a;" horiz-adv-x="1651" 
d="M889 1253l68.998 -0.00390625c46.667 0 88.834 20.833 126.501 62.5s74.834 149.167 111.501 322.5h291v-41c0 -51.333 -5.5 -95.333 -16.5 -132s-38.833 -77 -83.5 -121l-170 -164c76.667 -139.333 124.5 -238.166 143.5 -296.499s28.5 -128.833 28.5 -211.5
c0 -167.333 -35.667 -321.166 -107 -461.499s-141 -210.5 -209 -210.5h-594v172h82v1057c0 139.333 -50.333 209 -151 209c-120.667 0 -181 -65.667 -181 -197c0 -109.333 28.667 -164 86 -164c30 0 45 15 45 45c0 16.667 -4.66699 41.334 -14 74.001s-14 57.334 -14 74.001
c0 24.667 8 37 24 37c42 0 75.167 -20.667 99.5 -62s36.5 -90.333 36.5 -147c0 -139.333 -59 -209 -177 -209c-128 0 -192 118.667 -192 356c0 90 30.833 178 92.5 264s144.167 129 247.5 129c107.333 0 193.333 -34.167 258 -102.5s120.667 -162.5 168 -282.5z
M888.998 1073v-848c0 -35.333 24.667 -53 74 -53c69.333 0 106 45 110 135v668c0 90 -42.333 135 -127 135c-38 0 -57 -12.333 -57 -37z" />
    <glyph glyph-name="uni0E0B" unicode="&#xe0b;" horiz-adv-x="1925" 
d="M1782 1638v-57c0 -76.667 -20 -142.667 -60 -198s-110.333 -121.666 -211 -198.999c48.667 -77.333 91.667 -151.333 129 -222s56 -173 56 -307c0 -202 -36.333 -361.667 -109 -479s-147 -176 -223 -176h-627v184h86v1028c0 72.667 -14 122.334 -42 149.001
c-74.667 -88 -136 -156.333 -184 -205l-81 109l-82 99c-96.667 -86 -145 -171.667 -145 -257c0 -180.667 52.333 -271 157 -271c54 0 81 29.667 81 89v106c6 17.333 17.667 26 35 26c95.333 0 143 -53.333 143 -160c0 -62.667 -23.667 -115.834 -71 -159.501
s-100.666 -65.5 -159.999 -65.5c-102 0 -185.167 42 -249.5 126s-96.5 184 -96.5 300c0 121.333 46.333 239 139 353s147 171 163 171c25.333 0 79 -71.333 161 -214c124.667 152.667 196 229 214 229c102.667 0 185.667 -38.167 249 -114.5s98.333 -174.833 105 -295.5
c56 0 96.333 6.66699 121 20s52.167 43.166 82.5 89.499s59.166 107.5 86.499 183.5l46 118h287zM1331 287v696c-20 78.667 -58.667 118 -116 118c-37.333 0 -56 -10.667 -56 -32v-807c0 -54.667 24.667 -82 74 -82c65.333 0 98 35.667 98 107z" />
    <glyph glyph-name="uni0E0C" unicode="&#xe0c;" horiz-adv-x="2159" 
d="M1672 412l-1 988.999c0 54 70.667 132.667 212 236l116 1v-1638h-160c-15.333 16.667 -51 67 -107 151c-104.667 173.333 -208.334 262.333 -311.001 267v-150c0 -178.667 -79 -268 -237 -268c-180.667 0 -271 91.333 -271 274c0 131.333 61 224.333 183 279v628
c-1.33301 78 -35.5 141 -102.5 189s-146.833 72 -239.5 72c-83.333 0 -163.333 -19.833 -240 -59.5s-125 -99.167 -145 -178.5h430v-155h-181v-558c93.333 -54 140 -128.333 140 -223c0 -73.333 -26.333 -137.666 -79 -192.999s-112.334 -83 -179.001 -83
c-93.333 -1.33301 -161.833 27.667 -205.5 87s-65.5 121.666 -65.5 186.999c0 33.333 10.333 74.333 31 123c12.667 29.333 23 63.666 31 102.999v557h-168c0 92 25.5 180.833 76.5 266.5s124.333 160.834 220 225.501s220.834 97 375.501 97
c160 0 304.333 -39.167 433 -117.5s192.334 -181.166 191.001 -308.499l1 -656c100 -32.667 184 -80.667 252 -144zM638 267.999c0 36.667 -12.833 71.333 -38.5 104s-61.5 49 -107.5 49c-40 0 -74.167 -15 -102.5 -45s-42.5 -66 -42.5 -108s14.167 -78 42.5 -108
s62.5 -45 102.5 -45c40.667 0 75.167 15 103.5 45s42.5 66 42.5 108zM1098 138.998v279c-35.333 0 -60.333 -10.833 -75 -32.5s-22 -61.834 -22 -120.501c0 -46 8 -79.667 24 -101s40.333 -29.666 73 -24.999z" />
    <glyph glyph-name="uni0E0D" unicode="&#xe0d;" horiz-adv-x="2232" 
d="M338 1204l439.997 0.00292969v-151l-182 -1l-1 -502c42.667 12 83.334 18 122.001 18c58.667 0 115.5 -23.833 170.5 -71.5s82.5 -112.167 82.5 -193.5c0 -82.667 -33.333 -153.834 -100 -213.501s-141 -89.5 -223 -89.5c-92 0 -177.833 31.5 -257.5 94.5
s-119.5 151.5 -119.5 265.5v693h-147c0 149.333 57 284.166 171 404.499s271.333 180.5 472 180.5c186.667 0 341.834 -40.5 465.501 -121.5s185.5 -180.833 185.5 -299.5v-844c0 -38 14.833 -73.167 44.5 -105.5s72.167 -48.5 127.5 -48.5
c96.667 0 147.334 52.667 152.001 158v1024c0 19.333 71 94.666 213 225.999h114v-1234c0 -126 -50.667 -223 -152 -291s-211.333 -102 -330 -102c-92 0 -172.667 16.5 -242 49.5s-129 80.333 -179 142s-75 131.5 -75 209.5v795c0 76 -35 136 -105 180s-154 66 -252 66
c-207.333 0 -339 -79.333 -395 -238zM853.997 299.003c0 44 -15.5 81.668 -46.5 113.001s-68.833 47 -113.5 47c-26.667 0 -51.834 -6.16699 -75.501 -18.5s-43.667 -31 -60 -56s-24.5 -53.5 -24.5 -85.5c0 -30.667 7.33301 -57.834 22 -81.501s33.834 -42.667 57.501 -57
s50.5 -21.5 80.5 -21.5c50.667 0 90 17 118 51s42 70.333 42 109zM1232 -391.996c-4.66699 -10 -6 -22.666 -4 -37.999c0 -104 85 -156 255 -156c164 0 246 99.667 246 299v115h315v-66c0 -168.667 -42.833 -298 -128.5 -388s-210.5 -135 -374.5 -135
c-136 0 -248.667 30.833 -338 92.5s-134 142.5 -134 242.5c0 85.333 24.833 156.666 74.5 213.999s114.834 86 195.501 86c31.333 0 67.166 -16.5 107.499 -49.5s60.5 -74.167 60.5 -123.5c0 -109.333 -47.667 -164 -143 -164c-56 0 -100 23.667 -132 71z" />
    <glyph glyph-name="uni0E0E" unicode="&#xe0e;" horiz-adv-x="1819" 
d="M1655 -754l-286.997 0.000976562c-50.667 0 -94 41.333 -130 124c-45.333 104 -76.833 167.167 -94.5 189.5s-45 47.833 -82 76.5s-69.833 43 -98.5 43c-6.66699 -50.667 -13.334 -91.334 -20.001 -122.001c-18 -55.333 -44.333 -99.166 -79 -131.499
s-79.667 -48.5 -135 -48.5c-157.333 0 -236 80.333 -236 241c0 94 28.5 160.667 85.5 200s145.5 59 265.5 59c56.667 122 103 201.667 139 239s83.667 56 143 56l50 -86c-122 -92 -183 -167.667 -183 -227c17.333 -4.66699 60.666 -30.334 129.999 -77.001l204 -183v1597
c0 97.333 -41.333 174.333 -124 231s-180.334 85 -293.001 85c-77.333 0 -155.333 -22.5 -234 -67.5s-126.667 -101.833 -144 -170.5h480v-160h-205v-774c0 -77.333 -33.333 -153.333 -100 -228s-165.334 -112 -296.001 -112c-87.333 0 -159.666 31 -216.999 93
s-86 139.667 -86 233c0 77.333 24.667 145.666 74 204.999s109.333 89 180 89h113v498h-143c0 138.667 56.333 265.5 169 380.5s270.667 172.5 474 172.5c130.667 0 244.5 -17.167 341.5 -51.5s177.667 -86.666 242 -156.999s96.5 -156.5 96.5 -258.5v-1958z
M559.003 321.001c0 30 -7.16699 57 -21.5 81s-33.5 43.167 -57.5 57.5s-51 21.5 -81 21.5c-44.667 0 -82.5 -15.667 -113.5 -47s-46.5 -69 -46.5 -113s15.5 -81.667 46.5 -113s68.833 -47 113.5 -47c30 0 57 7.16699 81 21.5s43.167 33.5 57.5 57.5s21.5 51 21.5 81z
M824.003 -287.999c-36 22 -66.001 33.001 -90.001 33.001c-85.333 0 -128 -42 -128 -126c0 -74 37 -111 111 -111c42.667 0 70.834 11.167 84.501 33.5s21.167 79.166 22.5 170.499z" />
    <glyph glyph-name="uni0E0F" unicode="&#xe0f;" horiz-adv-x="1839" 
d="M942 -471c80.667 59.333 140.001 89 178.001 89c52.667 0 103.667 -10 153 -30s74.333 -30 75 -30v1605c0 96.667 -41.5 173 -124.5 229s-174.167 84 -273.5 84c-205.333 0 -339 -78.667 -401 -236l483 1v-160h-206v-673c0 -108.667 -40.5 -204.5 -121.5 -287.5
s-170.167 -124.5 -267.5 -124.5c-102.667 0 -180 32.833 -232 98.5s-78 139.834 -78 222.501c0 63.333 26 126.166 78 188.499s118.333 93.5 199 93.5c41.333 0 71.666 -4.33301 90.999 -13v499h-143c0 90 23 174.667 69 254s113.833 149 203.5 209s208.834 90 357.501 90
c186 0 348 -39.5 486 -118.5s207 -195.167 207 -348.5v-1957h-286c-39.333 153.333 -119.333 230 -240 230c-84.667 0 -155.334 -48.333 -212.001 -145l-96 1c-27.333 185.333 -62 278 -104 278c-14 -105.333 -39.167 -177.5 -75.5 -216.5s-95.833 -58.5 -178.5 -58.5
c-60 0 -110.333 23.5 -151 70.5s-61 103.5 -61 169.5c0 66.667 19.5 124.834 58.5 174.501s88.5 74.5 148.5 74.5c34 0 83.333 3.66699 148 11c33.333 120 82.5 199.167 147.5 237.5s117.167 57.5 156.5 57.5l24 -118c-94.667 -20.667 -156.667 -97.334 -186 -230.001
c76.667 -75.333 134.667 -149 174 -221zM588.001 312c0 44 -15.499 81.667 -46.499 113s-68.833 47 -113.5 47c-26.667 0 -51.834 -6.16699 -75.501 -18.5s-43.667 -31 -60 -56s-24.5 -53.5 -24.5 -85.5c0 -30 7.16699 -57 21.5 -81s33.5 -43.167 57.5 -57.5
s51 -21.5 81 -21.5c50.667 0 90 17 118 51s42 70.333 42 109zM487.002 -337c-69.333 0 -104 -42.666 -104 -127.999c0 -68.667 34.667 -103 104 -103c21.333 0 43 7.66699 65 23s36.667 80.666 44 195.999c-48.667 8 -85 12 -109 12z" />
    <glyph glyph-name="uni0E10" unicode="&#xe10;" horiz-adv-x="1581" 
d="M381 1237c120.667 38 234 56.998 340 56.998c132 0 259.167 -38.167 381.5 -114.5s183.5 -189.5 183.5 -339.5v-578c0 -174.667 -132.333 -262 -397 -262c-126 0 -230.5 26.5 -313.5 79.5s-124.5 111.167 -124.5 174.5v168c-86 0 -145.833 6 -179.5 18
s-66.834 40.5 -99.501 85.5s-49 103.167 -49 174.5c0 95.333 32.333 167.666 97 216.999s136 74 214 74c98.667 0 181.334 -30.333 248.001 -91s100 -142.334 100 -245.001v-299c0 -78.667 33 -118 99 -118c62.667 0 94 35.333 94 106v430c0 229.333 -136.333 344 -409 344
c-74 0 -186.333 -27.333 -337 -82c-8 19.333 -12 41.333 -12 66c0 128.667 23.167 231.334 69.5 308.001s101.833 133.834 166.5 171.501s139 56.5 223 56.5c56 0 134.667 -20.333 236 -61c103.333 -40.667 174 -61 212 -61c42 0 83 20 123 60c46.667 40 76 60.667 88 62
c26.667 -1.33301 39 -20.333 37 -57c0 -65.333 -31.667 -130.166 -95 -194.499s-143.666 -96.5 -240.999 -96.5c-50.667 0 -129.334 26.667 -236.001 80s-193 80 -259 80c-40.667 0 -77.5 -25.167 -110.5 -75.5s-49.5 -96.166 -49.5 -137.499zM556 705.998
c0 44.667 -15.6699 82.5 -47.0029 113.5s-69 46.5 -113 46.5c-27.333 0 -52.666 -6.16699 -75.999 -18.5s-43.166 -30.833 -59.499 -55.5s-24.5 -53.334 -24.5 -86.001c0 -38.667 14 -75 42 -109s67.333 -51 118 -51c30.667 0 57.834 7.33301 81.501 22
s42.667 33.834 57 57.501s21.5 50.5 21.5 80.5zM972.997 -502.002c-34.667 0 -71.5 19.3311 -110.5 57.998s-58.5 84.667 -58.5 138c0 68.667 20.333 125.834 61 171.501s96.334 68.5 167.001 68.5c169.333 0 254 -118.333 254 -355
c2.66699 -149.333 0.5 -234.166 -6.5 -254.499s-23 -42.5 -48 -66.5s-53.167 -36 -84.5 -36h-369c-48.667 0 -78.667 54.667 -90 164c-3.33301 32 -7.16602 63 -11.499 93s-26.5 67.333 -66.5 112c-36.667 -161.333 -117.667 -242 -243 -242
c-64.667 0 -115.334 24.333 -152.001 73s-55 100.667 -55 156c0 147.333 79 221 237 221c18 0 65.667 -8.66699 143 -26l87 156h123l-49 -101l-42 -86c27.333 -40.667 62 -89.667 104 -147c21.333 -24 40.666 -97 57.999 -219h152l5 62zM1167 -293.004
c0 88 -42.667 132 -128 132s-128 -44 -128 -132s42.667 -132 128 -132s128 44 128 132zM502.997 -339.004c-49.333 28 -90.667 42 -124 42c-36 0 -65 -13.167 -87 -39.5s-33 -53.5 -33 -81.5c0 -74 36 -111 108 -111c60 0 105.333 63.333 136 190z" />
    <glyph glyph-name="uni0E11" unicode="&#xe11;" horiz-adv-x="2154" 
d="M504 1040l114.005 44.999c16.667 -35.333 25 -77.666 25 -126.999c0 -174 -70.333 -261 -211 -261c-99.333 0 -175.833 43.167 -229.5 129.5s-80.5 186.5 -80.5 300.5c0 128 40.667 245.167 122 351.5s140.666 159.5 177.999 159.5c26 0 61 -46.333 105 -139l59 -94
l55 85c48.667 101.333 84.334 152 107.001 152c110 0 204.833 -32.333 284.5 -97s124.167 -213.334 133.5 -446.001c2 -54.667 6.66699 -98.667 14 -132c53.333 273.333 111.666 453.5 174.999 540.5s149.666 130.5 258.999 130.5c251.333 0 377 -172 377 -516v-1122h-312
v1180c0 190.667 -39 286 -117 286c-126.667 0 -251.334 -401.333 -374.001 -1204c-16 -103.333 -31 -190.666 -45 -261.999h-320l-1 1169c-2.66699 143.333 -29.667 215 -81 215c-14.667 0 -40.334 -31 -77.001 -93c-24 -40.667 -54.333 -80.667 -91 -120l-83 121
c-40 58 -68 87 -84 87c-30.667 1.33301 -61.834 -29.167 -93.501 -91.5s-47.5 -120.833 -47.5 -175.5c0 -70 15.667 -132.167 47 -186.5s69.333 -81.5 114 -81.5c56.667 0 85 34.667 85 104c5.33301 21.333 3 52 -7 92z" />
    <glyph glyph-name="uni0E12" unicode="&#xe12;" horiz-adv-x="2298" 
d="M700 779l-102.996 0.00195312c-16 33.333 -24 78 -24 134c0 58.667 25.167 107.5 75.5 146.5s107.166 58.5 170.499 58.5c161.333 0 242 -86 242 -258c0 -65.333 -15.333 -123.5 -46 -174.5s-106.667 -136.833 -228 -257.5c-96 -95.333 -144 -163 -144 -203v-225h-344
v451c0 78 -29 176.333 -87 295c-59.333 121.333 -89 225 -89 311c0 92 23 178 69 258s112.667 154.5 200 223.5s172.333 103.5 255 103.5c16.667 0 58.667 -50.667 126 -152l75 -106l134 207c20 31.333 39.333 47 58 47c65.333 0 165.666 -50 300.999 -150
s203 -209.667 203 -329v-606c93.333 -14.667 180.666 -43.334 261.999 -86.001l1 947c44.667 67.333 122.667 140.333 234 219l90 1l3 -1634h-168c-152.667 270.667 -289.334 406 -410.001 406v-70c0 -224 -88.667 -336 -266 -336c-64.667 0 -127.5 25.5 -188.5 76.5
s-91.5 115.5 -91.5 193.5c0 143.333 67 237.666 201 282.999v684c0.666992 36 -16.5 76.333 -51.5 121s-73.5 67 -115.5 67c-27.333 0 -68 -43.667 -122 -131l-79 -111l-66 90c-62.667 90 -104.667 135.333 -126 136c-38 0 -85.667 -39.833 -143 -119.5
s-86 -159.834 -86 -240.501c0 -223.333 72.333 -403.666 217 -540.999c29.333 20 76.333 65.667 141 137c56 83.333 84 144 84 182c0 90.667 -35.333 136 -106 136c-28 0 -49 -16.333 -63 -49c-6.66699 -38.667 -5 -83.667 5 -135zM1221 142.002l-0.000976562 264.001
c-41.333 0 -69.666 -8 -84.999 -24s-23 -49 -23 -99c0 -50.667 9 -87.834 27 -111.501s45 -33.5 81 -29.5z" />
    <glyph glyph-name="uni0E13" unicode="&#xe13;" horiz-adv-x="2224" 
d="M1393 0l-312 0.000976562v1090c0 100 -38.333 185 -115 255s-170.667 105 -282 105c-78.667 0 -153.334 -19.667 -224.001 -59s-123 -109.666 -157 -210.999h475v-131h-180v-512c96.667 0 159.834 -3.33301 189.501 -10s63.167 -33.334 100.5 -80.001s56 -104 56 -172
c0 -73.333 -25.667 -138.166 -77 -194.499s-122 -84.5 -212 -84.5c-256.667 0 -385 168 -385 504v549h-147c0 96.667 24.167 188 72.5 274s118.5 160 210.5 222s213.333 93 364 93c176.667 0 328 -51.5 454 -154.5s189 -216.5 189 -340.5v-694
c114 55.333 219.333 96.666 316 123.999v779c82 123.333 155.667 218.666 221 285.999h110v-999l-45 -139c74.667 -77.333 112 -166.666 112 -267.999c0 -71.333 -23.333 -133.833 -70 -187.5s-103 -80.5 -169 -80.5c-178 -0.666992 -268 85.666 -270 258.999
c0 83.333 -12.333 125 -37 125c-36 0 -84 -81.333 -144 -244zM840 265.001c0 38 -13.167 73.833 -39.5 107.5s-62.833 50.5 -109.5 50.5c-47.333 0 -84.5 -16.333 -111.5 -49s-40.5 -68 -40.5 -106c0 -40.667 15 -75.667 45 -105s65.667 -44 107 -44
c35.333 0 69 12.833 101 38.5s48 61.5 48 107.5zM2020 224.001c0 42.667 -14.333 79.667 -43 111s-64 47 -106 47c-42.667 0 -78.667 -15.167 -108 -45.5s-44 -66.833 -44 -109.5c0 -35.333 13.333 -69 40 -101s64 -48 112 -48c35.333 0 69 12.833 101 38.5
s48 61.5 48 107.5z" />
    <glyph glyph-name="uni0E14" unicode="&#xe14;" horiz-adv-x="1683" 
d="M672 759l-116.999 -1.00098c-6.66699 22.667 -10 52.667 -10 90c0 161.333 82 242 246 242c64 0 118.833 -23 164.5 -69s68.5 -101 68.5 -165c0 -141.333 -71 -271 -213 -389c-76 -63.333 -129.167 -109.5 -159.5 -138.5s-45.5 -71.5 -45.5 -127.5v-201h-319v369
c0 84 -28.333 191 -85 321c-52.667 121.333 -79 221.666 -79 300.999c0 182 68.667 335.333 206 460s302 187 494 187c176.667 0 337 -39.5 481 -118.5s216 -197.833 216 -356.5v-1163h-324v1155c0 98.667 -42.5 175.834 -127.5 231.501s-184.5 83.5 -298.5 83.5
c-98.667 0 -191.667 -38.5 -279 -115.5s-131 -178.833 -131 -305.5c0 -72 24.167 -171.667 72.5 -299s95.166 -221.666 140.499 -282.999c31.333 16.667 84 66 158 148c66.667 104 100 174.667 100 212c0 68.667 -31 103 -93 103c-49.333 0 -74 -27.333 -74 -82
c0 -14 1.33301 -32.167 4 -54.5s4 -33.833 4 -34.5z" />
    <glyph glyph-name="uni0E15" unicode="&#xe15;" horiz-adv-x="1712" 
d="M831 1224c-81.333 137.333 -145.667 205.999 -193 205.999c-61.333 0 -117.5 -39.333 -168.5 -118s-75.5 -157 -73.5 -235c0 -73.333 22.5 -166.5 67.5 -279.5s88.167 -193.167 129.5 -240.5c30.667 11.333 78.667 46 144 104c56.667 74.667 85 133.667 85 177
c0 94 -26 141 -78 141c-51.333 0 -77 -43.667 -77 -131h-101c-6 72.667 -2.66699 127 10 163s39.167 69.667 79.5 101s91.833 47 154.5 47c42.667 0 80.5 -9.83301 113.5 -29.5s59.167 -46 78.5 -79s29 -70.5 29 -112.5c0 -112 -73.333 -245 -220 -399
c-142.667 -150 -214 -262.667 -214 -338v-201h-307v369c0 56 -28.333 160 -85 312c-55.333 150.667 -83 253.334 -83 308.001c-2 200 46.5 358.167 145.5 474.5s223.833 174.5 374.5 174.5c7.33301 0 71.666 -56 192.999 -168c76.667 114.667 128.334 172 155.001 172
c164.667 0 298.667 -40.5 402 -121.5s155 -182.167 155 -303.5v-1217h-327v1159c0 53.333 -14 112 -42 176s-71.333 95.667 -130 95c-72 0 -144.333 -68.667 -217 -206z" />
    <glyph glyph-name="uni0E16" unicode="&#xe16;" horiz-adv-x="1630" 
d="M1139 0v1188c0 59.333 -13.833 108 -41.5 146s-73.5 68.833 -137.5 92.5s-139.667 35.5 -227 35.5c-232.667 0 -364.667 -86 -396 -258h441v-147h-180v-492l86 8c85.333 0 153.833 -23.833 205.5 -71.5s77.5 -112.167 77.5 -193.5c0 -84 -30.667 -156.333 -92 -217
s-134.666 -91 -219.999 -91c-256.667 0 -385 166.667 -385 500v557h-147c0 124 54.5 251.833 163.5 383.5s272.833 197.5 491.5 197.5c124 0 234.5 -15 331.5 -45s180.667 -74.833 251 -134.5s105.5 -132.167 105.5 -217.5v-971c0 -47.333 -28.833 -104.166 -86.5 -170.499
s-96.834 -99.5 -117.501 -99.5h-123zM844 300.999c0 44.667 -15 83.167 -45 115.5s-67 48.5 -111 48.5c-43.333 0 -80 -15.833 -110 -47.5s-45 -69.5 -45 -113.5c0 -37.333 14 -73 42 -107s66.667 -51 116 -51c42 0 78 15.167 108 45.5s45 66.833 45 109.5z" />
    <glyph glyph-name="uni0E17" unicode="&#xe17;" horiz-adv-x="1831" 
d="M1665 0l-324.002 0.000976562v1262c0 133.333 -43.667 200 -131 200c-64.667 0 -109.5 -40.833 -134.5 -122.5s-93.5 -388.167 -205.5 -919.5c-54 -266 -85.333 -406 -94 -420h-323v1095c-34 -4 -58 -6 -72 -6c-173.333 0 -260 87.667 -260 263
c0 85.333 30.667 154.333 92 207s140 79 236 79c92.667 0 166.334 -22.5 221.001 -67.5s89.834 -120.333 105.501 -226s30.834 -219.167 45.501 -340.5l49 145c28 125.333 52.667 216.166 74 272.499s60.666 106.333 117.999 150s127 65.5 209 65.5
c132 0 230.667 -37.667 296 -113s98 -160 98 -254v-1270zM530.998 1347c0 42 -15.001 77.833 -45.001 107.5s-66 44.5 -108 44.5c-37.333 0 -72.333 -13.333 -105 -40s-49 -64 -49 -112c0 -36.667 13.5 -71.334 40.5 -104.001s64.833 -49 113.5 -49
c28.667 0 54.334 7 77.001 21s41 32.333 55 55s21 48.334 21 77.001z" />
    <glyph glyph-name="uni0E18" unicode="&#xe18;" horiz-adv-x="1569" 
d="M1044 0l-843.001 -0.000976562v164h221v889l-299 45c8 112.667 46.833 230.834 116.5 354.501s168.834 185.5 297.501 185.5c62.667 0 153.667 -20.333 273 -61c120 -40.667 203.667 -61 251 -61c112 0 195.333 30 250 90h94c0 -70 -36.833 -148.333 -110.5 -235
s-151.5 -130 -233.5 -130c-48 0 -130.667 37.333 -248 112c-122.667 78 -210.667 117 -264 117c0 -16 32.667 -55.333 98 -118l103 -99v-114l602 -148v-733c0 -60 -27.5 -118 -82.5 -174s-130.167 -84 -225.5 -84zM257.999 1217l164 -29v252c-37.333 0 -74 -28.5 -110 -85.5
s-54 -102.833 -54 -137.5zM749.999 982.999v-819h106c73.333 0 118.333 10.333 135 31s25 48.667 25 84v647z" />
    <glyph glyph-name="uni0E19" unicode="&#xe19;" horiz-adv-x="1884" 
d="M1335 474c-54 -1.33301 -106.17 -3.66406 -156.503 -6.99707s-102.833 -17.333 -157.5 -42s-101.5 -56 -140.5 -94s-67.5 -82 -85.5 -132v-199h-328v1100c-38 -8.66699 -79.667 -13 -125 -13c-60.667 0 -111.5 24.167 -152.5 72.5s-61.5 111.833 -61.5 190.5
c0 92.667 32.333 164.5 97 215.5s134.334 76.5 209.001 76.5c102 0 187.667 -37.333 257 -112s104 -161.334 104 -260.001v-832c38.667 31.333 99.667 70.666 183 117.999c90.667 33.333 165.667 50 225 50h132v729c0 18 29.333 69 88 153s109.334 132.667 152.001 146h96
v-905c0 -55.333 -10.667 -106 -32 -152c-7.33301 -16 -15.666 -36.333 -24.999 -61c79.333 -68 117.333 -160 114 -276c0 -74.667 -26.667 -133.334 -80 -176.001s-110 -64 -170 -64c-61.333 0 -119.5 21 -174.5 63s-82.5 100 -82.5 174c0 116 38 195 114 237zM541.997 1345
c2.66699 48.667 -9.50098 88.167 -36.501 118.5s-63.5 45.5 -109.5 45.5c-49.333 0 -89.666 -14.833 -120.999 -44.5s-47 -66.5 -47 -110.5c4 -97.333 51.667 -150.333 143 -159c112 10.667 169 60.667 171 150zM1475 412.002c-41.333 0 -75.501 -17.166 -102.501 -51.499
s-40.5 -73.5 -40.5 -117.5c0 -38.667 15.167 -70.834 45.5 -96.501s65.833 -38.5 106.5 -38.5c46 0 82 15.667 108 47s39 64.333 39 99c0 43.333 -15.167 80.5 -45.5 111.5s-67.166 46.5 -110.499 46.5z" />
    <glyph glyph-name="uni0E1A" unicode="&#xe1a;" horiz-adv-x="1810" 
d="M332 0l0.000976562 184h131v916l-92 -5c-83.333 0 -145.5 27.333 -186.5 82s-61.5 118.334 -61.5 191.001c0 81.333 30 146.666 90 195.999s137.667 74 233 74c94 0 175 -32.167 243 -96.5s102 -142.5 102 -234.5v-1123h335c77.333 0 128.166 6.33301 152.499 19
s36.5 70.667 36.5 174v1261h332v-1331c0 -46.667 -16.333 -94.167 -49 -142.5s-77.167 -87.833 -133.5 -118.5s-140.5 -46 -252.5 -46h-880zM527.001 1347c0 34.667 -12.668 67.667 -38.001 99s-60.666 47 -105.999 47c-40 0 -74.167 -14.333 -102.5 -43
s-42.5 -63 -42.5 -103c0 -40.667 14.167 -75.334 42.5 -104.001s62.5 -43 102.5 -43s74 14.333 102 43s42 63.334 42 104.001z" />
    <glyph glyph-name="uni0E1B" unicode="&#xe1b;" horiz-adv-x="1819" 
d="M365 0v182.999h98v917c-37.333 -5.33301 -85 -5.33301 -143 0c-55.333 4 -101.666 30 -138.999 78s-56 108.333 -56 181c0 82.667 29 149.834 87 201.501s136 77.5 234 77.5c94 0 175 -32.167 243 -96.5s102 -142.5 102 -234.5v-1124h335c138.667 -6 207 58.667 205 194
v2031c0 28 25.167 81.833 75.5 161.5s85.166 121.5 104.499 125.5h144v-2388c0 -62.667 -35.333 -129.5 -106 -200.5s-183 -106.5 -337 -106.5h-847zM527 1347c0 34.667 -12.668 67.667 -38.001 99s-60.666 47 -105.999 47c-40 0 -74.167 -14.333 -102.5 -43
s-42.5 -63 -42.5 -103c0 -40.667 14.167 -75.334 42.5 -104.001s62.5 -43 102.5 -43s74 14.333 102 43s42 63.334 42 104.001z" />
    <glyph glyph-name="uni0E1C" unicode="&#xe1c;" horiz-adv-x="1696" 
d="M1200 0l0.000976562 197l-377 594l-372 -590v-201h-328v1204c0 78 15.667 148.167 47 210.5s77 115 137 158s122 64.5 186 64.5c86 0 160.667 -27.667 224 -83s95 -124.333 95 -207s-26.333 -150.5 -79 -203.5s-107.334 -79.5 -164.001 -79.5
c-48.667 0 -88 2.33301 -118 7v-612l372 573l377 -573v1179h332v-1278c0 -80 -29.333 -159.5 -88 -238.5s-99 -119.5 -121 -121.5h-123zM679.001 1344c0 48 -16.167 85.333 -48.5 112s-66.5 40 -102.5 40c-47.333 0 -84.333 -16.167 -111 -48.5s-40 -66.833 -40 -103.5
c0 -42 14.667 -78 44 -108s65 -45 107 -45c41.333 0 76.833 15 106.5 45s44.5 66 44.5 108z" />
    <glyph glyph-name="uni0E1D" unicode="&#xe1d;" horiz-adv-x="1696" 
d="M1315 0h-115.001v197l-377 594l-372 -590v-201h-328v1204c0 118.667 36.5 219.834 109.5 303.501s165.5 125.5 277.5 125.5c71.333 0 139.333 -25.333 204 -76s97 -120.334 97 -209.001c0 -75.333 -24.833 -141 -74.5 -197s-110.167 -84 -181.5 -84
c-25.333 0 -60 1.33301 -104 4v-612l372 573l377 -573v1921c0 30 25.833 72.333 77.5 127s107.834 98 168.501 130l86 1v-2278c0 -120 -72.333 -240 -217 -360zM678.999 1344c0 48 -16.167 85.333 -48.5 112s-66.5 40 -102.5 40c-47.333 0 -84.333 -16.167 -111 -48.5
s-40 -66.833 -40 -103.5c0 -42 14.667 -78 44 -108s65 -45 107 -45c41.333 0 76.833 15 106.5 45s44.5 66 44.5 108z" />
    <glyph glyph-name="uni0E1E" unicode="&#xe1e;" horiz-adv-x="2023" 
d="M1860 1l-316.001 0.00292969l-377 1416l-372 -1416h-328v1113c-44 -6.66699 -78.333 -10 -103 -10c-77.333 1.33301 -138.166 25.666 -182.499 72.999s-64.5 108.666 -60.5 183.999c0 83.333 32 150.166 96 200.499s134.333 75.5 211 75.5
c114 0 203.667 -32.167 269 -96.5s98 -139.5 98 -225.5v-733l303 1056h123l319 -1056v1056h320v-1637zM525.999 1355c0 42.667 -14.667 78.834 -44 108.501s-65 44.5 -107 44.5c-41.333 0 -76.666 -14.833 -105.999 -44.5s-44 -65.834 -44 -108.501
c0 -36.667 13.167 -71.167 39.5 -103.5s63.166 -48.5 110.499 -48.5c42 0 77.667 14.833 107 44.5s44 65.5 44 107.5z" />
    <glyph glyph-name="uni0E1F" unicode="&#xe1f;" horiz-adv-x="2023" 
d="M1834 2633l-0.000976562 -2633h-315l-377 1425l-373 -1425h-328v1104c-89.333 0 -149 4.66699 -179 14s-62 35 -96 77s-51 94 -51 156c0 80 28 148.167 84 204.5s124 84.5 204 84.5c108.667 0 196.834 -31.333 264.501 -94s101.5 -137 101.5 -223v-733l303 1048h123
l320 -1048v1798c0 68 81.333 150.333 244 247zM520.999 1355c0 42.667 -14.667 78.834 -44 108.501s-65 44.5 -107 44.5c-41.333 0 -76.666 -14.833 -105.999 -44.5s-44 -65.834 -44 -108.501c0 -36.667 13.167 -71.167 39.5 -103.5s63.166 -48.5 110.499 -48.5
c42 0 77.667 14.833 107 44.5s44 65.5 44 107.5z" />
    <glyph glyph-name="uni0E20" unicode="&#xe20;" horiz-adv-x="1774" 
d="M1397 0l-115 0.00195312v1176c0 90.667 -37.333 161 -112 211s-156 75 -244 75c-64 0 -123 -9.66699 -177 -29s-100.5 -46.166 -139.5 -80.499s-67.5 -83.833 -85.5 -148.5h447v-147h-180l-1 -645c0 -89.333 -15.833 -165 -47.5 -227s-72.5 -108.333 -122.5 -139
s-124.333 -46 -223 -46c-84.667 0 -151.334 30.5 -200.001 91.5s-73 126.167 -73 195.5c0 48 11.167 91.5 33.5 130.5s50.5 70.667 84.5 95s61.333 38.666 82 42.999s67.334 6.5 140.001 6.5l1 496l-121 -1c0 152 53.833 286.833 161.5 404.5s258.5 176.5 452.5 176.5
c110.667 0 211.167 -17.333 301.5 -52s171.333 -89.334 243 -164.001s107.5 -158.334 107.5 -251.001v-905c0 -39.333 -71 -128 -213 -266zM558 294.002c0 47.333 -16.5 84.333 -49.5 111s-68.5 40 -106.5 40c-37.333 0 -72.5 -13.333 -105.5 -40s-49.5 -63.667 -49.5 -111
c0 -42.667 15.167 -79 45.5 -109s66.833 -45 109.5 -45c38 0 73.5 13.5 106.5 40.5s49.5 64.833 49.5 113.5z" />
    <glyph glyph-name="uni0E21" unicode="&#xe21;" horiz-adv-x="1782" 
d="M803 645c78 -42 149.335 -87.6689 214.002 -137.002l154 -117c38 -28.667 66.667 -43 86 -43c22 0 33 17.667 33 53v979c0 58.667 18.833 113 56.5 163s84.5 81.667 140.5 95h131v-1392c0 -46 -11 -87.333 -33 -124s-51.333 -66.167 -88 -88.5
s-78.334 -33.5 -125.001 -33.5c-34 0 -119 79 -255 237c-118.667 138.667 -225 231.334 -319 278.001c0 -150 -8.5 -253.167 -25.5 -309.5s-48.167 -104.666 -93.5 -144.999s-101 -60.5 -167 -60.5c-88.667 -0 -165.5 33.333 -230.5 100s-97.5 145.334 -97.5 236.001
c0 73.333 25.167 145 75.5 215s110.833 105 181.5 105l34 -1v442c-42 -11.333 -75 -17 -99 -17c-83.333 0 -147 24.167 -191 72.5s-64.333 114.166 -61 197.499c0 86.667 34.667 157 104 211s140.666 79.667 213.999 77c91.333 0 174.333 -29.667 249 -89s112 -147 112 -263
v-641zM531.002 1345c0 42.667 -15 78.5 -45 107.5s-66.667 43.5 -110 43.5c-37.333 0 -72.5 -13.167 -105.5 -39.5s-49.5 -63.5 -49.5 -111.5c0 -42 15.167 -78 45.5 -108s66.833 -45 109.5 -45s79.167 15 109.5 45s45.5 66 45.5 108zM475.002 534.998h-40
c-29.333 0 -54.833 -22.167 -76.5 -66.5s-32.5 -89.5 -32.5 -135.5c0 -38 11 -75.167 33 -111.5s46.333 -54.5 73 -54.5h43v368z" />
    <glyph glyph-name="uni0E22" unicode="&#xe22;" horiz-adv-x="1516" 
d="M262 795l-49.001 63.002c-44.667 52 -70.834 85.667 -78.501 101s-11.5 38.333 -11.5 69v291c0 90 35.667 165.667 107 227s157 92 257 92c82.667 0 158 -24.833 226 -74.5s102 -123.167 102 -220.5c0 -78 -23.667 -141.833 -71 -191.5s-111 -74.5 -191 -74.5
c-38.667 0 -79.667 4.66699 -123 14v-137c0 -36 12.333 -61.167 37 -75.5s105.334 -35.5 242.001 -63.5v-94c-40.667 -7.33301 -103.667 -26.333 -189 -57c-60 -32 -90 -76 -90 -132v-208c0 -50.667 27.833 -91.334 83.5 -122.001s119.167 -46 190.5 -46
c85.333 0 160 17.5 224 52.5s96 87.167 96 156.5v970c0 40 9.5 80 28.5 120s44.833 77.167 77.5 111.5s76.334 59.166 131.001 74.499h91v-1346c0 -70.667 -26 -137.5 -78 -200.5s-134 -94.5 -246 -94.5h-606c-96 0 -172.667 33 -230 99s-86 136.667 -86 212v242
c0 54 34.667 115 104 183zM689.999 1342c0 42.667 -15 78.5 -45 107.5s-66.667 43.5 -110 43.5s-80 -14.5 -110 -43.5s-45 -64.833 -45 -107.5c0 -42 15.167 -78 45.5 -108s66.833 -45 109.5 -45s79.167 15 109.5 45s45.5 66 45.5 108z" />
    <glyph glyph-name="uni0E23" unicode="&#xe23;" horiz-adv-x="1430" 
d="M400 1306c176 -28 273.999 -45.3311 293.999 -51.998c2 -0.666992 78 -22.334 228 -65.001c166 -47.333 249 -128.333 249 -243v-659c0 -81.333 -32.167 -149.5 -96.5 -204.5s-142.5 -82.5 -234.5 -82.5c-109.333 0 -192 26 -248 78s-84 118.667 -84 200
c0 70.667 25.333 130.834 76 180.501s111.334 74.5 182.001 74.5c15.333 0 40.666 -2 75.999 -6l2 403c0 44 -20.667 77.667 -62 101s-127.333 45.666 -258 66.999l-247 38c-89.333 13.333 -137.333 22.666 -144 27.999s-10 16 -10 32c0 78 58.333 171.167 175 279.5
s244 162.5 382 162.5c39.333 0 95 -16.333 167 -49s127 -49 165 -49c27.333 0 111 16.333 251 49c6.66699 -1.33301 10.334 -5.33301 11.001 -12c0 -56.667 -37.667 -112.5 -113 -167.5s-147 -82.5 -215 -82.5c-47.333 0 -107.333 16 -180 48
c-98 43.333 -161.667 65 -191 65c-72 0 -130.333 -44.667 -175 -134zM920.999 278.002c0 47.333 -16.5 84.333 -49.5 111s-68.167 40 -105.5 40c-43.333 0 -80 -14.667 -110 -44s-45 -65 -45 -107c0 -42.667 15 -79 45 -109s66.667 -45 110 -45
c37.333 0 72.5 13.5 105.5 40.5s49.5 64.833 49.5 113.5z" />
    <glyph glyph-name="uni0E24" unicode="&#xe24;" horiz-adv-x="1585" 
d="M1421 -881l-327 -0.00292969v2069c0 54.667 -13 100.334 -39 137.001s-70.167 69.334 -132.5 98.001s-133.5 43 -213.5 43c-236.667 0 -365 -86 -385 -258h430v-143h-181v-496c28.667 6 57.334 9 86.001 9c191.333 0.666992 285.666 -88 282.999 -266
c0 -77.333 -26.333 -148.5 -79 -213.5s-130.667 -97.5 -234 -97.5c-255.333 0 -383 167.667 -383 503v565h-123c0 379.333 206 569 618 569c204 0 368.333 -47.667 493 -143s187 -197.666 187 -306.999v-2069zM822 308.997c0 42.667 -15 78.5 -45 107.5
s-66.667 43.5 -110 43.5c-37.333 0 -72.5 -13.167 -105.5 -39.5s-49.5 -63.5 -49.5 -111.5c0 -42 15.167 -78 45.5 -108s66.833 -45 109.5 -45s79.167 15 109.5 45s45.5 66 45.5 108z" />
    <glyph glyph-name="uni0E25" unicode="&#xe25;" horiz-adv-x="1569" 
d="M1405 0h-327.998v885c0 65.333 -26.167 125.333 -78.5 180s-117.833 82 -196.5 82c-58.667 0 -109.334 -23.833 -152.001 -71.5s-64 -103.167 -64 -166.5l1 -370c41.333 11.333 86.333 15.666 135 12.999c86.667 -8 147.5 -37.333 182.5 -88s52.5 -107 52.5 -169
c0 -84 -32.167 -154.167 -96.5 -210.5s-142.166 -84.5 -233.499 -84.5c-90 0 -174 30.333 -252 91s-117 145 -117 253v574c0 103.333 51 190.333 153 261s197.333 106 286 106c166.667 0 288.667 -29.333 366 -88c-12 196 -148 294 -408 294
c-72 0 -135.333 -8.33301 -190 -25s-145.334 -82.667 -272.001 -198l-76 79c42 50 126 120.333 252 211c97.333 54 206.666 80.667 327.999 80c192 0 358 -37.167 498 -111.5s210 -194.166 210 -359.499v-1167zM823.002 300c0 47.333 -16.5 84.333 -49.5 111
s-68.5 40 -106.5 40c-37.333 0 -72.5 -13.333 -105.5 -40s-49.5 -63.667 -49.5 -111c0 -48.667 16.5 -86.5 49.5 -113.5s68.167 -40.5 105.5 -40.5c38 0 73.5 13.5 106.5 40.5s49.5 64.833 49.5 113.5z" />
    <glyph glyph-name="uni0E26" unicode="&#xe26;" horiz-adv-x="1790" 
d="M1622 -840l-328.004 -0.000976562v2016c0 57.333 -14.167 105.333 -42.5 144s-70.166 72 -125.499 100s-118 42 -188 42c-226 0 -359.667 -86 -401 -258h446v-147h-180v-660c0 -82.667 -20 -158.5 -60 -227.5s-85.667 -114.333 -137 -136s-114 -32.5 -188 -32.5
c-76 0 -144.167 24.167 -204.5 72.5s-90.5 122.833 -90.5 223.5c0 62 17.333 115.333 52 160s69.834 73.834 105.501 87.501s86.834 20.167 153.501 19.5l41 1v492h-119c0 162.667 53.333 300.167 160 412.5s258.334 168.5 455.001 168.5c206 0 366 -47.167 480 -141.5
s171 -202.833 171 -325.5v-2011zM573.996 304.999c0 41.333 -16.333 75.5 -49 102.5s-71 40.5 -115 40.5c-36.667 0 -71.167 -12.667 -103.5 -38s-48.5 -60.333 -48.5 -105c0 -45.333 15 -84.166 45 -116.499s67 -48.5 111 -48.5c44.667 0 82.5 16.167 113.5 48.5
s46.5 71.166 46.5 116.499z" />
    <glyph glyph-name="uni0E27" unicode="&#xe27;" horiz-adv-x="1475" 
d="M983 562v686.999c0 153.333 -120 230 -360 230c-120 0 -269 -72.333 -447 -217l-63 106c202 180 410 270 624 270c168 0 305.667 -37.833 413 -113.5s161 -171.5 161 -287.5v-889c0 -106 -40 -190.5 -120 -253.5s-163.667 -94.5 -251 -94.5
c-84 0 -161.333 26.833 -232 80.5s-106 131.834 -106 234.501c0 172.667 93 259 279 259c20.667 0 54.667 -4 102 -12zM1033 305.999c0 42 -15.166 77.499 -45.499 106.499s-66.833 43.5 -109.5 43.5c-38 0 -73.5 -13.167 -106.5 -39.5s-49.5 -63.166 -49.5 -110.499
c0 -42.667 15.167 -79 45.5 -109s67.166 -45 110.499 -45c37.333 0 72.5 13.5 105.5 40.5s49.5 64.833 49.5 113.5z" />
    <glyph glyph-name="uni0E28" unicode="&#xe28;" horiz-adv-x="1708" 
d="M1544 1638c-28 -112.667 -71.667 -221.667 -131 -327c35.333 -70.667 53 -144.334 53 -221.001v-1090h-327v1044c-70 -41.333 -126 -70 -168 -86c2 -70.667 -13.167 -128.667 -45.5 -174s-68.166 -75.166 -107.499 -89.499s-103 -21.5 -191 -21.5v-673h-328v664
c0 44.667 -28.333 106 -85 184c-60.667 84 -91 161.667 -91 233c0 172.667 68.167 308.667 204.5 408s289.166 149 458.499 149c183.333 0 340.333 -50.333 471 -151c23.333 50 44 100.333 62 151h225zM1105 1235c-73.333 152.667 -194.331 228.999 -362.998 228.999
c-154.667 0 -268 -37.167 -340 -111.5s-108 -163.166 -108 -266.499c0 -25.333 13.667 -65.333 41 -120c7.33301 40.667 23.166 81.167 47.499 121.5s51.5 74.5 81.5 102.5s92.333 42 187 42c123.333 0 216.333 -51.667 279 -155c67.333 51.333 125.666 104 174.999 158z
M846.002 937.999c0 49.333 -17 87.833 -51 115.5s-70.333 41.5 -109 41.5c-44 0 -81.667 -15.333 -113 -46s-47 -67.667 -47 -111s15.667 -80.333 47 -111s69 -46 113 -46c38.667 0 75 13.833 109 41.5s51 66.167 51 115.5z" />
    <glyph glyph-name="uni0E29" unicode="&#xe29;" horiz-adv-x="1810" 
d="M332 0v164h131v936c-38 -4 -64.667 -6 -80 -6c-174 6.66699 -260.667 98 -260 274c0 90 33 157.5 99 202.5s140.667 67.5 224 67.5c94 0 175 -32.167 243 -96.5s102 -142.5 102 -234.5v-336c62.667 48.667 124 73 184 73c97.333 0 175 -54.333 233 -163l-102 -82
c-46.667 60 -91.667 90 -135 90c-57.333 0 -86 -30 -86 -90c0 -90 53 -135 159 -135c114 0 204.333 61.333 271 184v500c0 54 21.667 109.833 65 167.5s84.333 98.5 123 122.5h144v-1331c0 -83.333 -38.5 -155.333 -115.5 -216s-158.833 -91 -245.5 -91h-954zM544 1357
c0 42 -15.168 77.667 -45.501 107s-67.166 44 -110.499 44c-37.333 0 -72.5 -13.333 -105.5 -40s-49.5 -63.667 -49.5 -111c0 -48.667 16.5 -86.5 49.5 -113.5s68.167 -40.5 105.5 -40.5c38 0 73.5 13.5 106.5 40.5s49.5 64.833 49.5 113.5zM1315 377v241
c-102.667 -76 -190 -114 -262 -114c-96.667 0 -184 28.667 -262 86v-426h335c88 0 141.5 15 160.5 45s28.5 86 28.5 168z" />
    <glyph glyph-name="uni0E2A" unicode="&#xe2a;" horiz-adv-x="1720" 
d="M1679 1638l-1.99805 -37.998c-2.66699 -46.667 -26 -105.5 -70 -176.5s-114.333 -123.5 -211 -157.5l12 -166v-1100h-330v934c0 51.333 -27.833 99.166 -83.5 143.499s-118.167 66.5 -187.5 66.5c-64.667 0 -117.667 -21.667 -159 -65s-62 -100 -62 -170v-362
c23.333 10 59 15 107 15c80.667 0 143.834 -29.833 189.501 -89.5s68.5 -121.167 68.5 -184.5c0 -89.333 -31.833 -162.166 -95.5 -218.499s-141.834 -84.5 -234.501 -84.5c-116.667 0 -206.334 35.333 -269.001 106s-94 155 -94 253v574
c0 109.333 49.333 198.666 148 267.999s202.334 104 311.001 104c129.333 0 251.666 -36.667 366.999 -110c-48.667 207.333 -191.667 311 -429 311c-202.667 0 -355.334 -76.333 -458.001 -229l-77 70c156.667 206 353 309 589 309c278.667 0 488.667 -84 630 -252
c49.333 61.333 74 127.666 74 198.999v50h266zM820.002 286.002c0 48 -16.333 85.167 -49 111.5s-68 39.5 -106 39.5c-37.333 0 -72.5 -13.167 -105.5 -39.5s-49.5 -63.5 -49.5 -111.5c0 -42 15.167 -78.167 45.5 -108.5s66.833 -45.5 109.5 -45.5s79.167 15.167 109.5 45.5
s45.5 66.5 45.5 108.5z" />
    <glyph glyph-name="uni0E2B" unicode="&#xe2b;" horiz-adv-x="1892" 
d="M1585 1149c10.667 -30 32.001 -76.332 64.001 -138.999c31.333 -46 47 -85 47 -117v-893h-328v1008c0 32.667 -23.333 49 -70 49c-76.667 0 -178.334 -74.667 -305.001 -224s-190 -255 -190 -317v-516h-328v1079c-55.333 -6.66699 -93.666 -10 -114.999 -10
c-76.667 0 -135.334 27.167 -176.001 81.5s-61 120.166 -61 197.499c0 90.667 32.167 161.667 96.5 213s133.166 77 206.499 77c104 0 192.833 -32 266.5 -96s110.5 -142.333 110.5 -235v-471c165.333 170.667 321 302 467 394c-34.667 42 -52 97.333 -52 166
c0 68 26.667 125.167 80 171.5s116.333 69.5 189 69.5c76.667 0 136.834 -26.667 180.501 -80s65.5 -109.666 65.5 -168.999c0 -114.667 -49.333 -194.334 -148 -239.001zM1637 1390c-8 50 -27.332 86.499 -57.999 109.499s-66.334 34.5 -107.001 34.5
c-36 0 -70.333 -12.667 -103 -38s-49 -60.666 -49 -105.999c0 -44 15 -82.333 45 -115s68.333 -49 115 -49c43.333 0 80.333 16.167 111 48.5s46 70.833 46 115.5zM545.002 1344c-3.33301 50.667 -20.668 87.168 -52.001 109.501s-69 33.5 -113 33.5
c-36.667 0 -71.167 -12.667 -103.5 -38s-48.5 -60.333 -48.5 -105c-0.666992 -54.667 14.333 -95.834 45 -123.501s67.667 -41.5 111 -41.5c50.667 0 91.334 14.5 122.001 43.5s43.667 69.5 39 121.5z" />
    <glyph glyph-name="uni0E2C" unicode="&#xe2c;" horiz-adv-x="2327" 
d="M2163 1638c0 -94.667 -29.834 -181.002 -89.501 -259.002s-122.834 -129.333 -189.501 -154v-1225h-315l-389 1241l-361 -1241h-327v1100c-28 -9.33301 -59.333 -14 -94 -14c-177.333 0 -266 86 -266 258c0 92 30.833 164 92.5 216s143.834 78 246.501 78
c74 0 150.5 -30.167 229.5 -90.5s118.5 -136.166 118.5 -227.499v-742l365 1060l381 -1060v593c-153.333 26 -230 103.667 -230 233c0 62.667 19.833 117.5 59.5 164.5s97.167 70.5 172.5 70.5c138.667 0 222.667 -57.333 252 -172c14.667 2.66699 38 15.334 70 38.001
c20.667 22.667 31.334 67 32.001 133h242zM1712 1413c0 84.667 -44.333 127 -133 127s-133 -42.333 -133 -127c0 -85.333 44.333 -128 133 -128s133 42.667 133 128zM561.999 1352c0 30.667 -7.16602 57.833 -21.499 81.5s-33.333 42.5 -57 56.5s-50.5 21 -80.5 21
c-38 0 -73.833 -14 -107.5 -42s-50.5 -67 -50.5 -117c0 -26.667 6.16699 -51.5 18.5 -74.5s30.666 -42.667 54.999 -59s52.5 -24.5 84.5 -24.5c44 0 81.5 15.5 112.5 46.5s46.5 68.167 46.5 111.5z" />
    <glyph glyph-name="uni0E2D" unicode="&#xe2d;" horiz-adv-x="1569" 
d="M549 739l-0.00292969 -411c0 -117.333 86 -176 258 -176c177.333 0 266 69.333 266 208v721c0 118.667 -38.167 216.667 -114.5 294s-167.833 116 -274.5 116c-169.333 0 -316.333 -61 -441 -183l-75 -71l-53 90c168.667 206.667 374.334 310 617.001 310
c198.667 0 360.5 -59 485.5 -177s187.5 -255 187.5 -411v-537c0 -157.333 -59.333 -282 -178 -374s-264 -138 -436 -138c-172.667 0 -312.167 47.667 -418.5 143s-159.5 206 -159.5 332v459c0 93.333 32.333 174.666 97 243.999s154.334 104 269.001 104
c96.667 0 175.167 -27.667 235.5 -83s90.5 -124.666 90.5 -207.999c0 -79.333 -23.667 -143.833 -71 -193.5s-110.666 -74.5 -189.999 -74.5c-47.333 0 -79 5.33301 -95 16zM792.997 982c0 48 -16.333 85.167 -49 111.5s-68 39.5 -106 39.5s-73.333 -13.167 -106 -39.5
s-49 -63.5 -49 -111.5c0 -42.667 15.167 -79 45.5 -109s66.833 -45 109.5 -45s79.167 15 109.5 45s45.5 66.333 45.5 109z" />
    <glyph glyph-name="uni0E2E" unicode="&#xe2e;" horiz-adv-x="1532" 
d="M1384 1633c-40 -148.667 -82.334 -247.998 -127.001 -297.998c54.667 -70 82 -138.333 82 -205v-614c0 -160.667 -64.167 -286.834 -192.5 -378.501s-268.833 -137.5 -421.5 -137.5c-157.333 0 -297 32.167 -419 96.5s-183 161.833 -183 292.5v246
c0 107.333 40.5 190.833 121.5 250.5s171.833 89.5 272.5 89.5c70.667 0 137.167 -26.167 199.5 -78.5s93.5 -126.833 93.5 -223.5c0 -84 -25.833 -150.333 -77.5 -199s-111.5 -73 -179.5 -73c-24 0 -56.667 4.66699 -98 14v-104c0 -122.667 91.333 -184 274 -184
c84 0 151.5 21.167 202.5 63.5s76.5 100.5 76.5 174.5v794c-132.667 -38 -268 -57 -406 -57c-128.667 0 -238 25.167 -328 75.5s-135 107.166 -135 170.499c0 65.333 58.833 129.333 176.5 192s230.834 94 339.501 94c98.667 0 226.667 -45 384 -135
c29.333 39.333 51 84 65 134h280zM903.999 1347c-82.667 93.333 -190 140.001 -322 140.001c-64 0 -130.833 -16.167 -200.5 -48.5s-104.5 -63.833 -104.5 -94.5s30.833 -57.334 92.5 -80.001s134.5 -34 218.5 -34c156 0 261.333 39 316 117zM695.999 672.003
c0 42 -15.167 77.5 -45.5 106.5s-66.833 43.5 -109.5 43.5c-43.333 0 -80 -14.5 -110 -43.5s-45 -64.5 -45 -106.5c0 -48.667 16.5 -86.5 49.5 -113.5s68.167 -40.5 105.5 -40.5s72.5 13.5 105.5 40.5s49.5 64.833 49.5 113.5z" />
    <glyph glyph-name="uni0E2F" unicode="&#xe2f;" horiz-adv-x="1802" 
d="M808 1274l-1.00098 -164.002c-72 22 -124 33 -156 33c-92.667 0 -139 -41 -139 -123c0 -52 17.667 -97.167 53 -135.5s79 -57.5 131 -57.5c77.333 0 137.5 29.667 180.5 89s77.167 148 102.5 266c40 200 73 326 99 378s69.333 78 130 78h430v-1638h-327v1356
c0 30 -19.333 45 -58 45c-34.667 0 -59.5 -11.5 -74.5 -34.5s-38.167 -92.167 -69.5 -207.5c-33.333 -115.333 -61.5 -202 -84.5 -260s-63.167 -110.333 -120.5 -157s-137.333 -70 -240 -70c-93.333 0 -172.666 34.333 -237.999 103s-98 154.334 -98 257.001
c0 64.667 27 131.334 81 200.001s121 103 201 103c94.667 0 160.667 -20.333 198 -61z" />
    <glyph glyph-name="uni0E30" unicode="&#xe30;" horiz-adv-x="1434" 
d="M1270 1556c0 -149.333 -64.168 -291.665 -192.501 -426.998s-284.166 -203 -467.499 -203c-118 0 -228.5 30 -331.5 90s-154.5 145.667 -154.5 257c0 69.333 24.5 133.666 73.5 192.999s120.167 89 213.5 89c68.667 0 133.167 -22 193.5 -66s90.5 -105 90.5 -183
c0 -82 -20 -140.667 -60 -176c21.333 -5.33301 42 -8 62 -8c53.333 0 117 31.833 191 95.5s116.833 123.667 128.5 180s19.5 109.166 23.5 158.499h230zM565.999 1274c0 50.667 -17.832 90.334 -53.499 119.001s-73.834 43 -114.501 43s-79 -14.333 -115 -43
s-54 -68.334 -54 -119.001c0 -44 16.5 -81.833 49.5 -113.5s72.833 -47.5 119.5 -47.5c40 0 78 14.333 114 43s54 68 54 118zM1272 630.001c0 -148.667 -64.002 -290.833 -192.002 -426.5s-284 -203.5 -468 -203.5c-118 0 -228.5 30 -331.5 90s-154.5 145.667 -154.5 257
c0 79.333 27.167 146 81.5 200s122.833 81 205.5 81c77.333 0 144 -23.833 200 -71.5s84 -106.834 84 -177.501c0 -81.333 -20 -139.666 -60 -174.999c20.667 -5.33301 41 -8 61 -8c48 0 109.333 29 184 87s118.834 118 132.501 180s22.834 117.667 27.501 167h230z
M567.998 348.002c0 44.667 -16.5 82.667 -49.5 114s-72.833 47 -119.5 47c-40.667 0 -78.834 -14.167 -114.501 -42.5s-53.5 -67.833 -53.5 -118.5s17.833 -90.167 53.5 -118.5s73.834 -42.5 114.501 -42.5s79 14.167 115 42.5s54 67.833 54 118.5z" />
    <glyph glyph-name="uni0E31" unicode="&#xe31;" horiz-adv-x="0" 
d="M266 2580c0 -137.333 -63.8311 -289 -191.498 -455s-325.834 -249 -594.501 -249c-173.333 0 -312.333 46.333 -417 139s-157 188.334 -157 287c0 67.333 24.833 132 74.5 194s117.834 93 204.501 93c77.333 0 141.666 -27 192.999 -81s77 -120 77 -198
c0 -77.333 -38.667 -147.333 -116 -210c39.333 -26.667 87.666 -40 144.999 -40c140 0 262.333 46.833 367 140.5s157 220.167 157 379.5h258zM-661.998 2315c0 43.333 -15.3311 80.5 -45.998 111.5s-67.667 46.5 -111 46.5c-44 0 -81.333 -15.5 -112 -46.5
s-46 -68.167 -46 -111.5s15.333 -80.333 46 -111s68 -46 112 -46c29.333 0 55.666 7 78.999 21s42.166 32.833 56.499 56.5s21.5 50.167 21.5 79.5z" />
    <glyph glyph-name="uni0E32" unicode="&#xe32;" horiz-adv-x="1163" 
d="M999 0l-327 0.000976562v1249c0 78 -25.5 137.167 -76.5 177.5s-106.167 60.5 -165.5 60.5c-98 0 -183 -34 -255 -102l-53 64c110 125.333 244.667 188 404 188c130 0 241.167 -32.333 333.5 -97s138.5 -166.334 138.5 -305.001z" />
    <glyph glyph-name="uni0E33" unicode="&#xe33;" horiz-adv-x="1163" 
d="M-934 2156c0 75.333 27.3311 146.333 81.998 213s130.334 100 227.001 100c74 0 143.833 -25.833 209.5 -77.5s98.5 -123.834 98.5 -216.501c0 -99.333 -33.833 -176.833 -101.5 -232.5s-139.5 -83.5 -215.5 -83.5c-97.333 0 -171.666 31.333 -222.999 94
s-77 130.334 -77 203.001zM-625.002 2343c-49.333 0 -90.335 -17.667 -123.002 -53s-49 -76.333 -49 -123c0 -48 17.333 -89.5 52 -124.5s76.334 -52.5 125.001 -52.5c46.667 0 86.5 19 119.5 57s49.5 82 49.5 132c0 49.333 -19.167 89 -57.5 119s-77.166 45 -116.499 45z
M998.996 0l-327 0.000976562v1249c0 78 -25.5 137.167 -76.5 177.5s-106.167 60.5 -165.5 60.5c-98 0 -183 -34 -255 -102l-53 64c110 125.333 244.667 188 404 188c130 0 241.167 -32.333 333.5 -97s138.5 -166.334 138.5 -305.001z" />
    <glyph glyph-name="uni0E34" unicode="&#xe34;" horiz-adv-x="0" 
d="M-188 1809c-350.667 146 -607 219 -769 219c-128.667 0 -252 -4.33301 -370 -13c-70 -6.66699 -144.333 -13 -223 -19c68 392.667 301.667 589 701 589c177.333 0 330.833 -69.5 460.5 -208.5s196.5 -328.167 200.5 -567.5zM-360 2008
c-22.667 65.333 -82.332 146.333 -178.999 243c-100 79.333 -208.333 121.666 -325 127c-92 2.66699 -180 -7.5 -264 -30.5s-162.333 -91.833 -235 -206.5c161.333 17.333 300.666 26 417.999 26c146 -2 341 -55 585 -159z" />
    <glyph glyph-name="uni0E35" unicode="&#xe35;" horiz-adv-x="0" 
d="M-515 2467v264.999h254v-555c38 -96.667 59.667 -165.667 65 -207s8 -95 8 -161c-350.667 146 -607 219 -769 219c-127.333 0 -249 -4.33301 -365 -13c-56.667 -3.33301 -132.667 -9.66602 -228 -18.999c68 392.667 301.667 589 701 589c106 0 217.333 -39.333 334 -118z
M-360 2008c-25.333 62.667 -84.999 143.667 -178.999 243c-101.333 79.333 -214 120.333 -338 123c-94.667 2.66699 -181.167 -9.5 -259.5 -36.5s-153.833 -92.5 -226.5 -196.5c161.333 17.333 300.666 26 417.999 26c148 2.66699 343 -50.333 585 -159z" />
    <glyph glyph-name="uni0E36" unicode="&#xe36;" horiz-adv-x="0" 
d="M-362 2335c116 -160.667 174 -336.001 174 -526.001c-350.667 146 -607 219 -769 219c-128 0 -251.333 -4.33301 -370 -13c-56.667 -3.33301 -131 -9.66602 -223 -18.999c68 392.667 301.667 589 701 589c74.667 0 142 -10 202 -30l-4 30c0 48 19.5 92.667 58.5 134
s93.167 62 162.5 62c60.667 0 116.167 -20.833 166.5 -62.5s75.5 -108.167 75.5 -199.5c0 -95.333 -58 -156.666 -174 -184zM-307 2567c0 71.333 -38.333 107 -115 107c-80 0 -120 -37.333 -120 -112c0 -74 42.667 -111 128 -111c71.333 0 107 38.667 107 116zM-360 2008
c-25.333 62.667 -84.999 143.668 -178.999 243.001c-100 79.333 -204.333 121.666 -313 126.999c-100 8 -195.333 -1.5 -286 -28.5s-165.667 -96.5 -225 -208.5c161.333 17.333 300.666 26 417.999 26c144 -2 339 -55 585 -159z" />
    <glyph glyph-name="uni0E37" unicode="&#xe37;" horiz-adv-x="0" 
d="M-375 2556v317h254v-635c38 -96.667 59.667 -165.667 65 -207s8 -95 8 -161c-350.667 146 -607 219 -769 219c-127.333 0 -249 -4.33301 -365 -13c-56.667 -3.33301 -132.667 -9.66602 -228 -19c62.667 362.667 267.667 558.334 615 587v229h263v-254
c34 -10 86.333 -31 157 -63zM-220 2069c-21.333 65.333 -80.999 146.333 -178.999 243c-101.333 79.333 -207.333 119 -318 119c-106.667 8 -199.167 -0.833008 -277.5 -26.5s-154.5 -93.167 -228.5 -202.5c161.333 17.333 300.666 26 417.999 26
c145.333 2.66699 340.333 -50.333 585 -159z" />
    <glyph glyph-name="uni0E38" unicode="&#xe38;" horiz-adv-x="0" 
d="M-184 -844h-323.999v209c-40.667 -4 -69.334 -6 -86.001 -6c-191.333 0 -287 96.333 -287 289c0 78.667 32.333 142.5 97 191.5s142 73.5 232 73.5c112 0 201.333 -35.667 268 -107s100 -151.333 100 -240v-410zM-455.999 -383c0 41.333 -15.167 76.333 -45.5 105
s-66.833 43 -109.5 43c-37.333 0 -72.333 -13 -105 -39s-49 -62.333 -49 -109c0 -46 16.333 -82.167 49 -108.5s67.667 -39.5 105 -39.5c42.667 0 79.167 14.5 109.5 43.5s45.5 63.833 45.5 104.5z" />
    <glyph glyph-name="uni0E39" unicode="&#xe39;" horiz-adv-x="0" 
d="M-872 -844v274.999l-46 -4c-83.333 0 -146 22.5 -188 67.5s-63 101.5 -63 169.5c0 72 27.5 132.333 82.5 181s112.833 73 173.5 73c76 0 135.167 -26.167 177.5 -78.5s63.5 -108.166 63.5 -167.499v-327l62 -11c41.333 -2.66699 67.333 6 78 26s16 79 16 177v373h328
v-488c0 -71.333 -17.667 -133.5 -53 -186.5s-113.333 -79.5 -234 -79.5h-397zM-783 -332.001c0 84.667 -46.667 127 -140 127c-84 0 -126 -45 -126 -135c0 -82 43.667 -123 131 -123c90 0 135 43.667 135 131z" />
    <glyph glyph-name="uni0E3A" unicode="&#xe3a;" horiz-adv-x="0" 
d="M-605 -452c0 70 23.667 129.833 71 179.5s104.666 74.5 171.999 74.5c75.333 0 134.5 -27 177.5 -81s64.5 -111.667 64.5 -173c0 -70.667 -23.667 -130.834 -71 -180.501s-104.333 -74.5 -171 -74.5c-67.333 0 -124.666 24.833 -171.999 74.5s-71 109.834 -71 180.501z
" />
    <glyph glyph-name="uni0E3F" unicode="&#xe3f;" horiz-adv-x="1803" 
d="M853 -178l0.000976562 177.999h-796v49c60 0 108.833 6.16699 146.5 18.5s64 31 79 56s22.5 88.5 22.5 190.5v1162c0 78.667 -3.5 132.667 -10.5 162s-26 53.833 -57 73.5s-91.167 29.5 -180.5 29.5v49h796v266h161v-268c223.333 -9.33301 381.166 -57.333 473.499 -144
s138.5 -188 138.5 -304c0 -189.333 -141 -319.666 -423 -390.999c336.667 -71.333 505 -223 505 -455c0 -144 -59.833 -260.333 -179.5 -349s-291.167 -136.667 -514.5 -144v-179h-161zM853.001 992.999v696c-57.333 0.666992 -101 1 -131 1v-705c47.333 0 91 2.66699 131 8
zM1014 1645v-600c112.667 60 169 158.667 169 296c0 142 -56.333 243.333 -169 304zM853.001 97.999v780c-39.333 2.66699 -83 4 -131 4l-1 -640c0 -92 44 -140 132 -144zM1014 872.999v-747.999c152.667 58.667 229 176.667 229 354
c0 201.333 -76.333 332.666 -229 393.999z" />
    <glyph glyph-name="uni0E40" unicode="&#xe40;" horiz-adv-x="713" 
d="M348 1638l152 -0.00195312v-1106c67.333 -81.333 107.333 -136.5 120 -165.5s19 -65.167 19 -108.5c0 -61.333 -22.167 -119.666 -66.5 -174.999s-105.5 -83 -183.5 -83c-88.667 0 -155.167 28.333 -199.5 85s-66.5 121.334 -66.5 194.001c0 20 8 59.667 24 119
c16.667 60 25 96.667 25 110v848c0 56 19.333 112 58 168s78 94 118 114zM546 269.998c0 46 -15.165 85.167 -45.498 117.5s-66.833 48.5 -109.5 48.5c-48.667 0 -86.834 -17.5 -114.501 -52.5s-41.5 -72.833 -41.5 -113.5c0 -45.333 15.167 -84.166 45.5 -116.499
s67.166 -48.5 110.499 -48.5c42.667 0 79.167 16.167 109.5 48.5s45.5 71.166 45.5 116.499z" />
    <glyph glyph-name="uni0E41" unicode="&#xe41;" horiz-adv-x="1458" 
d="M348 1638l152 -0.00195312v-1106c67.333 -81.333 107.333 -136.5 120 -165.5s19 -65.167 19 -108.5c0 -61.333 -22.167 -119.666 -66.5 -174.999s-105.5 -83 -183.5 -83c-88.667 0 -155.167 28.333 -199.5 85s-66.5 121.334 -66.5 194.001c0 20 8 59.667 24 119
c16.667 60 25 96.667 25 110v848c0 56 19.333 112 58 168s78 94 118 114zM546 269.998c0 46 -15.165 85.167 -45.498 117.5s-66.833 48.5 -109.5 48.5c-48.667 0 -86.834 -17.5 -114.501 -52.5s-41.5 -72.833 -41.5 -113.5c0 -45.333 15.167 -84.166 45.5 -116.499
s67.166 -48.5 110.499 -48.5c42.667 0 79.167 16.167 109.5 48.5s45.5 71.166 45.5 116.499zM1118 1638l152 -0.000976562v-1106c67.333 -81.333 107.333 -136.5 120 -165.5s19 -65.167 19 -108.5c0 -70 -24.333 -130.5 -73 -181.5s-107.667 -76.5 -177 -76.5
c-88.667 0 -155.167 28.333 -199.5 85s-66.5 121.334 -66.5 194.001c0 20 8 59.667 24 119c16.667 60 25 96.667 25 110v848c0 56 19.333 112 58 168s78 94 118 114zM1316 269.997c0 40 -13.665 77.667 -40.998 113s-65.333 53 -114 53s-86.834 -17.5 -114.501 -52.5
s-41.5 -72.833 -41.5 -113.5c0 -45.333 15.167 -84.166 45.5 -116.499s67.166 -48.5 110.499 -48.5c42.667 0 79.167 16.167 109.5 48.5s45.5 71.166 45.5 116.499z" />
    <glyph glyph-name="uni0E42" unicode="&#xe42;" horiz-adv-x="1028" 
d="M729 532c4.66699 -9.33301 23.665 -33.6699 56.998 -73.0029s55.333 -74.666 66 -105.999s16 -63 16 -95c0 -70 -24.167 -130.5 -72.5 -181.5s-109.5 -76.5 -183.5 -76.5c-74.667 0 -136 26 -184 78s-72 119 -72 201c0 20 7.33301 59.667 22 119
c15.333 60 23 96.667 23 110l-1 1418c0 46 -18.5 87.5 -55.5 124.5s-155.5 124.833 -355.5 263.5l-116 82c0 40.667 52.333 115.667 157 225s191.667 164 261 164c36.667 0 105.667 -21 207 -63c96.667 -40 177.667 -60 243 -60c96.667 0 161 21.667 193 65l86 1
c0 -80 -36.167 -156 -108.5 -228s-148.166 -108 -227.499 -108c-41.333 0 -110.333 24 -207 72c-118.667 58.667 -193 88 -223 88c-21.333 0 -52 -13.167 -92 -39.5s-60 -50.166 -60 -71.5l114 -67c108.667 -57.333 221.334 -124.666 338.001 -201.999
s175 -154.666 175 -231.999v-1408zM770.998 269.996c0 46 -15.1689 85.167 -45.502 117.5s-66.833 48.5 -109.5 48.5c-43.333 0 -80.166 -16.167 -110.499 -48.5s-45.5 -71.5 -45.5 -117.5c0 -40 13.833 -77.5 41.5 -112.5s65.834 -52.5 114.501 -52.5
c48 0 85.833 17.5 113.5 52.5s41.5 72.5 41.5 112.5z" />
    <glyph glyph-name="uni0E43" unicode="&#xe43;" horiz-adv-x="950" 
d="M713 528c4.66699 -10.667 29.001 -44.5 73.001 -101.5s66 -114.5 66 -172.5c0 -70.667 -24 -130.667 -72 -180s-107.333 -74 -178 -74c-78.667 0 -142 25.167 -190 75.5s-72 116.5 -72 198.5c0 18.667 7.33301 57.667 22 117c15.333 60 23 97.667 23 113v1741
c0 143.333 -20.833 235 -62.5 275s-89.167 60 -142.5 60c-62.667 0 -118.834 -26.333 -168.501 -79s-74.5 -111.334 -74.5 -176c0 -139.333 51.333 -209 154 -209c16.667 0 32.834 10.667 48.501 32s23.5 42.333 23.5 63c0 47.333 -30 96 -90 146l65 103
c108 -80 162 -160 162 -240c0 -72 -17.5 -135.667 -52.5 -191s-87.5 -83 -157.5 -83c-90 0 -160 37 -210 111s-75 158.333 -75 253c0 126 45.667 235.333 137 328s206.666 139 345.999 139c283.333 0 425 -188.333 425 -565v-1684zM751.001 260
c0 46 -15.165 85.166 -45.498 117.499s-66.833 48.5 -109.5 48.5c-48.667 0 -86.834 -17.5 -114.501 -52.5s-41.5 -72.833 -41.5 -113.5c0 -45.333 15.167 -84.166 45.5 -116.499s67.166 -48.5 110.499 -48.5c48 0 85.833 17.5 113.5 52.5s41.5 72.5 41.5 112.5z" />
    <glyph glyph-name="uni0E44" unicode="&#xe44;" horiz-adv-x="1192" 
d="M-201 2753l40.998 90c32 -6.66699 86.667 -25.667 164 -57c54 -30.667 93 -60.167 117 -88.5s43.333 -55.833 58 -82.5s22 -69.667 22 -129v-454c0 -93.333 27.333 -140 82 -140c43.333 0 65 41 65 123v484c0 70.667 25.333 137.334 76 200.001s121 94 211 94
c207.333 0 311 -132.333 311 -397v-1864c4.66699 -10 21 -31.333 49 -64c60 -70 90 -140 90 -210c0 -70.667 -24 -131.334 -72 -182.001s-109 -76 -183 -76c-77.333 0 -140.166 26.167 -188.499 78.5s-72.5 119.166 -72.5 200.499c0 20 8 59.667 24 119
c16.667 60 25.334 100 26.001 120v1980c0 71.333 -17 107 -51 107c-40 0 -60 -34 -60 -102v-463c0 -81.333 -26.667 -148.166 -80 -200.499s-120.333 -78.5 -201 -78.5c-65.333 0 -127 26.5 -185 79.5s-87 123.5 -87 211.5v528c0 57.333 -52 115 -156 173zM990.998 270
c0 46 -15.167 85.166 -45.5 117.499s-66.833 48.5 -109.5 48.5c-43.333 0 -80.166 -16.167 -110.499 -48.5s-45.5 -71.5 -45.5 -117.5c0 -45.333 15.167 -84.166 45.5 -116.499s67.166 -48.5 110.499 -48.5c48 0 85.833 17.5 113.5 52.5s41.5 72.5 41.5 112.5z" />
    <glyph glyph-name="uni0E45" unicode="&#xe45;" horiz-adv-x="1229" 
d="M172 1384l-60.999 56c133.333 132 260.333 198 381 198c101.333 0 187.666 -15.667 258.999 -47s130.5 -78 177.5 -140s70.5 -133.333 70.5 -214v-2052h-327l-1 2069c0 56 -18.833 108.833 -56.5 158.5s-103.167 74.5 -196.5 74.5c-80 0 -162 -34.333 -246 -103z" />
    <glyph glyph-name="uni0E46" unicode="&#xe46;" horiz-adv-x="1384" 
d="M618 1176l-81.002 94.999c-60.667 80 -97 120 -109 120c-23.333 0 -52.166 -38 -86.499 -114s-51.5 -148.333 -51.5 -217c0 -168 53 -252 159 -252c50 0 75 22 75 66l-4 85c0 44.667 19.667 67 59 67c58.667 0 88 -54.333 88 -163c0 -62 -20.833 -111.833 -62.5 -149.5
s-93.5 -56.5 -155.5 -56.5c-114 0 -197.5 43.833 -250.5 131.5s-79.5 183.834 -79.5 288.501c0 81.333 17.333 160.833 52 238.5s82.667 149.5 144 215.5s101 99 119 99c18.667 0 53.334 -39.333 104.001 -118l76 -95l92 105c60.667 78.667 99.667 117.334 117 116.001
c105.333 0 198 -42.833 278 -128.5s120 -184.834 120 -297.501v-2031h-324v2031c0 123.333 -27.333 185 -82 185c-14.667 0 -49.667 -34.333 -105 -103z" />
    <glyph glyph-name="uni0E47" unicode="&#xe47;" horiz-adv-x="0" 
d="M-316 2648l203.996 -0.00292969c-15.333 -116.667 -63.666 -201.667 -144.999 -255s-150.333 -79 -207 -77c-48.667 0 -105.167 5 -169.5 15s-113.5 15 -147.5 15c-130.667 0 -196 -58.333 -196 -175c0 -84.667 16.333 -127 49 -127
c16 -1.33301 27.833 9.66699 35.5 33.001c7.66699 23.333 16.167 42 25.5 56s24.333 21 45 21c34 0 137.333 -47.333 310 -142c56 -31.333 99 -47 129 -47c31.333 0 47 14 47 42c0 22 -24.667 33 -74 33c-54 0 -81 34 -81 102c0 88.667 49.667 133 149 133
c52.667 0 94 -21.667 124 -65s45 -89 45 -137c0 -59.333 -17.5 -115.666 -52.5 -168.999s-80.167 -80 -135.5 -80c-47.333 0 -93.666 9.5 -138.999 28.5s-101 46.833 -167 83.5s-109.333 55 -130 55c-24.667 0 -37 -20.333 -37 -61c0 -22.667 8 -48.667 24 -78h-53
c-64 0 -122.167 31.333 -174.5 94s-77.166 137.667 -74.499 225.001c-2.66699 201.333 75 308.666 233 322l168 -6l150 -6c116.667 0 198.334 55.667 245.001 167z" />
    <glyph glyph-name="uni0E48" unicode="&#xe48;" horiz-adv-x="0" 
d="M-471 2761h422l-131 -815h-164z" />
    <glyph glyph-name="uni0E49" unicode="&#xe49;" horiz-adv-x="0" 
d="M-517 2053c172.667 67.333 291.001 167 355.001 299s96 249.333 96 352v77h222v-86c0 -81.333 -28.167 -194 -84.5 -338s-171.166 -272.833 -344.499 -386.5s-356 -170.5 -548 -170.5c-29.333 0 -64.333 2 -105 6v152c34.667 2 89.667 28 165 78
c48 40 87.667 108.333 119 205c-43.333 -4.66699 -73.333 -7 -90 -7c-54.667 0 -108.834 22.667 -162.501 68s-80.5 104 -80.5 176c-6.66699 76 15.166 144.833 65.499 206.5s118.5 92.5 204.5 92.5c196.667 0 295 -95.667 295 -287c0 -116 -25.333 -236.333 -76 -361z
M-570.999 2507c0 85.333 -45 128 -135 128s-135 -42.667 -135 -128c0 -86 45 -129 135 -129s135 43 135 129z" />
    <glyph glyph-name="uni0E4A" unicode="&#xe4a;" horiz-adv-x="0" 
d="M-573 2283c-70.667 110.667 -125.333 165.999 -164 165.999c-42 0 -80.5 -26 -115.5 -78s-52.5 -102.333 -52.5 -151c0 -46 12.333 -88.167 37 -126.5s49.5 -63.666 74.5 -75.999s56.167 -18.5 93.5 -18.5c-6 22 -9 50.667 -9 86c0 76.667 31.667 115 95 115
c84.667 0 127 -48 127 -144c0 -56 -19.333 -100 -58 -132s-79.667 -48 -123 -48c-99.333 0 -183.5 39 -252.5 117s-103.5 168.667 -103.5 272c0 80.667 23.167 166.334 69.5 257c46.333 90.667 100.833 136 163.5 136c62 0 133.333 -51.667 214 -155
c68 114.667 125 172 171 172c158.667 0 238 -119.333 238 -358v-101c44 14.667 86 72.334 126 173c18 42 28.667 127.667 32 257l2 90h221v-69c0 -164 -64.667 -330.833 -194 -500.5s-268 -262.5 -416 -278.5c76 146 114 260.667 114 344c0 144.667 -39.333 217 -118 217
c-46.667 0 -104 -55.333 -172 -166z" />
    <glyph glyph-name="uni0E4B" unicode="&#xe4b;" horiz-adv-x="0" 
d="M-360 2494v287h225v-287h323v-229h-323v-336h-225v336h-336v229h336z" />
    </font>
</defs>
</svg>
